<svg width="68" height="68" viewBox="0 0 68 68" fill="none" xmlns="http://www.w3.org/2000/svg">
<g filter="url(#filter0_d_836_571)">
<circle cx="34" cy="34" r="30" fill="white"/>
</g>
<path d="M38.6447 43.6871C38.7084 43.7849 38.7524 43.8943 38.7741 44.0093C38.7959 44.1242 38.7949 44.2423 38.7713 44.3569C38.7477 44.4714 38.7019 44.5802 38.6366 44.6769C38.5713 44.7736 38.4877 44.8563 38.3906 44.9204C37.2647 45.666 35.9624 46.426 34.4094 47.2464C34.2838 47.3122 34.1442 47.3466 34.0026 47.3466C33.8611 47.3466 33.7215 47.3122 33.5959 47.2464C20.8953 40.6243 19 33.5076 19 29.854C19 24.6948 22.4888 20.6533 26.9412 20.6533C28.2748 20.6578 29.5925 20.9454 30.8087 21.4973C32.0248 22.0492 33.1122 22.8531 34 23.8566C34.8878 22.8531 35.9752 22.0492 37.1913 21.4973C38.4075 20.9454 39.7252 20.6578 41.0588 20.6533C45.5112 20.6533 49 24.6948 49 29.854C48.9562 32.2064 48.2752 34.5019 47.0306 36.492C46.9739 36.5975 46.8967 36.6902 46.8035 36.7648C46.7104 36.8394 46.6032 36.8942 46.4885 36.9259C46.3739 36.9577 46.254 36.9657 46.1361 36.9496C46.0183 36.9334 45.9049 36.8934 45.8028 36.832C45.7007 36.7705 45.6119 36.6889 45.5419 36.592C45.4718 36.495 45.4219 36.3848 45.3952 36.268C45.3684 36.1511 45.3654 36.03 45.3862 35.9119C45.4071 35.7938 45.4514 35.6812 45.5165 35.5808C46.5948 33.8649 47.1891 31.885 47.2353 29.854C47.2353 25.622 44.5882 22.4329 41.0588 22.4329C39.8196 22.4428 38.6006 22.75 37.5023 23.3289C36.4041 23.9079 35.4583 24.7421 34.7429 25.7626C34.6572 25.88 34.5452 25.9754 34.4162 26.0411C34.2871 26.1069 34.1446 26.1411 34 26.1411C33.8554 26.1411 33.7129 26.1069 33.5838 26.0411C33.4548 25.9754 33.3428 25.88 33.2571 25.7626C32.5417 24.7421 31.5959 23.9079 30.4977 23.3289C29.3994 22.75 28.1804 22.4428 26.9412 22.4329C23.4206 22.4329 20.7647 25.622 20.7647 29.854C20.7647 33.0573 22.4941 39.3288 34 45.4525C35.3218 44.7406 36.4459 44.0804 37.4235 43.4326C37.619 43.3032 37.8574 43.2573 38.0863 43.305C38.3153 43.3528 38.5161 43.4902 38.6447 43.6871ZM46.3529 40.2293H43.7059V37.5598C43.7059 37.3238 43.6129 37.0975 43.4474 36.9306C43.282 36.7637 43.0575 36.67 42.8235 36.67C42.5895 36.67 42.3651 36.7637 42.1996 36.9306C42.0341 37.0975 41.9412 37.3238 41.9412 37.5598V40.2293H39.2941C39.0601 40.2293 38.8357 40.323 38.6702 40.4899C38.5047 40.6568 38.4118 40.8831 38.4118 41.1191C38.4118 41.3551 38.5047 41.5814 38.6702 41.7483C38.8357 41.9151 39.0601 42.0089 39.2941 42.0089H41.9412V44.6784C41.9412 44.9143 42.0341 45.1407 42.1996 45.3075C42.3651 45.4744 42.5895 45.5682 42.8235 45.5682C43.0575 45.5682 43.282 45.4744 43.4474 45.3075C43.6129 45.1407 43.7059 44.9143 43.7059 44.6784V42.0089H46.3529C46.587 42.0089 46.8114 41.9151 46.9769 41.7483C47.1423 41.5814 47.2353 41.3551 47.2353 41.1191C47.2353 40.8831 47.1423 40.6568 46.9769 40.4899C46.8114 40.323 46.587 40.2293 46.3529 40.2293Z" fill="#1A1A1A"/>
<defs>
<filter id="filter0_d_836_571" x="0" y="0" width="68" height="68" filterUnits="userSpaceOnUse" color-interpolation-filters="sRGB">
<feFlood flood-opacity="0" result="BackgroundImageFix"/>
<feColorMatrix in="SourceAlpha" type="matrix" values="0 0 0 0 0 0 0 0 0 0 0 0 0 0 0 0 0 0 127 0" result="hardAlpha"/>
<feOffset/>
<feGaussianBlur stdDeviation="2"/>
<feComposite in2="hardAlpha" operator="out"/>
<feColorMatrix type="matrix" values="0 0 0 0 0 0 0 0 0 0 0 0 0 0 0 0 0 0 0.07 0"/>
<feBlend mode="normal" in2="BackgroundImageFix" result="effect1_dropShadow_836_571"/>
<feBlend mode="normal" in="SourceGraphic" in2="effect1_dropShadow_836_571" result="shape"/>
</filter>
</defs>
</svg>
