<svg width="27" height="29" viewBox="0 0 27 29" fill="none" xmlns="http://www.w3.org/2000/svg">
<path fill-rule="evenodd" clip-rule="evenodd" d="M5.45569 9.02601H6.09573C6.69131 5.15248 8.62879 0 13.4996 0C18.3704 0 20.3078 5.15371 20.9022 9.02601C21.9228 9.02601 22.6766 9.01758 23.5563 9.74486C24.1025 10.1964 24.4867 10.8322 24.6115 11.5691L26.958 25.4766C27.2694 27.325 25.8089 29 23.8899 29H3.11037C1.19143 29 -0.270487 27.3251 0.0422933 25.4766L2.38878 11.5691C2.6359 10.0965 3.92845 9.02601 5.45569 9.02601ZM8.54724 9.02601H18.4519C18.0133 6.47569 16.7233 2.36709 13.4996 2.36709C10.2759 2.36709 8.98566 6.47551 8.54724 9.02601Z" fill="#1A1A1A"/>
</svg>
