<svg width="44" height="27" viewBox="0 0 44 27" fill="none" xmlns="http://www.w3.org/2000/svg">
<path d="M8.94129 11.3438H4.12889C3.94656 11.3438 3.77169 11.4162 3.64277 11.5451C3.51384 11.674 3.44141 11.8489 3.44141 12.0312C3.44141 12.2136 3.51384 12.3885 3.64277 12.5174C3.77169 12.6463 3.94656 12.7187 4.12889 12.7187H8.94129C9.12363 12.7187 9.29849 12.6463 9.42742 12.5174C9.55635 12.3885 9.62878 12.2136 9.62878 12.0312C9.62878 11.8489 9.55635 11.674 9.42742 11.5451C9.29849 11.4162 9.12363 11.3438 8.94129 11.3438Z" fill="#1A1A1A" fill-opacity="0.75"/>
<path d="M8.94129 16.8438H4.12889C3.94656 16.8438 3.77169 16.9162 3.64277 17.0451C3.51384 17.174 3.44141 17.3489 3.44141 17.5312C3.44141 17.7136 3.51384 17.8885 3.64277 18.0174C3.77169 18.1463 3.94656 18.2187 4.12889 18.2187H8.94129C9.12363 18.2187 9.29849 18.1463 9.42742 18.0174C9.55635 17.8885 9.62878 17.7136 9.62878 17.5312C9.62878 17.3489 9.55635 17.174 9.42742 17.0451C9.29849 16.9162 9.12363 16.8438 8.94129 16.8438Z" fill="#1A1A1A" fill-opacity="0.75"/>
<path d="M8.94122 14.0938H0.691392C0.50906 14.0938 0.334195 14.1662 0.205266 14.2951C0.0763376 14.424 0.00390625 14.5989 0.00390625 14.7812C0.00390625 14.9636 0.0763376 15.1385 0.205266 15.2674C0.334195 15.3963 0.50906 15.4687 0.691392 15.4687H8.94122C9.12356 15.4687 9.29842 15.3963 9.42735 15.2674C9.55628 15.1385 9.62871 14.9636 9.62871 14.7812C9.62871 14.5989 9.55628 14.424 9.42735 14.2951C9.29842 14.1662 9.12356 14.0938 8.94122 14.0938Z" fill="#1A1A1A" fill-opacity="0.75"/>
<path d="M37.4725 12.7188C36.1808 12.7188 34.9181 13.1018 33.844 13.8195C32.77 14.5371 31.9329 15.5572 31.4386 16.7506C30.9442 17.944 30.8149 19.2572 31.0669 20.5242C31.3189 21.7911 31.9409 22.9549 32.8543 23.8683C33.7677 24.7817 34.9315 25.4037 36.1984 25.6558C37.4653 25.9078 38.7785 25.7784 39.9719 25.2841C41.1653 24.7898 42.1853 23.9526 42.9029 22.8786C43.6206 21.8045 44.0036 20.5418 44.0036 19.25C44.0021 17.5183 43.3135 15.8579 42.089 14.6334C40.8645 13.4089 39.2042 12.7203 37.4725 12.7188ZM38.4418 21.905V22.3438C38.4418 22.5261 38.3694 22.701 38.2405 22.8299C38.1115 22.9588 37.9367 23.0312 37.7543 23.0312C37.572 23.0312 37.3971 22.9588 37.2682 22.8299C37.1393 22.701 37.0668 22.5261 37.0668 22.3438V22.0382H36.3867C36.2044 22.0382 36.0295 21.9658 35.9006 21.8369C35.7717 21.708 35.6993 21.5331 35.6993 21.3507C35.6993 21.1684 35.7717 20.9935 35.9006 20.8646C36.0295 20.7357 36.2044 20.6632 36.3867 20.6632H37.7065C38.1273 20.6632 38.16 20.3934 38.16 20.3108C38.16 20.1006 37.9989 19.9848 37.7065 19.9848H37.2355C37.0011 19.9967 36.7668 19.961 36.5466 19.8799C36.3264 19.7987 36.1249 19.6738 35.9543 19.5126C35.7838 19.3515 35.6476 19.1574 35.554 18.9422C35.4605 18.727 35.4115 18.495 35.4101 18.2604C35.4086 18.041 35.4505 17.8236 35.5333 17.6205C35.6161 17.4173 35.7381 17.2326 35.8924 17.0767C36.2081 16.7683 36.626 16.5866 37.0668 16.5661V16.1562C37.0668 15.9739 37.1393 15.799 37.2682 15.6701C37.3971 15.5412 37.572 15.4688 37.7543 15.4688C37.9367 15.4688 38.1115 15.5412 38.2405 15.6701C38.3694 15.799 38.4418 15.9739 38.4418 16.1562V16.5574H38.5551C38.7374 16.5574 38.9123 16.6298 39.0412 16.7588C39.1702 16.8877 39.2426 17.0626 39.2426 17.2449C39.2426 17.4272 39.1702 17.6021 39.0412 17.731C38.9123 17.86 38.7374 17.9324 38.5551 17.9324H37.2355C36.8436 17.9324 36.785 18.1378 36.785 18.2604C36.785 18.3423 36.8176 18.6098 37.2355 18.6098H37.7065C37.954 18.6009 38.2007 18.6422 38.4318 18.7312C38.6629 18.8201 38.8736 18.9549 39.0512 19.1275C39.206 19.283 39.3284 19.4676 39.4114 19.6707C39.4945 19.8738 39.5365 20.0914 39.535 20.3108C39.5344 20.6557 39.4297 20.9923 39.2347 21.2768C39.0396 21.5612 38.7633 21.7801 38.4418 21.905Z" fill="#1A1A1A" fill-opacity="0.75"/>
<path d="M29.5669 19.25C29.57 17.3327 30.2685 15.4817 31.5328 14.0404C32.7971 12.599 34.5413 11.6653 36.4418 11.4125V4.56156L38.5042 2.26875V11.4125C38.738 11.4434 38.9683 11.4847 39.1952 11.5363C39.2011 11.5353 39.2072 11.5366 39.2123 11.5397C39.4392 11.5912 39.6592 11.6497 39.8792 11.7184V1.375C39.8793 1.19442 39.8437 1.0156 39.7746 0.84875C39.7056 0.681905 39.6043 0.530305 39.4766 0.402614C39.3489 0.274924 39.1973 0.173644 39.0305 0.104562C38.8636 0.0354798 38.6848 -5.09811e-05 38.5042 5.49025e-08H17.694C17.0995 0.0212735 16.5244 0.217364 16.0406 0.56375L11.9604 3.71937C11.8656 3.81845 11.7927 3.93639 11.7465 4.0655C11.7003 4.19462 11.6818 4.33202 11.6923 4.46875V24.0625C11.6927 24.6094 11.9102 25.1337 12.2968 25.5204C12.6835 25.9071 13.2079 26.1246 13.7547 26.125H33.575C33.2486 25.9393 32.9361 25.7302 32.64 25.4994C31.6841 24.762 30.91 23.8152 30.3773 22.7318C29.8445 21.6484 29.5673 20.4573 29.5669 19.25ZM16.8828 1.65344C17.1247 1.49227 17.4042 1.39636 17.694 1.375H37.4593L35.2937 3.78125H14.1294L16.8828 1.65344ZM19.2546 22.6875H15.8172C15.635 22.687 15.4605 22.6144 15.3317 22.4855C15.2029 22.3567 15.1302 22.1822 15.1297 22V18.5625C15.1297 18.3802 15.2021 18.2053 15.3311 18.0764C15.46 17.9474 15.6349 17.875 15.8172 17.875C15.9995 17.875 16.1744 17.9474 16.3033 18.0764C16.4323 18.2053 16.5047 18.3802 16.5047 18.5625V21.3125H19.2546C19.437 21.3125 19.6118 21.3849 19.7408 21.5139C19.8697 21.6428 19.9421 21.8177 19.9421 22C19.9421 22.1823 19.8697 22.3572 19.7408 22.4861C19.6118 22.6151 19.437 22.6875 19.2546 22.6875Z" fill="#1A1A1A" fill-opacity="0.75"/>
</svg>
