<svg width="19" height="19" viewBox="0 0 19 19" fill="none" xmlns="http://www.w3.org/2000/svg">
<path d="M13.0375 0.100098H2.35C1.10744 0.101196 0.101095 1.10754 0.0999985 2.3501V13.0376C0.101097 14.2802 1.10744 15.2865 2.35 15.2876H2.9125C2.9147 16.84 4.17264 18.0979 5.725 18.1001H15.2875C16.8399 18.0979 18.0978 16.84 18.1 15.2876V5.7251C18.0978 4.17274 16.8399 2.91479 15.2875 2.9126V2.3501C15.2864 1.10754 14.2801 0.101195 13.0375 0.100098ZM16.975 5.7251V15.2876C16.9739 16.2192 16.2191 16.974 15.2875 16.9751H5.725C4.79336 16.974 4.0386 16.2192 4.0375 15.2876V5.7251C4.0386 4.79346 4.79336 4.03869 5.725 4.0376H15.2875C16.2191 4.0387 16.9739 4.79346 16.975 5.7251ZM5.725 2.9126C4.17264 2.91479 2.91469 4.17274 2.9125 5.7251V14.1626H2.35C1.72928 14.1615 1.2261 13.6583 1.225 13.0376V2.3501C1.2261 1.72938 1.72928 1.22619 2.35 1.2251H13.0375C13.6582 1.2262 14.1614 1.72938 14.1625 2.3501V2.9126H5.725Z" fill="#1A1A1A" stroke="#1A1A1A" stroke-width="0.2"/>
</svg>
