<svg width="25" height="32" viewBox="0 0 25 32" fill="none" xmlns="http://www.w3.org/2000/svg">
<path d="M24.6339 30.4741C24.6339 30.6121 24.605 30.7488 24.5488 30.8763C24.4925 31.0038 24.4101 31.1197 24.3061 31.2173C24.2021 31.3149 24.0786 31.3923 23.9427 31.4451C23.8068 31.4979 23.6612 31.525 23.5141 31.5249H1.11972C0.972653 31.525 0.827012 31.4979 0.691123 31.4451C0.555234 31.3923 0.431764 31.3149 0.327772 31.2173C0.223779 31.1197 0.141304 31.0038 0.0850629 30.8763C0.0288214 30.7488 -8.37181e-05 30.6121 1.82123e-07 30.4741C1.82123e-07 27.4084 1.29767 24.4683 3.60754 22.3005C5.91742 20.1328 9.05027 18.9149 12.3169 18.9149C15.5836 18.9149 18.7164 20.1328 21.0263 22.3005C23.3362 24.4683 24.6339 27.4084 24.6339 30.4741ZM12.3169 4.20332C10.9882 4.20332 9.68925 4.5731 8.58443 5.2659C7.4796 5.9587 6.6185 6.94341 6.11001 8.09549C5.60151 9.24757 5.46847 10.5153 5.72769 11.7383C5.98692 12.9614 6.62678 14.0848 7.56635 14.9666C8.50593 15.8484 9.70302 16.4489 11.0062 16.6921C12.3095 16.9354 13.6603 16.8106 14.8879 16.3333C16.1155 15.8561 17.1648 15.048 17.903 14.0112C18.6412 12.9743 19.0352 11.7553 19.0352 10.5083C19.0333 8.83668 18.3249 7.23404 17.0653 6.05203C15.8058 4.87001 14.0981 4.20515 12.3169 4.20332ZM2.23944 13.6608C2.83314 13.6601 3.40231 13.4384 3.82211 13.0444C4.24192 12.6504 4.47811 12.1163 4.47888 11.5591V9.45747C4.47888 8.90008 4.24294 8.36551 3.82296 7.97137C3.40299 7.57724 2.83338 7.35581 2.23944 7.35581C1.6455 7.35581 1.07589 7.57724 0.655917 7.97137C0.235941 8.36551 1.82123e-07 8.90008 1.82123e-07 9.45747V11.5591C0.000770491 12.1163 0.236958 12.6504 0.656768 13.0444C1.07658 13.4384 1.64574 13.6601 2.23944 13.6608ZM12.3169 2.10166C13.822 2.1031 15.3024 2.46067 16.6213 3.14131C17.9401 3.82195 19.0548 4.80367 19.8622 5.99571C20.5041 5.5876 21.2486 5.34414 22.0218 5.28949C21.045 3.68284 19.6328 2.34726 17.9284 1.41829C16.2239 0.489314 14.288 0 12.3169 0C10.3459 0 8.40994 0.489314 6.7055 1.41829C5.00107 2.34726 3.58881 3.68284 2.61204 5.28949C3.38521 5.34414 4.12972 5.5876 4.77166 5.99571C5.57909 4.80367 6.69376 3.82195 8.01259 3.14131C9.33142 2.46067 10.8118 2.1031 12.3169 2.10166ZM22.3944 7.35581C21.8007 7.35653 21.2315 7.57819 20.8117 7.97217C20.3919 8.36615 20.1557 8.9003 20.155 9.45747V11.5591C20.1556 11.9098 20.2498 12.2548 20.4291 12.5625C20.6083 12.8702 20.8669 13.1308 21.1811 13.3206C21.0102 14.0137 20.5945 14.6321 20.0016 15.0754C19.4087 15.5187 18.6736 15.7609 17.9155 15.7625C17.6186 15.7625 17.3338 15.8732 17.1238 16.0702C16.9138 16.2673 16.7958 16.5346 16.7958 16.8133C16.7958 17.092 16.9138 17.3593 17.1238 17.5563C17.3338 17.7534 17.6186 17.8641 17.9155 17.8641C19.249 17.8607 20.5372 17.4102 21.5479 16.5939C22.5587 15.7776 23.2253 14.6493 23.4277 13.4124C23.7899 13.2363 24.0939 12.9705 24.3065 12.6438C24.5191 12.3171 24.6323 11.942 24.6339 11.5591V9.45747C24.6331 8.9003 24.3969 8.36615 23.9771 7.97217C23.5573 7.57819 22.9881 7.35653 22.3944 7.35581Z" fill="#1A1A1A"/>
</svg>
