<svg width="18" height="18" viewBox="0 0 18 18" fill="none" xmlns="http://www.w3.org/2000/svg">
<path d="M11.7146 17.9989C12.9621 18.0252 14.1657 17.5399 15.0443 16.6536C15.8482 15.953 16.3061 14.9361 16.2973 13.8698C16.2237 13.2395 15.858 12.6805 15.3112 12.3598L15.3101 12.3587C15.1849 12.2797 15.0531 12.1907 14.9169 12.0996C13.8682 11.3979 12.1122 10.2228 10.734 11.6362L9.7237 12.6465C7.86452 11.656 6.34145 10.1328 5.34964 8.27354L6.35444 7.26873C7.77436 5.88614 6.59933 4.13022 5.89761 3.08133C5.80537 2.94406 5.71751 2.81228 5.63735 2.6871L5.63844 2.686C5.31669 2.13913 4.75773 1.77453 4.12738 1.69986C3.06106 1.68998 2.04307 2.14793 1.34357 2.95395C-1.55992 5.85631 0.670407 10.7322 3.97256 14.0343C6.19854 16.2603 9.14287 17.9989 11.7146 17.9989ZM2.13885 3.74822C2.59239 3.23319 3.21945 2.90045 3.90028 2.81259C3.93542 2.8115 3.97056 2.81369 4.0057 2.81808C4.29673 2.85762 4.55149 3.03332 4.68986 3.29139C4.77332 3.42317 4.86666 3.56154 4.9633 3.70651C5.75726 4.89363 6.26571 5.78531 5.56618 6.46836L4.27805 7.75649C4.11552 7.91902 4.0683 8.1639 4.15835 8.37475C5.30263 10.7665 7.23108 12.6948 9.62292 13.8393C9.83376 13.9294 10.0787 13.8821 10.2412 13.7196L11.5337 12.426C12.2113 11.7319 13.1041 12.2393 14.2901 13.0333C14.435 13.1299 14.5734 13.2233 14.7052 13.3067L14.7063 13.3078C14.9644 13.4473 15.1412 13.7009 15.1796 13.992C15.1368 14.7156 14.8007 15.3899 14.2495 15.8588C11.9983 18.11 7.77481 16.2454 4.76787 13.2386C1.7567 10.2275 -0.113383 6.00174 2.13885 3.74822Z" fill="black"/>
<path d="M13.2204 0C11.9729 0 10.7737 0.488685 9.88084 1.36173C8.98803 2.23367 8.47191 3.42186 8.44335 4.66948C8.4137 5.91808 8.87494 7.12825 9.72709 8.04077L9.16812 8.59973V8.59864C9.00779 8.76007 8.95947 9.00166 9.04623 9.21141C9.13408 9.42116 9.33835 9.55843 9.56567 9.55843H13.2203C14.928 9.55843 16.5062 8.64806 17.3594 7.16885C18.2138 5.69073 18.2138 3.86897 17.3594 2.38967C16.5061 0.911556 14.9281 0 13.2204 0ZM13.2204 8.43384H10.923L10.9307 8.42615C11.0427 8.31414 11.1031 8.1604 11.0954 8.00227C11.0877 7.84414 11.0142 7.69699 10.8923 7.59595C9.52395 6.46377 9.16706 4.51226 10.0467 2.96943C10.9274 1.42652 12.7888 0.74017 14.459 1.34195C16.1304 1.94373 17.1264 3.65907 16.8211 5.40847C16.5158 7.15784 14.9973 8.43384 13.2204 8.43384Z" fill="black"/>
</svg>
