<svg width="104" height="64" viewBox="0 0 104 64" fill="none" xmlns="http://www.w3.org/2000/svg">
<path d="M2.57031 57.0005C2.24674 57.0005 1.9209 56.9937 1.59277 56.98H1.53125C1.07096 56.98 0.772461 56.8797 0.635742 56.6792C0.576497 56.5926 0.546875 56.4718 0.546875 56.3169C0.546875 56.0936 0.610677 55.7996 0.738281 55.4351C0.947917 54.797 1.06868 54.1431 1.10059 53.4731C1.11426 52.8306 1.12565 51.8188 1.13477 50.438C1.13477 49.7863 1.13021 49.2713 1.12109 48.8931C1.07552 47.9771 0.972982 47.3413 0.813477 46.9858C0.663086 46.6668 0.587891 46.3843 0.587891 46.1382C0.587891 46.0243 0.601562 45.9126 0.628906 45.8032C0.720052 45.5207 0.886393 45.3498 1.12793 45.2905C1.36947 45.2267 1.61556 45.1948 1.86621 45.1948H2.08496C2.65007 45.1766 3.62533 45.1675 5.01074 45.1675C5.63053 45.1675 6.05208 45.172 6.27539 45.1812C6.84049 45.2222 7.38281 45.3452 7.90234 45.5503C8.42188 45.7554 8.87077 46.047 9.24902 46.4253C9.63184 46.799 9.89844 47.2616 10.0488 47.813C10.1855 48.3188 10.2539 48.8156 10.2539 49.3032C10.2539 49.5858 10.2106 49.9823 10.124 50.4927C10.0374 50.9985 9.68652 51.5591 9.07129 52.1743C8.33757 52.908 7.38053 53.2749 6.2002 53.2749C5.89486 53.2749 5.57812 53.2476 5.25 53.1929C5.04948 53.161 4.89225 53.145 4.77832 53.145H4.65527C4.59147 53.145 4.53223 53.1815 4.47754 53.2544C4.40462 53.3774 4.36816 53.505 4.36816 53.6372C4.36816 53.6965 4.375 53.758 4.38867 53.8218C4.5026 54.3231 4.66439 54.7606 4.87402 55.1343C5.08366 55.508 5.18848 55.827 5.18848 56.0913C5.18848 56.2235 5.14974 56.3853 5.07227 56.5767C4.99479 56.7635 4.77376 56.8797 4.40918 56.9253C3.7985 56.9754 3.18555 57.0005 2.57031 57.0005ZM5.12695 51.4224C5.28646 51.4224 5.43229 51.4019 5.56445 51.3608C6.17057 51.133 6.59668 50.7183 6.84277 50.1167C6.9248 49.8979 6.96582 49.6701 6.96582 49.4331C6.96582 48.9865 6.84505 48.5604 6.60352 48.1548C6.36198 47.7492 6.01335 47.4598 5.55762 47.2866C5.37988 47.2228 5.21354 47.1909 5.05859 47.1909C4.48893 47.1909 4.19043 47.4849 4.16309 48.0728L4.17676 49.8433C4.17676 50.2215 4.17448 50.5041 4.16992 50.6909C4.16992 50.9233 4.24967 51.0965 4.40918 51.2104C4.59603 51.3517 4.83529 51.4224 5.12695 51.4224ZM16.9285 57.1646C16.7052 57.1646 16.4249 57.1509 16.0877 57.1235C15.755 57.1007 15.3699 57.021 14.9324 56.8843C14.2124 56.6564 13.6495 56.285 13.2439 55.77C12.8429 55.255 12.5991 54.5669 12.5125 53.7056C12.4578 53.186 12.4259 52.5275 12.4168 51.73C12.4077 50.3947 12.3963 49.4491 12.3826 48.8931C12.3689 48.3371 12.3234 47.9224 12.2459 47.6489C12.173 47.3983 12.0932 47.1772 12.0066 46.9858C11.8517 46.6395 11.7742 46.3706 11.7742 46.1792C11.7742 45.7645 11.9747 45.4705 12.3758 45.2974L12.4031 45.2837V45.2905C12.5717 45.2267 12.7723 45.1948 13.0047 45.1948H15.2605C15.6525 45.2131 15.9327 45.3498 16.1014 45.605C16.2153 45.7736 16.2723 45.9627 16.2723 46.1724C16.2723 46.3683 16.2016 46.6372 16.0604 46.979C15.9783 47.1704 15.9031 47.3914 15.8348 47.6421C15.7664 47.8927 15.7277 48.2118 15.7186 48.5991C15.7003 50.1213 15.6912 51.0418 15.6912 51.3608C15.6912 51.9533 15.7049 52.466 15.7322 52.8989C15.7732 53.578 16.0581 54.1157 16.5867 54.5122C16.8465 54.6899 17.1404 54.7788 17.4686 54.7788H17.7488C17.922 54.7788 18.1408 54.6672 18.4051 54.4438C18.674 54.216 18.8289 53.8582 18.8699 53.3706C18.9064 52.5959 18.9246 51.8188 18.9246 51.0396L18.9178 49.1255C18.9223 48.9614 18.9246 48.7951 18.9246 48.6265C18.9246 48.3302 18.9132 48.075 18.8904 47.8608C18.8494 47.478 18.7537 47.1203 18.6033 46.7876C18.4666 46.5187 18.396 46.2339 18.3914 45.9331C18.4096 45.7098 18.4871 45.5298 18.6238 45.3931C18.7651 45.2518 18.9474 45.1812 19.1707 45.1812H20.8934C21.2898 45.1812 21.5838 45.3133 21.7752 45.5776C21.8937 45.7326 21.9529 45.9058 21.9529 46.0972C21.9529 46.2248 21.9256 46.3615 21.8709 46.5073C21.5519 47.3003 21.3924 48.1229 21.3924 48.9751L21.3992 50.5747C21.3992 51.5636 21.3696 52.5503 21.3104 53.5347C21.2146 54.6922 20.8478 55.5672 20.2098 56.1597C19.5717 56.7521 18.7013 57.0802 17.5984 57.144C17.3751 57.1577 17.1518 57.1646 16.9285 57.1646ZM27.4107 56.9868H24.4986C24.2115 56.9731 23.9996 56.8592 23.8629 56.645C23.79 56.5311 23.7535 56.408 23.7535 56.2759C23.7535 56.1528 23.7831 56.0229 23.8424 55.8862C24.0839 55.3621 24.248 54.8312 24.3346 54.2935C24.4212 53.7557 24.4667 53.2111 24.4713 52.6597C24.4804 52.6187 24.485 52.4637 24.485 52.1948V48.9136C24.4303 47.9976 24.3277 47.3618 24.1773 47.0063C23.9768 46.619 23.8766 46.3022 23.8766 46.0562C23.8766 45.9149 23.9062 45.7782 23.9654 45.646C24.1204 45.3452 24.4303 45.1948 24.8951 45.1948L27.2809 45.188C28.8714 45.188 29.8626 45.1903 30.2545 45.1948H31.0816C31.4827 45.1948 31.8017 45.2677 32.0387 45.4136C32.2802 45.5549 32.4785 45.8009 32.6334 46.1519C32.7883 46.5028 32.8658 46.8856 32.8658 47.3003C32.8658 47.6877 32.7975 47.9998 32.6607 48.2368C32.483 48.5285 32.2324 48.6743 31.9088 48.6743C31.6673 48.6743 31.4417 48.5968 31.232 48.4419C31.068 48.328 30.9153 48.2004 30.774 48.0591L30.5074 47.8267C29.956 47.3709 29.3932 47.1431 28.8189 47.1431C28.1035 47.1659 27.7252 47.6079 27.6842 48.4692C27.6796 48.6242 27.6773 48.7814 27.6773 48.9409L27.6842 49.4126C27.6887 49.9321 27.8801 50.1919 28.2584 50.1919C28.4498 50.1919 28.7665 50.0985 29.2086 49.9116C29.6005 49.7384 29.9127 49.6519 30.1451 49.6519C30.692 49.6519 31.0429 49.9071 31.1979 50.4175C31.248 50.5907 31.273 50.7616 31.273 50.9302C31.273 51.1672 31.2229 51.4019 31.1227 51.6343C30.9905 51.9168 30.7809 52.1128 30.4937 52.2222C30.3798 52.2586 30.259 52.2769 30.1314 52.2769C29.7896 52.2769 29.4114 52.1903 28.9967 52.0171C28.7688 51.9214 28.623 51.8735 28.5592 51.8735C28.4179 51.828 28.2857 51.8052 28.1627 51.8052C28.067 51.8052 27.9781 51.8371 27.8961 51.9009C27.7958 51.9875 27.7343 52.0946 27.7115 52.2222C27.6933 52.3133 27.6796 52.6232 27.6705 53.1519C27.6979 53.6258 27.846 54.1704 28.1148 54.7856C28.124 54.8175 28.1354 54.8472 28.149 54.8745C28.3495 55.3667 28.4498 55.7199 28.4498 55.9341C28.4498 56.1528 28.3678 56.3784 28.2037 56.6108C28.0442 56.8387 27.7799 56.964 27.4107 56.9868ZM38.1459 56.9868H35.2338C34.9467 56.9731 34.7348 56.8592 34.598 56.645C34.5251 56.5311 34.4887 56.408 34.4887 56.2759C34.4887 56.1528 34.5183 56.0229 34.5775 55.8862C34.8191 55.3621 34.9831 54.8312 35.0697 54.2935C35.1563 53.7557 35.2019 53.2111 35.2064 52.6597C35.2156 52.6187 35.2201 52.4637 35.2201 52.1948V48.9136C35.1654 47.9976 35.0629 47.3618 34.9125 47.0063C34.712 46.619 34.6117 46.3022 34.6117 46.0562C34.6117 45.9149 34.6413 45.7782 34.7006 45.646C34.8555 45.3452 35.1654 45.1948 35.6303 45.1948L38.016 45.188C39.6065 45.188 40.5977 45.1903 40.9896 45.1948H41.8168C42.2178 45.1948 42.5368 45.2677 42.7738 45.4136C43.0154 45.5549 43.2136 45.8009 43.3686 46.1519C43.5235 46.5028 43.601 46.8856 43.601 47.3003C43.601 47.6877 43.5326 47.9998 43.3959 48.2368C43.2182 48.5285 42.9675 48.6743 42.6439 48.6743C42.4024 48.6743 42.1768 48.5968 41.9672 48.4419C41.8031 48.328 41.6505 48.2004 41.5092 48.0591L41.2426 47.8267C40.6911 47.3709 40.1283 47.1431 39.5541 47.1431C38.8386 47.1659 38.4604 47.6079 38.4193 48.4692C38.4148 48.6242 38.4125 48.7814 38.4125 48.9409L38.4193 49.4126C38.4239 49.9321 38.6153 50.1919 38.9936 50.1919C39.185 50.1919 39.5017 50.0985 39.9437 49.9116C40.3357 49.7384 40.6479 49.6519 40.8803 49.6519C41.4271 49.6519 41.7781 49.9071 41.933 50.4175C41.9831 50.5907 42.0082 50.7616 42.0082 50.9302C42.0082 51.1672 41.9581 51.4019 41.8578 51.6343C41.7256 51.9168 41.516 52.1128 41.2289 52.2222C41.115 52.2586 40.9942 52.2769 40.8666 52.2769C40.5248 52.2769 40.1465 52.1903 39.7318 52.0171C39.504 51.9214 39.3581 51.8735 39.2943 51.8735C39.1531 51.828 39.0209 51.8052 38.8979 51.8052C38.8021 51.8052 38.7133 51.8371 38.6312 51.9009C38.531 51.9875 38.4695 52.0946 38.4467 52.2222C38.4284 52.3133 38.4148 52.6232 38.4057 53.1519C38.433 53.6258 38.5811 54.1704 38.85 54.7856C38.8591 54.8175 38.8705 54.8472 38.8842 54.8745C39.0847 55.3667 39.185 55.7199 39.185 55.9341C39.185 56.1528 39.1029 56.3784 38.9389 56.6108C38.7794 56.8387 38.515 56.964 38.1459 56.9868ZM53.4953 57.0005C52.4016 57.0005 51.6428 56.4787 51.2189 55.4351C50.8999 54.7059 50.4715 53.7944 49.9338 52.7007C48.8173 50.4448 48.2385 49.3169 48.1975 49.3169C48.1701 49.3169 48.1564 49.3374 48.1564 49.3784C48.1975 51.967 48.2521 53.5369 48.3205 54.0884C48.357 54.4165 48.4436 54.7355 48.5803 55.0454L48.717 55.312C48.9175 55.6675 49.0178 55.9546 49.0178 56.1733C49.0178 56.5151 48.8788 56.7476 48.6008 56.8706C48.4139 56.9572 48.2225 57.0005 48.0266 57.0005H46.1809C45.912 57.0005 45.6978 56.9367 45.5383 56.8091C45.3286 56.645 45.2238 56.4331 45.2238 56.1733C45.2238 56.0275 45.258 55.8771 45.3264 55.7222C45.6317 55.0796 45.8186 54.4211 45.8869 53.7466C45.9416 53.1906 45.9689 52.6323 45.9689 52.0718L45.9621 51.7095C45.9621 51.5135 45.9644 51.3198 45.9689 51.1284L45.9758 50.0483C45.9758 49.4012 45.9598 48.7541 45.9279 48.1069C45.8732 47.5282 45.7502 46.9585 45.5588 46.3979C45.5132 46.2476 45.4904 46.1086 45.4904 45.981C45.4904 45.4705 45.7844 45.2039 46.3723 45.1812H48.5256C49.3277 45.1857 49.8996 45.5685 50.2414 46.3296C50.5969 47.0679 51.0572 47.9862 51.6223 49.0845C52.3514 50.5063 52.8163 51.4383 53.0168 51.8804C53.0441 51.9487 53.0715 51.9829 53.0988 51.9829C53.1262 51.9829 53.1398 51.9396 53.1398 51.853C53.1398 49.9845 53.0988 48.7313 53.0168 48.0933C52.9576 47.6466 52.8163 47.2388 52.593 46.8696C52.3879 46.5096 52.2854 46.2271 52.2854 46.022C52.2854 45.6984 52.4084 45.4705 52.6545 45.3384C52.7456 45.2336 52.9416 45.1812 53.2424 45.1812H55.2248C55.5074 45.1812 55.7329 45.2427 55.9016 45.3657C56.1158 45.5298 56.2229 45.744 56.2229 46.0083C56.2229 46.1541 56.1864 46.3045 56.1135 46.4595C55.7398 47.1978 55.5279 48.0682 55.4777 49.0708C55.4686 49.3898 55.4618 50.2967 55.4572 51.7915C55.439 52.3247 55.4299 52.8579 55.4299 53.3911C55.4299 53.6372 55.4413 54.2616 55.4641 55.2642C55.4641 55.6652 55.4162 56.0002 55.3205 56.269C55.2294 56.5334 55.038 56.7225 54.7463 56.8364C54.4592 56.9458 54.0422 57.0005 53.4953 57.0005Z" fill="#1D1D1D" fill-opacity="0.9"/>
<path d="M66.0566 57.1782H65.8447C64.5413 57.1782 63.4316 56.8638 62.5156 56.2349C61.1302 55.2596 60.3896 53.9334 60.2939 52.2563C60.2803 52.0422 60.2734 51.828 60.2734 51.6138C60.2734 50.1554 60.5811 48.8452 61.1963 47.6831C62.1715 45.8921 63.8874 44.9966 66.3438 44.9966C66.8405 44.9966 67.3281 45.0649 67.8066 45.2017C68.8822 45.5116 69.6432 46.0881 70.0898 46.9312C70.2585 47.2775 70.3428 47.6125 70.3428 47.936C70.3428 48.5877 70.0443 49.1141 69.4473 49.5151C69.1602 49.6838 68.873 49.7681 68.5859 49.7681C68.431 49.7681 68.2738 49.743 68.1143 49.6929C67.6676 49.5516 67.3441 49.2485 67.1436 48.7837C67.098 48.647 67.057 48.5103 67.0205 48.3735C66.8564 47.7218 66.6217 47.3436 66.3164 47.2388C66.0658 47.1522 65.8789 47.1089 65.7559 47.1089C65.4824 47.1089 65.1953 47.2091 64.8945 47.4097C64.7578 47.4917 64.6165 47.6147 64.4707 47.7788C63.9056 48.4305 63.623 49.3146 63.623 50.4312C63.623 51.1694 63.7712 51.8963 64.0674 52.6118C64.3271 53.2088 64.6621 53.6326 65.0723 53.8833C65.487 54.134 65.904 54.2593 66.3232 54.2593C67.139 54.2593 67.9137 53.8309 68.6475 52.9741C68.8525 52.7463 69.012 52.6232 69.126 52.605C69.2445 52.5822 69.3242 52.5708 69.3652 52.5708C69.5111 52.5708 69.6546 52.6164 69.7959 52.7075C70.083 52.8898 70.2266 53.2293 70.2266 53.7261V53.7671C70.1673 54.7424 69.6204 55.6447 68.5859 56.4741C67.9251 56.9435 67.082 57.1782 66.0566 57.1782ZM77.862 57.0005C75.8158 57.0005 74.6469 56.9982 74.3552 56.9937H72.5779C72.1449 56.9845 71.851 56.8592 71.696 56.6177C71.6231 56.5129 71.5866 56.3921 71.5866 56.2554C71.5866 56.0868 71.6436 55.8953 71.7575 55.6812C71.9262 55.3621 72.031 55.0409 72.072 54.7173C72.1085 54.4211 72.129 53.9744 72.1335 53.3774C72.1836 51.6639 72.2087 50.3377 72.2087 49.3989C72.195 48.2368 72.0902 47.437 71.8943 46.9995C71.7894 46.7944 71.7051 46.5711 71.6413 46.3296C71.614 46.2293 71.6003 46.1313 71.6003 46.0356C71.6003 45.9035 71.6277 45.7713 71.6823 45.6392C71.8054 45.425 71.9877 45.2928 72.2292 45.2427C72.3705 45.2108 72.5118 45.1925 72.653 45.188L73.8288 45.1812L75.0046 45.188C75.1459 45.1925 75.2849 45.2108 75.4216 45.2427C75.6631 45.2928 75.8454 45.425 75.9685 45.6392C76.0277 45.7713 76.0573 45.908 76.0573 46.0493C76.0573 46.2954 75.9571 46.6121 75.7566 46.9995C75.6062 47.3459 75.5036 47.9816 75.4489 48.9067C75.4444 49.2349 75.4421 49.784 75.4421 50.5542C75.4421 51.3289 75.4444 52.0604 75.4489 52.7485V53.8628C75.4489 53.9995 75.4626 54.1431 75.49 54.2935C75.5173 54.4438 75.5948 54.5715 75.7224 54.6763C75.9092 54.7811 76.112 54.8335 76.3308 54.8335C77.0508 54.8335 77.6661 54.5806 78.1765 54.0747L78.4431 53.7739C78.5935 53.5871 78.7553 53.4162 78.9284 53.2612C79.1335 53.0835 79.3614 52.9901 79.612 52.981C79.8126 52.981 79.9857 53.0562 80.1316 53.2065C80.3731 53.4618 80.4939 53.9266 80.4939 54.6011C80.4939 55.0386 80.421 55.4692 80.2751 55.8931C80.0792 56.4992 79.7556 56.8478 79.3044 56.939C79.1404 56.98 78.6596 57.0005 77.862 57.0005ZM86.3041 57.1646C86.0808 57.1646 85.8006 57.1509 85.4633 57.1235C85.1306 57.1007 84.7455 57.021 84.308 56.8843C83.588 56.6564 83.0252 56.285 82.6196 55.77C82.2185 55.255 81.9747 54.5669 81.8881 53.7056C81.8334 53.186 81.8015 52.5275 81.7924 51.73C81.7833 50.3947 81.7719 49.4491 81.7582 48.8931C81.7446 48.3371 81.699 47.9224 81.6215 47.6489C81.5486 47.3983 81.4689 47.1772 81.3823 46.9858C81.2273 46.6395 81.1498 46.3706 81.1498 46.1792C81.1498 45.7645 81.3504 45.4705 81.7514 45.2974L81.7787 45.2837V45.2905C81.9474 45.2267 82.1479 45.1948 82.3803 45.1948H84.6362C85.0281 45.2131 85.3084 45.3498 85.477 45.605C85.5909 45.7736 85.6479 45.9627 85.6479 46.1724C85.6479 46.3683 85.5773 46.6372 85.436 46.979C85.3539 47.1704 85.2787 47.3914 85.2104 47.6421C85.142 47.8927 85.1033 48.2118 85.0942 48.5991C85.0759 50.1213 85.0668 51.0418 85.0668 51.3608C85.0668 51.9533 85.0805 52.466 85.1079 52.8989C85.1489 53.578 85.4337 54.1157 85.9623 54.5122C86.2221 54.6899 86.5161 54.7788 86.8442 54.7788H87.1245C87.2976 54.7788 87.5164 54.6672 87.7807 54.4438C88.0496 54.216 88.2045 53.8582 88.2455 53.3706C88.282 52.5959 88.3002 51.8188 88.3002 51.0396L88.2934 49.1255C88.298 48.9614 88.3002 48.7951 88.3002 48.6265C88.3002 48.3302 88.2888 48.075 88.2661 47.8608C88.225 47.478 88.1293 47.1203 87.9789 46.7876C87.8422 46.5187 87.7716 46.2339 87.767 45.9331C87.7853 45.7098 87.8627 45.5298 87.9995 45.3931C88.1407 45.2518 88.323 45.1812 88.5463 45.1812H90.269C90.6655 45.1812 90.9594 45.3133 91.1508 45.5776C91.2693 45.7326 91.3286 45.9058 91.3286 46.0972C91.3286 46.2248 91.3012 46.3615 91.2465 46.5073C90.9275 47.3003 90.768 48.1229 90.768 48.9751L90.7748 50.5747C90.7748 51.5636 90.7452 52.5503 90.686 53.5347C90.5903 54.6922 90.2234 55.5672 89.5854 56.1597C88.9474 56.7521 88.0769 57.0802 86.9741 57.144C86.7508 57.1577 86.5274 57.1646 86.3041 57.1646ZM95.6964 57.0073L93.6388 56.9937C93.2834 56.9845 93.0441 56.8797 92.9211 56.6792C92.798 56.4787 92.7365 56.2918 92.7365 56.1187C92.7365 55.9683 92.7684 55.8065 92.8322 55.6333C93.0555 55.0545 93.1945 54.4666 93.2492 53.8696C93.3084 53.1587 93.338 52.0239 93.338 50.4653C93.338 50.1053 93.3358 49.7498 93.3312 49.3989C93.3267 48.9797 93.297 48.5399 93.2423 48.0796C93.1922 47.6147 93.1147 47.2593 93.0099 47.0132C92.8094 46.6258 92.7091 46.3068 92.7091 46.0562C92.7091 45.4819 93.0601 45.1948 93.7619 45.1948L96.5168 45.188C97.2687 45.188 98.0184 45.1948 98.7658 45.2085C99.8276 45.2267 100.714 45.5321 101.425 46.1245C101.963 46.6213 102.234 47.0519 102.238 47.4165C102.243 47.7811 102.245 47.9657 102.245 47.9702C102.245 48.8407 101.888 49.6222 101.172 50.3149C101.035 50.4471 100.842 50.6157 100.591 50.8208C100.869 50.9484 101.115 51.0806 101.329 51.2173C102.022 51.6502 102.478 52.3315 102.696 53.2612C102.747 53.5164 102.772 53.7603 102.772 53.9927C102.772 54.4484 102.671 54.8494 102.471 55.1958C102.17 55.7199 101.744 56.1232 101.193 56.4058C100.646 56.6883 100.076 56.8501 99.4836 56.8911C98.2257 56.9686 96.9634 57.0073 95.6964 57.0073ZM97.508 54.9771C97.7951 54.9771 98.0867 54.9406 98.383 54.8677C98.7157 54.7674 98.964 54.5715 99.1281 54.2798C99.2967 53.9881 99.381 53.6782 99.381 53.3501C99.381 52.9582 99.2625 52.6278 99.0255 52.3589C98.784 52.1174 98.5242 51.9738 98.2463 51.9282C97.9683 51.8826 97.7244 51.8599 97.5148 51.8599C97.3872 51.8599 97.2619 51.8667 97.1388 51.8804C96.7287 51.9032 96.5076 52.1675 96.4757 52.6733V52.8579C96.4757 53.3273 96.4826 53.7625 96.4963 54.1636C96.5373 54.6284 96.7537 54.8905 97.1457 54.9497C97.2505 54.9679 97.3713 54.9771 97.508 54.9771ZM97.4875 49.9868C97.8612 49.9731 98.1551 49.8957 98.3693 49.7544C98.6792 49.522 98.866 49.2941 98.9298 49.0708C98.9936 48.8475 99.0255 48.6789 99.0255 48.5649C99.0255 48.3371 98.9617 48.1001 98.8341 47.854C98.7065 47.6034 98.5174 47.4188 98.2668 47.3003C98.0435 47.2 97.811 47.1499 97.5695 47.1499C97.2915 47.159 97.0841 47.1818 96.9474 47.2183C96.797 47.2729 96.6808 47.3687 96.5988 47.5054C96.5168 47.6375 96.4735 47.7834 96.4689 47.9429V48.2505C96.4689 48.811 96.4735 49.2166 96.4826 49.4673C96.5099 49.8136 96.8107 49.9868 97.3849 49.9868H97.4875Z" fill="#1D1D1D" fill-opacity="0.9"/>
<path d="M61.7141 5.70876C62.3939 5.11738 63.5262 5.57172 63.4931 6.42257L63.0927 16.7106C63.0601 17.5469 61.9284 17.9374 61.2853 17.3343L55.7871 12.1776C55.3858 11.8012 55.3985 11.2029 55.8155 10.8401L61.7141 5.70876Z" fill="#1D1D1D"/>
<path d="M68.2787 7.59194C68.9132 8.20457 68.4931 9.28355 67.6086 9.31298L65.4246 9.38564C64.8616 9.40438 64.3971 8.9546 64.3978 8.39128L64.4006 6.2127C64.4017 5.32927 65.464 4.87436 66.0975 5.48602L68.2787 7.59194Z" fill="#1D1D1D"/>
<path d="M36.2801 10.3914C34.9888 9.19228 35.9533 7.16859 37.8155 7.16991L47.8892 7.17707C48.4677 7.17748 49.0181 7.39319 49.4105 7.77331L60.7319 18.7409C61.5338 19.5177 61.4605 20.7446 60.5699 21.454L55.4156 25.5597C54.5717 26.232 53.2978 26.1933 52.5208 25.4719L36.2801 10.3914Z" fill="#1D1D1D"/>
<path d="M51.9625 26.7847C52.4274 27.209 52.3895 27.952 51.8839 28.3267L47.8045 31.3501C47.1149 31.8612 46.1441 31.323 46.2123 30.4673L46.7131 24.178C46.7792 23.3488 47.7697 22.958 48.3841 23.5187L51.9625 26.7847Z" fill="#1D1D1D"/>
</svg>
