<svg width="114" height="26" viewBox="0 0 114 26" fill="none" xmlns="http://www.w3.org/2000/svg">
<path d="M25.6641 18C25.3867 18 25.1074 17.9941 24.8262 17.9824H24.7734C24.3789 17.9824 24.123 17.8965 24.0059 17.7246C23.9551 17.6504 23.9297 17.5469 23.9297 17.4141C23.9297 17.2227 23.9844 16.9707 24.0938 16.6582C24.2734 16.1113 24.377 15.5508 24.4043 14.9766C24.416 14.4258 24.4258 13.5586 24.4336 12.375C24.4336 11.8164 24.4297 11.375 24.4219 11.0508C24.3828 10.2656 24.2949 9.7207 24.1582 9.41602C24.0293 9.14258 23.9648 8.90039 23.9648 8.68945C23.9648 8.5918 23.9766 8.49609 24 8.40234C24.0781 8.16016 24.2207 8.01367 24.4277 7.96289C24.6348 7.9082 24.8457 7.88086 25.0605 7.88086H25.248C25.7324 7.86523 26.5684 7.85742 27.7559 7.85742C28.2871 7.85742 28.6484 7.86133 28.8398 7.86914C29.3242 7.9043 29.7891 8.00977 30.2344 8.18555C30.6797 8.36133 31.0645 8.61133 31.3887 8.93555C31.7168 9.25586 31.9453 9.65234 32.0742 10.125C32.1914 10.5586 32.25 10.9844 32.25 11.4023C32.25 11.6445 32.2129 11.9844 32.1387 12.4219C32.0645 12.8555 31.7637 13.3359 31.2363 13.8633C30.6074 14.4922 29.7871 14.8066 28.7754 14.8066C28.5137 14.8066 28.2422 14.7832 27.9609 14.7363C27.7891 14.709 27.6543 14.6953 27.5566 14.6953H27.4512C27.3965 14.6953 27.3457 14.7266 27.2988 14.7891C27.2363 14.8945 27.2051 15.0039 27.2051 15.1172C27.2051 15.168 27.2109 15.2207 27.2227 15.2754C27.3203 15.7051 27.459 16.0801 27.6387 16.4004C27.8184 16.7207 27.9082 16.9941 27.9082 17.2207C27.9082 17.334 27.875 17.4727 27.8086 17.6367C27.7422 17.7969 27.5527 17.8965 27.2402 17.9355C26.7168 17.9785 26.1914 18 25.6641 18ZM27.8555 13.2188C27.9922 13.2188 28.1172 13.2012 28.2305 13.166C28.75 12.9707 29.1152 12.6152 29.3262 12.0996C29.3965 11.9121 29.4316 11.7168 29.4316 11.5137C29.4316 11.1309 29.3281 10.7656 29.1211 10.418C28.9141 10.0703 28.6152 9.82227 28.2246 9.67383C28.0723 9.61914 27.9297 9.5918 27.7969 9.5918C27.3086 9.5918 27.0527 9.84375 27.0293 10.3477L27.041 11.8652C27.041 12.1895 27.0391 12.4316 27.0352 12.5918C27.0352 12.791 27.1035 12.9395 27.2402 13.0371C27.4004 13.1582 27.6055 13.2188 27.8555 13.2188ZM37.9711 18.1406C37.7797 18.1406 37.5395 18.1289 37.2504 18.1055C36.9652 18.0859 36.6352 18.0176 36.2602 17.9004C35.643 17.7051 35.1605 17.3867 34.8129 16.9453C34.4691 16.5039 34.2602 15.9141 34.1859 15.1758C34.1391 14.7305 34.1117 14.166 34.1039 13.4824C34.0961 12.3379 34.0863 11.5273 34.0746 11.0508C34.0629 10.5742 34.0238 10.2188 33.9574 9.98438C33.8949 9.76953 33.8266 9.58008 33.7523 9.41602C33.6195 9.11914 33.5531 8.88867 33.5531 8.72461C33.5531 8.36914 33.725 8.11719 34.0688 7.96875L34.0922 7.95703V7.96289C34.2367 7.9082 34.4086 7.88086 34.6078 7.88086H36.5414C36.8773 7.89648 37.1176 8.01367 37.2621 8.23242C37.3598 8.37695 37.4086 8.53906 37.4086 8.71875C37.4086 8.88672 37.348 9.11719 37.227 9.41016C37.1566 9.57422 37.0922 9.76367 37.0336 9.97852C36.975 10.1934 36.9418 10.4668 36.934 10.7988C36.9184 12.1035 36.9105 12.8926 36.9105 13.166C36.9105 13.6738 36.9223 14.1133 36.9457 14.4844C36.9809 15.0664 37.225 15.5273 37.6781 15.8672C37.9008 16.0195 38.1527 16.0957 38.434 16.0957H38.6742C38.8227 16.0957 39.0102 16 39.2367 15.8086C39.4672 15.6133 39.6 15.3066 39.6352 14.8887C39.6664 14.2246 39.682 13.5586 39.682 12.8906L39.6762 11.25C39.6801 11.1094 39.682 10.9668 39.682 10.8223C39.682 10.5684 39.6723 10.3496 39.6527 10.166C39.6176 9.83789 39.5355 9.53125 39.4066 9.24609C39.2895 9.01562 39.2289 8.77148 39.225 8.51367C39.2406 8.32227 39.307 8.16797 39.4242 8.05078C39.5453 7.92969 39.7016 7.86914 39.893 7.86914H41.3695C41.7094 7.86914 41.9613 7.98242 42.1254 8.20898C42.227 8.3418 42.2777 8.49023 42.2777 8.6543C42.2777 8.76367 42.2543 8.88086 42.2074 9.00586C41.934 9.68555 41.7973 10.3906 41.7973 11.1211L41.8031 12.4922C41.8031 13.3398 41.7777 14.1855 41.727 15.0293C41.6449 16.0215 41.3305 16.7715 40.7836 17.2793C40.2367 17.7871 39.4906 18.0684 38.5453 18.123C38.3539 18.1348 38.1625 18.1406 37.9711 18.1406ZM46.9559 17.9883H44.4598C44.2137 17.9766 44.032 17.8789 43.9148 17.6953C43.8523 17.5977 43.8211 17.4922 43.8211 17.3789C43.8211 17.2734 43.8465 17.1621 43.8973 17.0449C44.1043 16.5957 44.2449 16.1406 44.3191 15.6797C44.3934 15.2188 44.4324 14.752 44.4363 14.2793C44.4441 14.2441 44.448 14.1113 44.448 13.8809V11.0684C44.4012 10.2832 44.3133 9.73828 44.1844 9.43359C44.0125 9.10156 43.9266 8.83008 43.9266 8.61914C43.9266 8.49805 43.952 8.38086 44.0027 8.26758C44.1355 8.00977 44.4012 7.88086 44.7996 7.88086L46.8445 7.875C48.2078 7.875 49.0574 7.87695 49.3934 7.88086H50.1023C50.4461 7.88086 50.7195 7.94336 50.9227 8.06836C51.1297 8.18945 51.2996 8.40039 51.4324 8.70117C51.5652 9.00195 51.6316 9.33008 51.6316 9.68555C51.6316 10.0176 51.573 10.2852 51.4559 10.4883C51.3035 10.7383 51.0887 10.8633 50.8113 10.8633C50.6043 10.8633 50.4109 10.7969 50.2313 10.6641C50.0906 10.5664 49.9598 10.457 49.8387 10.3359L49.6102 10.1367C49.1375 9.74609 48.6551 9.55078 48.1629 9.55078C47.5496 9.57031 47.2254 9.94922 47.1902 10.6875C47.1863 10.8203 47.1844 10.9551 47.1844 11.0918L47.1902 11.4961C47.1941 11.9414 47.3582 12.1641 47.6824 12.1641C47.8465 12.1641 48.118 12.084 48.4969 11.9238C48.8328 11.7754 49.1004 11.7012 49.2996 11.7012C49.7684 11.7012 50.0691 11.9199 50.202 12.3574C50.2449 12.5059 50.2664 12.6523 50.2664 12.7969C50.2664 13 50.2234 13.2012 50.1375 13.4004C50.0242 13.6426 49.8445 13.8105 49.5984 13.9043C49.5008 13.9355 49.3973 13.9512 49.2879 13.9512C48.9949 13.9512 48.6707 13.877 48.3152 13.7285C48.1199 13.6465 47.9949 13.6055 47.9402 13.6055C47.8191 13.5664 47.7059 13.5469 47.6004 13.5469C47.5184 13.5469 47.4422 13.5742 47.3719 13.6289C47.2859 13.7031 47.2332 13.7949 47.2137 13.9043C47.198 13.9824 47.1863 14.248 47.1785 14.7012C47.202 15.1074 47.3289 15.5742 47.5594 16.1016C47.5672 16.1289 47.577 16.1543 47.5887 16.1777C47.7605 16.5996 47.8465 16.9023 47.8465 17.0859C47.8465 17.2734 47.7762 17.4668 47.6355 17.666C47.4988 17.8613 47.2723 17.9688 46.9559 17.9883ZM56.1574 17.9883H53.6613C53.4152 17.9766 53.2336 17.8789 53.1164 17.6953C53.0539 17.5977 53.0227 17.4922 53.0227 17.3789C53.0227 17.2734 53.048 17.1621 53.0988 17.0449C53.3059 16.5957 53.4465 16.1406 53.5207 15.6797C53.5949 15.2188 53.634 14.752 53.6379 14.2793C53.6457 14.2441 53.6496 14.1113 53.6496 13.8809V11.0684C53.6027 10.2832 53.5148 9.73828 53.3859 9.43359C53.2141 9.10156 53.1281 8.83008 53.1281 8.61914C53.1281 8.49805 53.1535 8.38086 53.2043 8.26758C53.3371 8.00977 53.6027 7.88086 54.0012 7.88086L56.0461 7.875C57.4094 7.875 58.259 7.87695 58.5949 7.88086H59.3039C59.6477 7.88086 59.9211 7.94336 60.1242 8.06836C60.3312 8.18945 60.5012 8.40039 60.634 8.70117C60.7668 9.00195 60.8332 9.33008 60.8332 9.68555C60.8332 10.0176 60.7746 10.2852 60.6574 10.4883C60.5051 10.7383 60.2902 10.8633 60.0129 10.8633C59.8059 10.8633 59.6125 10.7969 59.4328 10.6641C59.2922 10.5664 59.1613 10.457 59.0402 10.3359L58.8117 10.1367C58.3391 9.74609 57.8566 9.55078 57.3645 9.55078C56.7512 9.57031 56.427 9.94922 56.3918 10.6875C56.3879 10.8203 56.3859 10.9551 56.3859 11.0918L56.3918 11.4961C56.3957 11.9414 56.5598 12.1641 56.884 12.1641C57.048 12.1641 57.3195 12.084 57.6984 11.9238C58.0344 11.7754 58.302 11.7012 58.5012 11.7012C58.9699 11.7012 59.2707 11.9199 59.4035 12.3574C59.4465 12.5059 59.468 12.6523 59.468 12.7969C59.468 13 59.425 13.2012 59.3391 13.4004C59.2258 13.6426 59.0461 13.8105 58.8 13.9043C58.7023 13.9355 58.5988 13.9512 58.4895 13.9512C58.1965 13.9512 57.8723 13.877 57.5168 13.7285C57.3215 13.6465 57.1965 13.6055 57.1418 13.6055C57.0207 13.5664 56.9074 13.5469 56.802 13.5469C56.7199 13.5469 56.6437 13.5742 56.5734 13.6289C56.4875 13.7031 56.4348 13.7949 56.4152 13.9043C56.3996 13.9824 56.3879 14.248 56.3801 14.7012C56.4035 15.1074 56.5305 15.5742 56.7609 16.1016C56.7687 16.1289 56.7785 16.1543 56.7902 16.1777C56.9621 16.5996 57.048 16.9023 57.048 17.0859C57.048 17.2734 56.9777 17.4668 56.8371 17.666C56.7004 17.8613 56.4738 17.9688 56.1574 17.9883ZM69.3141 18C68.3766 18 67.7262 17.5527 67.3629 16.6582C67.0895 16.0332 66.7223 15.252 66.2613 14.3145C65.3043 12.3809 64.8082 11.4141 64.773 11.4141C64.7496 11.4141 64.7379 11.4316 64.7379 11.4668C64.773 13.6855 64.8199 15.0312 64.8785 15.5039C64.9098 15.7852 64.984 16.0586 65.1012 16.3242L65.2184 16.5527C65.3902 16.8574 65.4762 17.1035 65.4762 17.291C65.4762 17.584 65.357 17.7832 65.1188 17.8887C64.9586 17.9629 64.7945 18 64.6266 18H63.0445C62.8141 18 62.6305 17.9453 62.4938 17.8359C62.3141 17.6953 62.2242 17.5137 62.2242 17.291C62.2242 17.166 62.2535 17.0371 62.3121 16.9043C62.5738 16.3535 62.734 15.7891 62.7926 15.2109C62.8395 14.7344 62.8629 14.2559 62.8629 13.7754L62.857 13.4648C62.857 13.2969 62.859 13.1309 62.8629 12.9668L62.8688 12.041C62.8688 11.4863 62.8551 10.9316 62.8277 10.377C62.7809 9.88086 62.6754 9.39258 62.5113 8.91211C62.4723 8.7832 62.4527 8.66406 62.4527 8.55469C62.4527 8.11719 62.7047 7.88867 63.2086 7.86914H65.0543C65.7418 7.87305 66.232 8.20117 66.525 8.85352C66.8297 9.48633 67.2242 10.2734 67.7086 11.2148C68.3336 12.4336 68.732 13.2324 68.9039 13.6113C68.9273 13.6699 68.9508 13.6992 68.9742 13.6992C68.9977 13.6992 69.0094 13.6621 69.0094 13.5879C69.0094 11.9863 68.9742 10.9121 68.9039 10.3652C68.8531 9.98242 68.732 9.63281 68.5406 9.31641C68.3648 9.00781 68.277 8.76562 68.277 8.58984C68.277 8.3125 68.3824 8.11719 68.5934 8.00391C68.6715 7.91406 68.8395 7.86914 69.0973 7.86914H70.7965C71.0387 7.86914 71.232 7.92188 71.3766 8.02734C71.5602 8.16797 71.652 8.35156 71.652 8.57812C71.652 8.70312 71.6207 8.83203 71.5582 8.96484C71.2379 9.59766 71.0563 10.3438 71.0133 11.2031C71.0055 11.4766 70.9996 12.2539 70.9957 13.5352C70.9801 13.9922 70.9723 14.4492 70.9723 14.9062C70.9723 15.1172 70.982 15.6523 71.0016 16.5117C71.0016 16.8555 70.9605 17.1426 70.8785 17.373C70.8004 17.5996 70.6363 17.7617 70.3863 17.8594C70.1402 17.9531 69.7828 18 69.3141 18Z" fill="#F6F6F6"/>
<path d="M81.6523 18.1523H81.4707C80.3535 18.1523 79.4023 17.8828 78.6172 17.3438C77.4297 16.5078 76.7949 15.3711 76.7129 13.9336C76.7012 13.75 76.6953 13.5664 76.6953 13.3828C76.6953 12.1328 76.959 11.0098 77.4863 10.0137C78.3223 8.47852 79.793 7.71094 81.8984 7.71094C82.3242 7.71094 82.7422 7.76953 83.1523 7.88672C84.0742 8.15234 84.7266 8.64648 85.1094 9.36914C85.2539 9.66602 85.3262 9.95312 85.3262 10.2305C85.3262 10.7891 85.0703 11.2402 84.5586 11.584C84.3125 11.7285 84.0664 11.8008 83.8203 11.8008C83.6875 11.8008 83.5527 11.7793 83.416 11.7363C83.0332 11.6152 82.7559 11.3555 82.584 10.957C82.5449 10.8398 82.5098 10.7227 82.4785 10.6055C82.3379 10.0469 82.1367 9.72266 81.875 9.63281C81.6602 9.55859 81.5 9.52148 81.3945 9.52148C81.1602 9.52148 80.9141 9.60742 80.6562 9.7793C80.5391 9.84961 80.418 9.95508 80.293 10.0957C79.8086 10.6543 79.5664 11.4121 79.5664 12.3691C79.5664 13.002 79.6934 13.625 79.9473 14.2383C80.1699 14.75 80.457 15.1133 80.8086 15.3281C81.1641 15.543 81.5215 15.6504 81.8809 15.6504C82.5801 15.6504 83.2441 15.2832 83.873 14.5488C84.0488 14.3535 84.1855 14.248 84.2832 14.2324C84.3848 14.2129 84.4531 14.2031 84.4883 14.2031C84.6133 14.2031 84.7363 14.2422 84.8574 14.3203C85.1035 14.4766 85.2266 14.7676 85.2266 15.1934V15.2285C85.1758 16.0645 84.707 16.8379 83.8203 17.5488C83.2539 17.9512 82.5312 18.1523 81.6523 18.1523ZM91.7712 18C90.0173 18 89.0154 17.998 88.7654 17.9941H87.242C86.8709 17.9863 86.6189 17.8789 86.4861 17.6719C86.4236 17.582 86.3923 17.4785 86.3923 17.3613C86.3923 17.2168 86.4412 17.0527 86.5388 16.8691C86.6834 16.5957 86.7732 16.3203 86.8084 16.043C86.8396 15.7891 86.8572 15.4062 86.8611 14.8945C86.9041 13.4258 86.9255 12.2891 86.9255 11.4844C86.9138 10.4883 86.824 9.80273 86.656 9.42773C86.5662 9.25195 86.4939 9.06055 86.4392 8.85352C86.4158 8.76758 86.4041 8.68359 86.4041 8.60156C86.4041 8.48828 86.4275 8.375 86.4744 8.26172C86.5798 8.07812 86.7361 7.96484 86.9431 7.92188C87.0642 7.89453 87.1853 7.87891 87.3064 7.875L88.3142 7.86914L89.322 7.875C89.4431 7.87891 89.5623 7.89453 89.6795 7.92188C89.8865 7.96484 90.0427 8.07812 90.1482 8.26172C90.199 8.375 90.2244 8.49219 90.2244 8.61328C90.2244 8.82422 90.1384 9.0957 89.9666 9.42773C89.8377 9.72461 89.7498 10.2695 89.7029 11.0625C89.699 11.3438 89.697 11.8145 89.697 12.4746C89.697 13.1387 89.699 13.7656 89.7029 14.3555V15.3105C89.7029 15.4277 89.7146 15.5508 89.738 15.6797C89.7615 15.8086 89.8279 15.918 89.9373 16.0078C90.0974 16.0977 90.2712 16.1426 90.4587 16.1426C91.0759 16.1426 91.6033 15.9258 92.0408 15.4922L92.2693 15.2344C92.3982 15.0742 92.5369 14.9277 92.6853 14.7949C92.8611 14.6426 93.0564 14.5625 93.2712 14.5547C93.4431 14.5547 93.5916 14.6191 93.7166 14.748C93.9236 14.9668 94.0271 15.3652 94.0271 15.9434C94.0271 16.3184 93.9646 16.6875 93.8396 17.0508C93.6716 17.5703 93.3943 17.8691 93.0076 17.9473C92.867 17.9824 92.4548 18 91.7712 18ZM99.0073 18.1406C98.8159 18.1406 98.5757 18.1289 98.2866 18.1055C98.0015 18.0859 97.6714 18.0176 97.2964 17.9004C96.6792 17.7051 96.1968 17.3867 95.8491 16.9453C95.5054 16.5039 95.2964 15.9141 95.2222 15.1758C95.1753 14.7305 95.148 14.166 95.1402 13.4824C95.1323 12.3379 95.1226 11.5273 95.1109 11.0508C95.0991 10.5742 95.0601 10.2188 94.9937 9.98438C94.9312 9.76953 94.8628 9.58008 94.7886 9.41602C94.6558 9.11914 94.5894 8.88867 94.5894 8.72461C94.5894 8.36914 94.7612 8.11719 95.105 7.96875L95.1284 7.95703V7.96289C95.273 7.9082 95.4448 7.88086 95.6441 7.88086H97.5777C97.9136 7.89648 98.1538 8.01367 98.2984 8.23242C98.396 8.37695 98.4448 8.53906 98.4448 8.71875C98.4448 8.88672 98.3843 9.11719 98.2632 9.41016C98.1929 9.57422 98.1284 9.76367 98.0698 9.97852C98.0112 10.1934 97.978 10.4668 97.9702 10.7988C97.9546 12.1035 97.9468 12.8926 97.9468 13.166C97.9468 13.6738 97.9585 14.1133 97.982 14.4844C98.0171 15.0664 98.2612 15.5273 98.7144 15.8672C98.937 16.0195 99.189 16.0957 99.4702 16.0957H99.7105C99.8589 16.0957 100.046 16 100.273 15.8086C100.503 15.6133 100.636 15.3066 100.671 14.8887C100.703 14.2246 100.718 13.5586 100.718 12.8906L100.712 11.25C100.716 11.1094 100.718 10.9668 100.718 10.8223C100.718 10.5684 100.709 10.3496 100.689 10.166C100.654 9.83789 100.572 9.53125 100.443 9.24609C100.326 9.01562 100.265 8.77148 100.261 8.51367C100.277 8.32227 100.343 8.16797 100.46 8.05078C100.582 7.92969 100.738 7.86914 100.929 7.86914H102.406C102.746 7.86914 102.998 7.98242 103.162 8.20898C103.263 8.3418 103.314 8.49023 103.314 8.6543C103.314 8.76367 103.291 8.88086 103.244 9.00586C102.97 9.68555 102.834 10.3906 102.834 11.1211L102.839 12.4922C102.839 13.3398 102.814 14.1855 102.763 15.0293C102.681 16.0215 102.367 16.7715 101.82 17.2793C101.273 17.7871 100.527 18.0684 99.5816 18.123C99.3902 18.1348 99.1987 18.1406 99.0073 18.1406ZM107.058 18.0059L105.294 17.9941C104.99 17.9863 104.784 17.8965 104.679 17.7246C104.574 17.5527 104.521 17.3926 104.521 17.2441C104.521 17.1152 104.548 16.9766 104.603 16.8281C104.794 16.332 104.913 15.8281 104.96 15.3164C105.011 14.707 105.036 13.7344 105.036 12.3984C105.036 12.0898 105.034 11.7852 105.031 11.4844C105.027 11.125 105.001 10.748 104.954 10.3535C104.911 9.95508 104.845 9.65039 104.755 9.43945C104.583 9.10742 104.497 8.83398 104.497 8.61914C104.497 8.12695 104.798 7.88086 105.4 7.88086L107.761 7.875C108.406 7.875 109.048 7.88086 109.689 7.89258C110.599 7.9082 111.359 8.16992 111.968 8.67773C112.429 9.10352 112.661 9.47266 112.665 9.78516C112.669 10.0977 112.671 10.2559 112.671 10.2598C112.671 11.0059 112.365 11.6758 111.751 12.2695C111.634 12.3828 111.468 12.5273 111.253 12.7031C111.491 12.8125 111.702 12.9258 111.886 13.043C112.48 13.4141 112.87 13.998 113.058 14.7949C113.101 15.0137 113.122 15.2227 113.122 15.4219C113.122 15.8125 113.036 16.1562 112.865 16.4531C112.607 16.9023 112.241 17.248 111.769 17.4902C111.3 17.7324 110.812 17.8711 110.304 17.9062C109.226 17.9727 108.144 18.0059 107.058 18.0059ZM108.611 16.2656C108.857 16.2656 109.107 16.2344 109.361 16.1719C109.646 16.0859 109.859 15.918 109.999 15.668C110.144 15.418 110.216 15.1523 110.216 14.8711C110.216 14.5352 110.115 14.252 109.911 14.0215C109.704 13.8145 109.482 13.6914 109.243 13.6523C109.005 13.6133 108.796 13.5938 108.616 13.5938C108.507 13.5938 108.4 13.5996 108.294 13.6113C107.943 13.6309 107.753 13.8574 107.726 14.291V14.4492C107.726 14.8516 107.732 15.2246 107.743 15.5684C107.779 15.9668 107.964 16.1914 108.3 16.2422C108.39 16.2578 108.493 16.2656 108.611 16.2656ZM108.593 11.9883C108.913 11.9766 109.165 11.9102 109.349 11.7891C109.615 11.5898 109.775 11.3945 109.829 11.2031C109.884 11.0117 109.911 10.8672 109.911 10.7695C109.911 10.5742 109.857 10.3711 109.747 10.1602C109.638 9.94531 109.476 9.78711 109.261 9.68555C109.07 9.59961 108.87 9.55664 108.663 9.55664C108.425 9.56445 108.247 9.58398 108.13 9.61523C108.001 9.66211 107.902 9.74414 107.831 9.86133C107.761 9.97461 107.724 10.0996 107.72 10.2363V10.5C107.72 10.9805 107.724 11.3281 107.732 11.543C107.755 11.8398 108.013 11.9883 108.505 11.9883H108.593Z" fill="#F6F6F6"/>
<path d="M15.6226 5.92444C15.9625 5.62875 16.5287 5.85592 16.5121 6.28135L16.3022 11.6747C16.286 12.0928 15.7201 12.2881 15.3985 11.9865L12.5162 9.28324C12.3155 9.09505 12.3219 8.79587 12.5303 8.61451L15.6226 5.92444Z" fill="#F6F6F6"/>
<path d="M19.0168 6.95205C19.334 7.25837 19.124 7.79786 18.6817 7.81257L17.4961 7.85202C17.2146 7.86139 16.9823 7.6365 16.9827 7.35484L16.9842 6.17213C16.9848 5.73041 17.5159 5.50296 17.8327 5.80879L19.0168 6.95205Z" fill="#F6F6F6"/>
<path d="M2.39179 8.31679C1.74613 7.71725 2.2284 6.7054 3.15949 6.70607L8.46451 6.70983C8.75379 6.71004 9.02899 6.8179 9.22518 7.00795L15.1106 12.7095C15.5116 13.0979 15.4749 13.7113 15.0297 14.066L12.3135 16.2296C11.8915 16.5658 11.2546 16.5464 10.8661 16.1857L2.39179 8.31679Z" fill="#F6F6F6"/>
<path d="M10.5695 16.8558C10.8019 17.0679 10.783 17.4395 10.5301 17.6268L8.37606 19.2233C8.03123 19.4789 7.54584 19.2098 7.57992 18.7819L7.8444 15.4608C7.87742 15.0463 8.37269 14.8509 8.67988 15.1312L10.5695 16.8558Z" fill="#F6F6F6"/>
</svg>
