<svg width="144" height="86" viewBox="0 0 144 86" fill="none" xmlns="http://www.w3.org/2000/svg">
<path d="M83.3157 8.35638C84.6753 7.1736 86.94 8.08228 86.8738 9.784L86.5069 19.2105C86.4418 20.8831 84.1783 21.6641 82.8921 20.4579L77.8544 15.733C77.0518 14.9802 77.0771 13.7835 77.911 13.0581L83.3157 8.35638Z" fill="url(#paint0_linear_274_309)"/>
<path d="M93.35 9.90031C93.9845 10.5129 93.5644 11.5919 92.6799 11.6213L89.1003 11.7404C88.5372 11.7592 88.0727 11.3094 88.0734 10.7461L88.078 7.17524C88.0791 6.2918 89.1414 5.83689 89.7749 6.44856L93.35 9.90031Z" fill="url(#paint1_linear_274_309)"/>
<path d="M53.7945 13.7955C51.8576 11.9968 53.3044 8.96129 56.0976 8.96327L67.2107 8.97117C68.0785 8.97178 68.9041 9.29536 69.4927 9.86553L83.1246 23.0715C84.3273 24.2368 84.2175 26.077 82.8816 27.1411L77.222 31.6494C75.9562 32.6578 74.0453 32.5998 72.8799 31.5176L53.7945 13.7955Z" fill="#1A1A1A"/>
<path d="M72.7544 33.6858C73.2192 34.1101 73.1813 34.8531 72.6757 35.2278L66.891 39.5152C66.2013 40.0263 65.2306 39.4881 65.2987 38.6324L66.009 29.7137C66.075 28.8845 67.0655 28.4937 67.6799 29.0544L72.7544 33.6858Z" fill="url(#paint2_linear_274_309)"/>
<path d="M3.62 80C3.42 80 3.19333 80 2.94 80C2.7 80.0133 2.26 80.02 1.62 80.02C1.52667 80.02 1.46 79.9267 1.42 79.74C1.38 79.5533 1.40667 79.4333 1.5 79.38C1.86 79.1933 2.14 79.04 2.34 78.92C2.55333 78.8 2.70667 78.68 2.8 78.56C2.90667 78.44 2.97333 78.28 3 78.08C3.04 77.88 3.06 77.6 3.06 77.24V67.54C3.06 67.18 3.04 66.9067 3 66.72C2.97333 66.52 2.90667 66.36 2.8 66.24C2.70667 66.12 2.55333 66 2.34 65.88C2.14 65.76 1.86 65.6067 1.5 65.42C1.40667 65.3667 1.38 65.2467 1.42 65.06C1.46 64.8733 1.52667 64.78 1.62 64.78C2.26 64.78 2.7 64.7867 2.94 64.8C3.19333 64.8 3.42 64.8 3.62 64.8H7.2C8.54667 64.8 9.62 65.0133 10.42 65.44C11.22 65.8667 11.7933 66.42 12.14 67.1C12.5 67.7667 12.68 68.4733 12.68 69.22C12.68 70.18 12.4733 70.9867 12.06 71.64C11.6467 72.28 11.08 72.7867 10.36 73.16C9.64 73.52 8.82 73.7667 7.9 73.9C6.99333 74.0333 6.04667 74.0667 5.06 74V77.24C5.06 77.6 5.07333 77.88 5.1 78.08C5.14 78.28 5.20667 78.44 5.3 78.56C5.40667 78.68 5.56 78.8 5.76 78.92C5.97333 79.04 6.26 79.1933 6.62 79.38C6.71333 79.4333 6.74 79.5533 6.7 79.74C6.67333 79.9267 6.60667 80.02 6.5 80.02C5.86 80.02 5.41333 80.0133 5.16 80C4.92 80 4.7 80 4.5 80H3.62ZM5.06 72.6C5.71333 72.7733 6.36 72.8533 7 72.84C7.65333 72.8267 8.24667 72.7067 8.78 72.48C9.32667 72.24 9.76 71.8867 10.08 71.42C10.4133 70.94 10.58 70.3333 10.58 69.6C10.58 68.84 10.4267 68.2067 10.12 67.7C9.81333 67.18 9.39333 66.7867 8.86 66.52C8.34 66.24 7.74667 66.0733 7.08 66.02C6.42667 65.9533 5.75333 65.98 5.06 66.1V72.6ZM22.6566 80.2C20.7099 80.2 19.2032 79.6933 18.1366 78.68C17.0699 77.6667 16.5366 76.0733 16.5366 73.9V67.54C16.5366 67.18 16.5166 66.9067 16.4766 66.72C16.4499 66.52 16.3832 66.36 16.2766 66.24C16.1832 66.12 16.0299 66 15.8166 65.88C15.6166 65.76 15.3366 65.6067 14.9766 65.42C14.8832 65.3667 14.8566 65.2467 14.8966 65.06C14.9366 64.8733 15.0032 64.78 15.0966 64.78C15.7366 64.78 16.1766 64.7867 16.4166 64.8C16.6699 64.8 16.8966 64.8 17.0966 64.8H17.9766C18.1766 64.8 18.3966 64.8 18.6366 64.8C18.8899 64.7867 19.3366 64.78 19.9766 64.78C20.0832 64.78 20.1499 64.8733 20.1766 65.06C20.2166 65.2467 20.1899 65.3667 20.0966 65.42C19.7366 65.6067 19.4499 65.76 19.2366 65.88C19.0366 66 18.8832 66.12 18.7766 66.24C18.6832 66.36 18.6166 66.52 18.5766 66.72C18.5499 66.9067 18.5366 67.18 18.5366 67.54V74.08C18.5366 75 18.6632 75.7533 18.9166 76.34C19.1699 76.9267 19.5099 77.3867 19.9366 77.72C20.3766 78.04 20.8699 78.2667 21.4166 78.4C21.9766 78.5333 22.5499 78.6 23.1366 78.6C24.0032 78.6 24.7632 78.4267 25.4166 78.08C26.0832 77.7333 26.6032 77.2267 26.9766 76.56C27.3499 75.88 27.5366 75.06 27.5366 74.1V67.54C27.5366 67.18 27.5166 66.9067 27.4766 66.72C27.4499 66.52 27.3832 66.36 27.2766 66.24C27.1832 66.12 27.0299 66 26.8166 65.88C26.6166 65.76 26.3366 65.6067 25.9766 65.42C25.8832 65.3667 25.8566 65.2467 25.8966 65.06C25.9366 64.8733 26.0032 64.78 26.0966 64.78C26.7366 64.78 27.1766 64.7867 27.4166 64.8C27.6699 64.8 27.8966 64.8 28.0966 64.8H28.1766C28.3766 64.8 28.5966 64.8 28.8366 64.8C29.0899 64.7867 29.5366 64.78 30.1766 64.78C30.2832 64.78 30.3499 64.8733 30.3766 65.06C30.4166 65.2467 30.3899 65.3667 30.2966 65.42C29.9366 65.6067 29.6499 65.76 29.4366 65.88C29.2366 66 29.0832 66.12 28.9766 66.24C28.8832 66.36 28.8166 66.52 28.7766 66.72C28.7499 66.9067 28.7366 67.18 28.7366 67.54V74.1C28.7366 74.9133 28.6166 75.6867 28.3766 76.42C28.1499 77.1533 27.7899 77.8067 27.2966 78.38C26.8166 78.94 26.1899 79.3867 25.4166 79.72C24.6566 80.04 23.7366 80.2 22.6566 80.2ZM35.0263 80C34.8263 80 34.5996 80 34.3462 80C34.1063 80.0133 33.6663 80.02 33.0263 80.02C32.9329 80.02 32.8663 79.9267 32.8263 79.74C32.7863 79.5533 32.8129 79.4333 32.9063 79.38C33.2663 79.1933 33.5463 79.04 33.7463 78.92C33.9596 78.8 34.1129 78.68 34.2063 78.56C34.3129 78.44 34.3796 78.28 34.4063 78.08C34.4463 77.88 34.4663 77.6 34.4663 77.24V67.54C34.4663 67.18 34.4463 66.9067 34.4063 66.72C34.3796 66.52 34.3129 66.36 34.2063 66.24C34.1129 66.12 33.9596 66 33.7463 65.88C33.5463 65.76 33.2663 65.6067 32.9063 65.42C32.8129 65.3667 32.7863 65.2467 32.8263 65.06C32.8663 64.8733 32.9329 64.78 33.0263 64.78C33.6663 64.78 34.1063 64.7867 34.3462 64.8C34.5996 64.8 34.8263 64.8 35.0263 64.8H40.7663L43.5663 64.62L43.7863 64.8L44.2863 68.2C44.3263 68.2933 44.2996 68.38 44.2063 68.46C44.1129 68.54 43.9996 68.5867 43.8663 68.6C43.7463 68.6133 43.6663 68.5733 43.6263 68.48C43.2929 67.9333 43.0129 67.4933 42.7863 67.16C42.5596 66.8133 42.3129 66.5533 42.0463 66.38C41.7929 66.1933 41.4596 66.0733 41.0463 66.02C40.6329 65.9533 40.0729 65.92 39.3663 65.92C38.5263 65.92 37.8996 65.9467 37.4863 66C37.0729 66.04 36.7996 66.1533 36.6663 66.34C36.5329 66.5133 36.4663 66.8 36.4663 67.2V71.8H39.3463C39.7863 71.8 40.0996 71.7733 40.2863 71.72C40.4729 71.6667 40.6263 71.54 40.7463 71.34C40.8796 71.14 41.0596 70.8333 41.2863 70.42C41.3263 70.3533 41.4329 70.3333 41.6063 70.36C41.7796 70.3867 41.8663 70.4467 41.8663 70.54C41.8663 70.9 41.8596 71.24 41.8463 71.56C41.8463 71.88 41.8463 72.14 41.8463 72.34C41.8463 72.5533 41.8463 72.82 41.8463 73.14C41.8596 73.46 41.8663 73.8 41.8663 74.16C41.8663 74.2533 41.7796 74.3133 41.6063 74.34C41.4329 74.3667 41.3263 74.3467 41.2863 74.28C41.0596 73.8533 40.8796 73.5467 40.7463 73.36C40.6263 73.16 40.4729 73.0333 40.2863 72.98C40.0996 72.9267 39.7863 72.9 39.3463 72.9H36.4663V77.24C36.4663 77.6 36.4796 77.88 36.5063 78.08C36.5463 78.28 36.6129 78.44 36.7063 78.56C36.8129 78.68 36.9663 78.8 37.1663 78.92C37.3796 79.04 37.6663 79.1933 38.0263 79.38C38.1196 79.4333 38.1463 79.5533 38.1063 79.74C38.0796 79.9267 38.0129 80.02 37.9063 80.02C37.2663 80.02 36.8196 80.0133 36.5663 80C36.3263 80 36.1063 80 35.9063 80H35.0263ZM48.327 80C48.127 80 47.9004 80 47.647 80C47.407 80.0133 46.967 80.02 46.327 80.02C46.2337 80.02 46.167 79.9267 46.127 79.74C46.087 79.5533 46.1137 79.4333 46.207 79.38C46.567 79.1933 46.847 79.04 47.047 78.92C47.2604 78.8 47.4137 78.68 47.507 78.56C47.6137 78.44 47.6804 78.28 47.707 78.08C47.747 77.88 47.767 77.6 47.767 77.24V67.54C47.767 67.18 47.747 66.9067 47.707 66.72C47.6804 66.52 47.6137 66.36 47.507 66.24C47.4137 66.12 47.2604 66 47.047 65.88C46.847 65.76 46.567 65.6067 46.207 65.42C46.1137 65.3667 46.087 65.2467 46.127 65.06C46.167 64.8733 46.2337 64.78 46.327 64.78C46.967 64.78 47.407 64.7867 47.647 64.8C47.9004 64.8 48.127 64.8 48.327 64.8H54.067L56.867 64.62L57.087 64.8L57.587 68.2C57.627 68.2933 57.6004 68.38 57.507 68.46C57.4137 68.54 57.3004 68.5867 57.167 68.6C57.047 68.6133 56.967 68.5733 56.927 68.48C56.5937 67.9333 56.3137 67.4933 56.087 67.16C55.8604 66.8133 55.6137 66.5533 55.347 66.38C55.0937 66.1933 54.7604 66.0733 54.347 66.02C53.9337 65.9533 53.3737 65.92 52.667 65.92C51.827 65.92 51.2004 65.9467 50.787 66C50.3737 66.04 50.1004 66.1533 49.967 66.34C49.8337 66.5133 49.767 66.8 49.767 67.2V71.8H52.647C53.087 71.8 53.4004 71.7733 53.587 71.72C53.7737 71.6667 53.927 71.54 54.047 71.34C54.1804 71.14 54.3604 70.8333 54.587 70.42C54.627 70.3533 54.7337 70.3333 54.907 70.36C55.0804 70.3867 55.167 70.4467 55.167 70.54C55.167 70.9 55.1604 71.24 55.147 71.56C55.147 71.88 55.147 72.14 55.147 72.34C55.147 72.5533 55.147 72.82 55.147 73.14C55.1604 73.46 55.167 73.8 55.167 74.16C55.167 74.2533 55.0804 74.3133 54.907 74.34C54.7337 74.3667 54.627 74.3467 54.587 74.28C54.3604 73.8533 54.1804 73.5467 54.047 73.36C53.927 73.16 53.7737 73.0333 53.587 72.98C53.4004 72.9267 53.087 72.9 52.647 72.9H49.767V77.24C49.767 77.6 49.7804 77.88 49.807 78.08C49.847 78.28 49.9137 78.44 50.007 78.56C50.1137 78.68 50.267 78.8 50.467 78.92C50.6804 79.04 50.967 79.1933 51.327 79.38C51.4204 79.4333 51.447 79.5533 51.407 79.74C51.3804 79.9267 51.3137 80.02 51.207 80.02C50.567 80.02 50.1204 80.0133 49.867 80C49.627 80 49.407 80 49.207 80H48.327ZM71.6878 67.54C71.6878 67.18 71.6678 66.9067 71.6278 66.72C71.5878 66.52 71.5145 66.36 71.4078 66.24C71.3145 66.12 71.1611 66 70.9478 65.88C70.7345 65.76 70.4478 65.6067 70.0878 65.42C70.0078 65.3667 69.9811 65.2467 70.0078 65.06C70.0478 64.8733 70.1211 64.78 70.2278 64.78C70.8678 64.78 71.3078 64.7867 71.5478 64.8C71.8011 64.8 72.0278 64.8 72.2278 64.8H72.4878C72.6878 64.8 72.9078 64.8 73.1478 64.8C73.4011 64.7867 73.8478 64.78 74.4878 64.78C74.5945 64.78 74.6611 64.8733 74.6878 65.06C74.7278 65.2467 74.7011 65.3667 74.6078 65.42C74.2478 65.6067 73.9611 65.76 73.7478 65.88C73.5478 66 73.3945 66.12 73.2878 66.24C73.1945 66.36 73.1278 66.52 73.0878 66.72C73.0611 66.9067 73.0478 67.18 73.0478 67.54V76.8L73.1478 80C73.1611 80.0933 73.0678 80.1733 72.8678 80.24C72.6811 80.3067 72.4811 80.34 72.2678 80.34C72.0678 80.34 71.9611 80.2933 71.9478 80.2L62.2678 68L62.4278 77.26C62.4278 77.62 62.4478 77.9 62.4878 78.1C62.5278 78.2867 62.5945 78.44 62.6878 78.56C62.7945 78.68 62.9545 78.8 63.1678 78.92C63.3811 79.04 63.6678 79.1933 64.0278 79.38C64.1078 79.4333 64.1278 79.5533 64.0878 79.74C64.0611 79.9267 63.9945 80.02 63.8878 80.02C63.2478 80.02 62.8011 80.0133 62.5478 80C62.3078 80 62.0878 80 61.8878 80H61.6278C61.4278 80 61.2011 80 60.9478 80C60.7078 80.0133 60.2678 80.02 59.6278 80.02C59.5345 80.02 59.4678 79.9267 59.4278 79.74C59.3878 79.5533 59.4145 79.4333 59.5078 79.38C59.8678 79.1933 60.1478 79.04 60.3478 78.92C60.5611 78.8 60.7145 78.68 60.8078 78.56C60.9145 78.44 60.9811 78.28 61.0078 78.08C61.0478 77.88 61.0678 77.6 61.0678 77.24V67.54C61.0678 67.18 61.0478 66.9067 61.0078 66.72C60.9811 66.52 60.9145 66.36 60.8078 66.24C60.7145 66.12 60.5611 66 60.3478 65.88C60.1478 65.76 59.8678 65.6067 59.5078 65.42C59.4145 65.3667 59.3878 65.2467 59.4278 65.06C59.4678 64.8733 59.5345 64.78 59.6278 64.78C60.2678 64.78 60.7078 64.7867 60.9478 64.8C61.2011 64.8 61.4278 64.8 61.6278 64.8H62.2678L71.8478 76.6L71.6878 67.54ZM96.0195 68.8C95.5129 68.0133 95.0262 67.4 94.5595 66.96C94.1062 66.52 93.6329 66.2133 93.1395 66.04C92.6462 65.8533 92.0795 65.76 91.4395 65.76C90.7595 65.76 90.0862 65.8867 89.4195 66.14C88.7662 66.3933 88.1662 66.7733 87.6195 67.28C87.0862 67.7867 86.6595 68.4133 86.3395 69.16C86.0195 69.8933 85.8595 70.7467 85.8595 71.72C85.8595 72.8 86.0195 73.7733 86.3395 74.64C86.6595 75.4933 87.0929 76.22 87.6395 76.82C88.1995 77.42 88.8329 77.88 89.5395 78.2C90.2462 78.52 90.9929 78.68 91.7795 78.68C92.5929 78.68 93.4129 78.5 94.2395 78.14C95.0795 77.7667 95.8729 77.1933 96.6195 76.42C96.6862 76.34 96.7862 76.3467 96.9195 76.44C97.0662 76.5333 97.1862 76.6467 97.2795 76.78C97.3729 76.9133 97.3862 77.02 97.3195 77.1C96.4529 78.1 95.4929 78.8667 94.4395 79.4C93.3862 79.92 92.2129 80.18 90.9195 80.18C90.0395 80.18 89.1729 80.0133 88.3195 79.68C87.4662 79.3333 86.6929 78.8333 85.9995 78.18C85.3062 77.5133 84.7529 76.7067 84.3395 75.76C83.9262 74.8 83.7195 73.7133 83.7195 72.5C83.7195 71.3133 83.9395 70.2333 84.3795 69.26C84.8329 68.2867 85.4462 67.4467 86.2195 66.74C86.9929 66.0333 87.8795 65.4867 88.8795 65.1C89.8929 64.7133 90.9595 64.52 92.0795 64.52C92.7462 64.52 93.4195 64.5933 94.0995 64.74C94.7795 64.8733 95.4529 65.0933 96.1195 65.4L96.8195 68.6C96.8462 68.6933 96.7929 68.7733 96.6595 68.84C96.5395 68.9067 96.4062 68.94 96.2595 68.94C96.1262 68.94 96.0462 68.8933 96.0195 68.8ZM101.784 80.02C101.584 80.02 101.357 80.02 101.104 80.02C100.864 80.0333 100.424 80.04 99.7841 80.04C99.6907 80.04 99.6241 79.9467 99.5841 79.76C99.5441 79.5733 99.5707 79.4533 99.6641 79.4C100.024 79.2133 100.304 79.06 100.504 78.94C100.717 78.82 100.871 78.7 100.964 78.58C101.071 78.46 101.137 78.3 101.164 78.1C101.204 77.9 101.224 77.62 101.224 77.26V67.54C101.224 67.18 101.204 66.9067 101.164 66.72C101.137 66.52 101.071 66.36 100.964 66.24C100.871 66.12 100.717 66 100.504 65.88C100.304 65.76 100.024 65.6067 99.6641 65.42C99.5707 65.3667 99.5441 65.2467 99.5841 65.06C99.6241 64.8733 99.6907 64.78 99.7841 64.78C100.424 64.78 100.864 64.7867 101.104 64.8C101.357 64.8 101.584 64.8 101.784 64.8H102.604C102.751 64.8 102.904 64.8 103.064 64.8C103.224 64.7867 103.437 64.78 103.704 64.78C103.984 64.78 104.364 64.78 104.844 64.78C104.964 64.78 105.044 64.8733 105.084 65.06C105.124 65.2467 105.091 65.3667 104.984 65.42C104.584 65.6067 104.264 65.76 104.024 65.88C103.797 66 103.624 66.12 103.504 66.24C103.384 66.36 103.304 66.52 103.264 66.72C103.237 66.9067 103.224 67.18 103.224 67.54V77.62C103.224 78.0067 103.291 78.2933 103.424 78.48C103.557 78.6667 103.831 78.7867 104.244 78.84C104.657 78.88 105.284 78.9 106.124 78.9C106.737 78.9 107.231 78.86 107.604 78.78C107.991 78.7 108.311 78.56 108.564 78.36C108.831 78.1467 109.084 77.86 109.324 77.5C109.564 77.14 109.851 76.6867 110.184 76.14C110.224 76.0467 110.304 76.0067 110.424 76.02C110.557 76.0333 110.671 76.08 110.764 76.16C110.857 76.24 110.884 76.3267 110.844 76.42L110.164 79.82L109.924 80.02H101.784ZM120.45 80.2C118.503 80.2 116.996 79.6933 115.93 78.68C114.863 77.6667 114.33 76.0733 114.33 73.9V67.54C114.33 67.18 114.31 66.9067 114.27 66.72C114.243 66.52 114.176 66.36 114.07 66.24C113.976 66.12 113.823 66 113.61 65.88C113.41 65.76 113.13 65.6067 112.77 65.42C112.676 65.3667 112.65 65.2467 112.69 65.06C112.73 64.8733 112.796 64.78 112.89 64.78C113.53 64.78 113.97 64.7867 114.21 64.8C114.463 64.8 114.69 64.8 114.89 64.8H115.77C115.97 64.8 116.19 64.8 116.43 64.8C116.683 64.7867 117.13 64.78 117.77 64.78C117.876 64.78 117.943 64.8733 117.97 65.06C118.01 65.2467 117.983 65.3667 117.89 65.42C117.53 65.6067 117.243 65.76 117.03 65.88C116.83 66 116.676 66.12 116.57 66.24C116.476 66.36 116.41 66.52 116.37 66.72C116.343 66.9067 116.33 67.18 116.33 67.54V74.08C116.33 75 116.456 75.7533 116.71 76.34C116.963 76.9267 117.303 77.3867 117.73 77.72C118.17 78.04 118.663 78.2667 119.21 78.4C119.77 78.5333 120.343 78.6 120.93 78.6C121.796 78.6 122.556 78.4267 123.21 78.08C123.876 77.7333 124.396 77.2267 124.77 76.56C125.143 75.88 125.33 75.06 125.33 74.1V67.54C125.33 67.18 125.31 66.9067 125.27 66.72C125.243 66.52 125.176 66.36 125.07 66.24C124.976 66.12 124.823 66 124.61 65.88C124.41 65.76 124.13 65.6067 123.77 65.42C123.676 65.3667 123.65 65.2467 123.69 65.06C123.73 64.8733 123.796 64.78 123.89 64.78C124.53 64.78 124.97 64.7867 125.21 64.8C125.463 64.8 125.69 64.8 125.89 64.8H125.97C126.17 64.8 126.39 64.8 126.63 64.8C126.883 64.7867 127.33 64.78 127.97 64.78C128.076 64.78 128.143 64.8733 128.17 65.06C128.21 65.2467 128.183 65.3667 128.09 65.42C127.73 65.6067 127.443 65.76 127.23 65.88C127.03 66 126.876 66.12 126.77 66.24C126.676 66.36 126.61 66.52 126.57 66.72C126.543 66.9067 126.53 67.18 126.53 67.54V74.1C126.53 74.9133 126.41 75.6867 126.17 76.42C125.943 77.1533 125.583 77.8067 125.09 78.38C124.61 78.94 123.983 79.3867 123.21 79.72C122.45 80.04 121.53 80.2 120.45 80.2ZM132.259 67.54C132.259 67.18 132.239 66.9067 132.199 66.72C132.173 66.52 132.106 66.36 131.999 66.24C131.906 66.12 131.753 66 131.539 65.88C131.339 65.76 131.059 65.6067 130.699 65.42C130.606 65.3667 130.579 65.2467 130.619 65.06C130.659 64.8733 130.726 64.78 130.819 64.78C131.459 64.78 131.899 64.7867 132.139 64.8C132.393 64.8 132.619 64.8 132.819 64.8H136.199C137.279 64.8 138.166 64.9867 138.859 65.36C139.566 65.7333 140.093 66.2133 140.439 66.8C140.786 67.3867 140.959 68 140.959 68.64C140.959 69.3333 140.753 69.9867 140.339 70.6C139.939 71.2 139.339 71.64 138.539 71.92C139.593 72.2267 140.379 72.7467 140.899 73.48C141.419 74.2133 141.679 74.9867 141.679 75.8C141.679 76.4933 141.486 77.1667 141.099 77.82C140.726 78.46 140.166 78.9867 139.419 79.4C138.673 79.8 137.733 80 136.599 80H132.819C132.619 80 132.393 80 132.139 80C131.899 80.0133 131.459 80.02 130.819 80.02C130.726 80.02 130.659 79.9267 130.619 79.74C130.579 79.5533 130.606 79.4333 130.699 79.38C131.059 79.1933 131.339 79.04 131.539 78.92C131.753 78.8 131.906 78.68 131.999 78.56C132.106 78.44 132.173 78.28 132.199 78.08C132.239 77.88 132.259 77.6 132.259 77.24V67.54ZM134.259 71.62C134.806 71.66 135.353 71.66 135.899 71.62C136.459 71.5667 136.973 71.4533 137.439 71.28C137.906 71.0933 138.279 70.82 138.559 70.46C138.839 70.0867 138.979 69.6 138.979 69C138.979 68.32 138.819 67.7533 138.499 67.3C138.179 66.8467 137.746 66.5133 137.199 66.3C136.653 66.0733 136.046 65.96 135.379 65.96C135.206 65.96 135.019 65.9733 134.819 66C134.633 66.0133 134.446 66.0333 134.259 66.06V71.62ZM134.259 78.7C134.779 78.78 135.273 78.82 135.739 78.82C136.859 78.82 137.779 78.5733 138.499 78.08C139.219 77.5733 139.579 76.8133 139.579 75.8C139.579 75.04 139.393 74.4333 139.019 73.98C138.659 73.5267 138.193 73.2 137.619 73C137.046 72.8 136.439 72.7 135.799 72.7C135.479 72.7 135.199 72.7067 134.959 72.72C134.719 72.7333 134.486 72.76 134.259 72.8V78.7Z" fill="black"/>
<defs>
<linearGradient id="paint0_linear_274_309" x1="83.7384" y1="11.3044" x2="84.7629" y2="11.69" gradientUnits="userSpaceOnUse">
<stop stop-color="#1A1A1A"/>
<stop offset="1" stop-color="#393535"/>
</linearGradient>
<linearGradient id="paint1_linear_274_309" x1="90.333" y1="9.41996" x2="90.153" y2="10.7399" gradientUnits="userSpaceOnUse">
<stop stop-color="#1A1A1A"/>
<stop offset="1" stop-color="#393535"/>
</linearGradient>
<linearGradient id="paint2_linear_274_309" x1="68.4785" y1="34.478" x2="69.6732" y2="35.5461" gradientUnits="userSpaceOnUse">
<stop stop-color="#1A1A1A"/>
<stop offset="1" stop-color="#393535"/>
</linearGradient>
</defs>
</svg>
