<svg width="16" height="16" viewBox="0 0 16 16" fill="none" xmlns="http://www.w3.org/2000/svg">
<path d="M14.9665 7.88411C14.9665 11.7961 11.7952 14.9674 7.88314 14.9674M14.9665 7.88411C14.9665 3.9721 11.7952 0.800781 7.88314 0.800781M14.9665 7.88411H0.799805M7.88314 14.9674C3.97112 14.9674 0.799805 11.7961 0.799805 7.88411M7.88314 14.9674C9.65488 13.0278 10.6618 10.5106 10.7165 7.88411C10.6618 5.25764 9.65488 2.74045 7.88314 0.800781M7.88314 14.9674C6.1114 13.0278 5.10452 10.5106 5.0498 7.88411C5.10452 5.25764 6.1114 2.74045 7.88314 0.800781M0.799805 7.88411C0.799805 3.9721 3.97112 0.800781 7.88314 0.800781" stroke="#1A1A1A" stroke-opacity="0.7" stroke-width="1.6" stroke-linecap="round" stroke-linejoin="round"/>
</svg>
