<svg width="30" height="30" viewBox="0 0 30 30" fill="none" xmlns="http://www.w3.org/2000/svg">
<path d="M1.5 24V15C1.5 11.4196 2.92232 7.9858 5.45406 5.45406C7.9858 2.92232 11.4196 1.5 15 1.5C18.5804 1.5 22.0142 2.92232 24.5459 5.45406C27.0777 7.9858 28.5 11.4196 28.5 15V24M28.5 25.5C28.5 26.2956 28.1839 27.0587 27.6213 27.6213C27.0587 28.1839 26.2956 28.5 25.5 28.5H24C23.2044 28.5 22.4413 28.1839 21.8787 27.6213C21.3161 27.0587 21 26.2956 21 25.5V21C21 20.2044 21.3161 19.4413 21.8787 18.8787C22.4413 18.3161 23.2044 18 24 18H28.5V25.5ZM1.5 25.5C1.5 26.2956 1.81607 27.0587 2.37868 27.6213C2.94129 28.1839 3.70435 28.5 4.5 28.5H6C6.79565 28.5 7.55871 28.1839 8.12132 27.6213C8.68393 27.0587 9 26.2956 9 25.5V21C9 20.2044 8.68393 19.4413 8.12132 18.8787C7.55871 18.3161 6.79565 18 6 18H1.5V25.5Z" stroke="#7A7A7A" stroke-width="3" stroke-linecap="round" stroke-linejoin="round"/>
</svg>
