<svg width="19" height="16" viewBox="0 0 19 16" fill="none" xmlns="http://www.w3.org/2000/svg">
<path d="M10.4017 0.732557C9.62825 0.0796422 8.51092 0.0896201 7.74943 0.760469L0.423127 7.19877C0.212384 7.38518 0.191507 7.70616 0.374416 7.91847C0.560308 8.12979 0.880404 8.15073 1.09213 7.96731L2.33671 6.8728V12.6982C2.33671 14.1047 3.4789 15.25 4.88154 15.25H13.6154C15.018 15.25 16.1602 14.1047 16.1602 12.6982V6.92563L17.4128 7.98224C17.5092 8.06398 17.6235 8.10186 17.7408 8.10186C17.8859 8.10186 18.0311 8.04106 18.1305 7.92044C18.3114 7.70613 18.2836 7.38215 18.0698 7.20074L10.3995 0.731307L10.4017 0.732557ZM15.1455 12.6984C15.1455 13.5427 14.4606 14.2295 13.6186 14.2295H4.88472C4.04274 14.2295 3.35782 13.5427 3.35782 12.6984V5.97685L8.41974 1.52899C8.80146 1.19505 9.35914 1.19008 9.74582 1.51603L15.1457 6.07158V12.7013L15.1455 12.6984Z" fill="#1A1A1A" stroke="#1A1A1A" stroke-width="0.5"/>
</svg>
