<svg width="131" height="26" viewBox="0 0 131 26" fill="none" xmlns="http://www.w3.org/2000/svg">
<path d="M29.0312 19C28.7077 19 28.3818 18.9932 28.0537 18.9795H27.9922C27.5319 18.9795 27.2334 18.8792 27.0967 18.6787C27.0374 18.5921 27.0078 18.4714 27.0078 18.3164C27.0078 18.0931 27.0716 17.7992 27.1992 17.4346C27.4089 16.7965 27.5296 16.1426 27.5615 15.4727C27.5752 14.8301 27.5866 13.8184 27.5957 12.4375C27.5957 11.7858 27.5911 11.2708 27.582 10.8926C27.5365 9.97656 27.4339 9.34082 27.2744 8.98535C27.124 8.66634 27.0488 8.38379 27.0488 8.1377C27.0488 8.02376 27.0625 7.91211 27.0898 7.80273C27.181 7.52018 27.3473 7.34928 27.5889 7.29004C27.8304 7.22624 28.0765 7.19434 28.3271 7.19434H28.5459C29.111 7.17611 30.0863 7.16699 31.4717 7.16699C32.0915 7.16699 32.513 7.17155 32.7363 7.18066C33.3014 7.22168 33.8438 7.34473 34.3633 7.5498C34.8828 7.75488 35.3317 8.04655 35.71 8.4248C36.0928 8.7985 36.3594 9.26107 36.5098 9.8125C36.6465 10.3184 36.7148 10.8151 36.7148 11.3027C36.7148 11.5853 36.6715 11.9818 36.585 12.4922C36.4984 12.998 36.1475 13.5586 35.5322 14.1738C34.7985 14.9076 33.8415 15.2744 32.6611 15.2744C32.3558 15.2744 32.0391 15.2471 31.7109 15.1924C31.5104 15.1605 31.3532 15.1445 31.2393 15.1445H31.1162C31.0524 15.1445 30.9932 15.181 30.9385 15.2539C30.8656 15.377 30.8291 15.5046 30.8291 15.6367C30.8291 15.696 30.8359 15.7575 30.8496 15.8213C30.9635 16.3226 31.1253 16.7601 31.335 17.1338C31.5446 17.5075 31.6494 17.8265 31.6494 18.0908C31.6494 18.223 31.6107 18.3848 31.5332 18.5762C31.4557 18.763 31.2347 18.8792 30.8701 18.9248C30.2594 18.9749 29.6465 19 29.0312 19ZM31.5879 13.4219C31.7474 13.4219 31.8932 13.4014 32.0254 13.3604C32.6315 13.1325 33.0576 12.7178 33.3037 12.1162C33.3857 11.8975 33.4268 11.6696 33.4268 11.4326C33.4268 10.986 33.306 10.5599 33.0645 10.1543C32.8229 9.7487 32.4743 9.45931 32.0186 9.28613C31.8408 9.22233 31.6745 9.19043 31.5195 9.19043C30.9499 9.19043 30.6514 9.48438 30.624 10.0723L30.6377 11.8428C30.6377 12.221 30.6354 12.5036 30.6309 12.6904C30.6309 12.9229 30.7106 13.096 30.8701 13.21C31.057 13.3512 31.2962 13.4219 31.5879 13.4219ZM43.3895 19.1641C43.1661 19.1641 42.8859 19.1504 42.5486 19.123C42.216 19.1003 41.8309 19.0205 41.3934 18.8838C40.6733 18.6559 40.1105 18.2845 39.7049 17.7695C39.3038 17.2546 39.06 16.5664 38.9734 15.7051C38.9187 15.1855 38.8868 14.527 38.8777 13.7295C38.8686 12.3942 38.8572 11.4486 38.8436 10.8926C38.8299 10.3366 38.7843 9.92188 38.7068 9.64844C38.6339 9.39779 38.5542 9.17676 38.4676 8.98535C38.3126 8.639 38.2352 8.37012 38.2352 8.17871C38.2352 7.764 38.4357 7.47005 38.8367 7.29688L38.8641 7.2832V7.29004C39.0327 7.22624 39.2332 7.19434 39.4656 7.19434H41.7215C42.1134 7.21257 42.3937 7.34928 42.5623 7.60449C42.6762 7.77311 42.7332 7.96224 42.7332 8.17188C42.7332 8.36784 42.6626 8.63672 42.5213 8.97852C42.4393 9.16992 42.3641 9.39095 42.2957 9.6416C42.2273 9.89225 42.1886 10.2113 42.1795 10.5986C42.1613 12.1208 42.1521 13.0413 42.1521 13.3604C42.1521 13.9528 42.1658 14.4655 42.1932 14.8984C42.2342 15.5775 42.519 16.1152 43.0477 16.5117C43.3074 16.6895 43.6014 16.7783 43.9295 16.7783H44.2098C44.3829 16.7783 44.6017 16.6667 44.866 16.4434C45.1349 16.2155 45.2898 15.8577 45.3309 15.3701C45.3673 14.5954 45.3855 13.8184 45.3855 13.0391L45.3787 11.125C45.3833 10.9609 45.3855 10.7946 45.3855 10.626C45.3855 10.3298 45.3742 10.0745 45.3514 9.86035C45.3104 9.47754 45.2146 9.11979 45.0643 8.78711C44.9275 8.51823 44.8569 8.2334 44.8523 7.93262C44.8706 7.70931 44.948 7.5293 45.0848 7.39258C45.226 7.2513 45.4083 7.18066 45.6316 7.18066H47.3543C47.7508 7.18066 48.0447 7.31283 48.2361 7.57715C48.3546 7.7321 48.4139 7.90527 48.4139 8.09668C48.4139 8.22428 48.3865 8.361 48.3318 8.50684C48.0128 9.2998 47.8533 10.1224 47.8533 10.9746L47.8602 12.5742C47.8602 13.5632 47.8305 14.5498 47.7713 15.5342C47.6756 16.6917 47.3087 17.5667 46.6707 18.1592C46.0327 18.7516 45.1622 19.0798 44.0594 19.1436C43.8361 19.1572 43.6128 19.1641 43.3895 19.1641ZM53.8717 18.9863H50.9596C50.6725 18.9727 50.4605 18.8587 50.3238 18.6445C50.2509 18.5306 50.2145 18.4076 50.2145 18.2754C50.2145 18.1523 50.2441 18.0225 50.3033 17.8857C50.5449 17.3617 50.7089 16.8307 50.7955 16.293C50.8821 15.7552 50.9277 15.2106 50.9322 14.6592C50.9413 14.6182 50.9459 14.4632 50.9459 14.1943V10.9131C50.8912 9.99707 50.7887 9.36133 50.6383 9.00586C50.4378 8.61849 50.3375 8.30176 50.3375 8.05566C50.3375 7.91439 50.3671 7.77767 50.4264 7.64551C50.5813 7.34473 50.8912 7.19434 51.3561 7.19434L53.7418 7.1875C55.3323 7.1875 56.3235 7.18978 56.7154 7.19434H57.5426C57.9436 7.19434 58.2626 7.26725 58.4996 7.41309C58.7411 7.55436 58.9394 7.80046 59.0943 8.15137C59.2493 8.50228 59.3268 8.88509 59.3268 9.2998C59.3268 9.68717 59.2584 9.99935 59.1217 10.2363C58.9439 10.528 58.6933 10.6738 58.3697 10.6738C58.1282 10.6738 57.9026 10.5964 57.693 10.4414C57.5289 10.3275 57.3762 10.1999 57.235 10.0586L56.9684 9.82617C56.4169 9.37044 55.8541 9.14258 55.2799 9.14258C54.5644 9.16536 54.1861 9.60742 54.1451 10.4688C54.1406 10.6237 54.1383 10.7809 54.1383 10.9404L54.1451 11.4121C54.1497 11.9316 54.3411 12.1914 54.7193 12.1914C54.9107 12.1914 55.2275 12.098 55.6695 11.9111C56.0615 11.738 56.3736 11.6514 56.6061 11.6514C57.1529 11.6514 57.5038 11.9066 57.6588 12.417C57.7089 12.5902 57.734 12.7611 57.734 12.9297C57.734 13.1667 57.6839 13.4014 57.5836 13.6338C57.4514 13.9163 57.2418 14.1123 56.9547 14.2217C56.8408 14.2581 56.72 14.2764 56.5924 14.2764C56.2506 14.2764 55.8723 14.1898 55.4576 14.0166C55.2298 13.9209 55.0839 13.873 55.0201 13.873C54.8788 13.8275 54.7467 13.8047 54.6236 13.8047C54.5279 13.8047 54.4391 13.8366 54.357 13.9004C54.2568 13.987 54.1952 14.0941 54.1725 14.2217C54.1542 14.3128 54.1406 14.6227 54.1314 15.1514C54.1588 15.6253 54.3069 16.1699 54.5758 16.7852C54.5849 16.8171 54.5963 16.8467 54.61 16.874C54.8105 17.3662 54.9107 17.7194 54.9107 17.9336C54.9107 18.1523 54.8287 18.3779 54.6646 18.6104C54.5051 18.8382 54.2408 18.9635 53.8717 18.9863ZM64.6068 18.9863H61.6947C61.4076 18.9727 61.1957 18.8587 61.059 18.6445C60.9861 18.5306 60.9496 18.4076 60.9496 18.2754C60.9496 18.1523 60.9792 18.0225 61.0385 17.8857C61.28 17.3617 61.4441 16.8307 61.5307 16.293C61.6173 15.7552 61.6628 15.2106 61.6674 14.6592C61.6765 14.6182 61.6811 14.4632 61.6811 14.1943V10.9131C61.6264 9.99707 61.5238 9.36133 61.3734 9.00586C61.1729 8.61849 61.0727 8.30176 61.0727 8.05566C61.0727 7.91439 61.1023 7.77767 61.1615 7.64551C61.3165 7.34473 61.6264 7.19434 62.0912 7.19434L64.477 7.1875C66.0674 7.1875 67.0587 7.18978 67.4506 7.19434H68.2777C68.6788 7.19434 68.9978 7.26725 69.2348 7.41309C69.4763 7.55436 69.6745 7.80046 69.8295 8.15137C69.9844 8.50228 70.0619 8.88509 70.0619 9.2998C70.0619 9.68717 69.9936 9.99935 69.8568 10.2363C69.6791 10.528 69.4284 10.6738 69.1049 10.6738C68.8633 10.6738 68.6378 10.5964 68.4281 10.4414C68.2641 10.3275 68.1114 10.1999 67.9701 10.0586L67.7035 9.82617C67.1521 9.37044 66.5893 9.14258 66.015 9.14258C65.2995 9.16536 64.9213 9.60742 64.8803 10.4688C64.8757 10.6237 64.8734 10.7809 64.8734 10.9404L64.8803 11.4121C64.8848 11.9316 65.0762 12.1914 65.4545 12.1914C65.6459 12.1914 65.9626 12.098 66.4047 11.9111C66.7966 11.738 67.1088 11.6514 67.3412 11.6514C67.8881 11.6514 68.239 11.9066 68.3939 12.417C68.4441 12.5902 68.4691 12.7611 68.4691 12.9297C68.4691 13.1667 68.419 13.4014 68.3187 13.6338C68.1866 13.9163 67.977 14.1123 67.6898 14.2217C67.5759 14.2581 67.4551 14.2764 67.3275 14.2764C66.9857 14.2764 66.6075 14.1898 66.1928 14.0166C65.9649 13.9209 65.8191 13.873 65.7553 13.873C65.614 13.8275 65.4818 13.8047 65.3588 13.8047C65.2631 13.8047 65.1742 13.8366 65.0922 13.9004C64.9919 13.987 64.9304 14.0941 64.9076 14.2217C64.8894 14.3128 64.8757 14.6227 64.8666 15.1514C64.8939 15.6253 65.0421 16.1699 65.3109 16.7852C65.3201 16.8171 65.3314 16.8467 65.3451 16.874C65.5456 17.3662 65.6459 17.7194 65.6459 17.9336C65.6459 18.1523 65.5639 18.3779 65.3998 18.6104C65.2403 18.8382 64.976 18.9635 64.6068 18.9863ZM79.9562 19C78.8625 19 78.1037 18.4782 77.6799 17.4346C77.3609 16.7054 76.9325 15.7939 76.3947 14.7002C75.2782 12.4443 74.6994 11.3164 74.6584 11.3164C74.6311 11.3164 74.6174 11.3369 74.6174 11.3779C74.6584 13.9665 74.7131 15.5365 74.7814 16.0879C74.8179 16.416 74.9045 16.735 75.0412 17.0449L75.1779 17.3115C75.3784 17.667 75.4787 17.9541 75.4787 18.1729C75.4787 18.5146 75.3397 18.7471 75.0617 18.8701C74.8749 18.9567 74.6835 19 74.4875 19H72.6418C72.3729 19 72.1587 18.9362 71.9992 18.8086C71.7896 18.6445 71.6848 18.4326 71.6848 18.1729C71.6848 18.027 71.7189 17.8766 71.7873 17.7217C72.0926 17.0791 72.2795 16.4206 72.3479 15.7461C72.4025 15.1901 72.4299 14.6318 72.4299 14.0713L72.423 13.709C72.423 13.513 72.4253 13.3193 72.4299 13.1279L72.4367 12.0479C72.4367 11.4007 72.4208 10.7536 72.3889 10.1064C72.3342 9.52767 72.2111 8.95801 72.0197 8.39746C71.9742 8.24707 71.9514 8.10807 71.9514 7.98047C71.9514 7.47005 72.2453 7.20345 72.8332 7.18066H74.9865C75.7886 7.18522 76.3605 7.56803 76.7023 8.3291C77.0578 9.06738 77.5181 9.98568 78.0832 11.084C78.8124 12.5059 79.2772 13.4378 79.4777 13.8799C79.5051 13.9482 79.5324 13.9824 79.5598 13.9824C79.5871 13.9824 79.6008 13.9391 79.6008 13.8525C79.6008 11.984 79.5598 10.7308 79.4777 10.0928C79.4185 9.64616 79.2772 9.23828 79.0539 8.86914C78.8488 8.50911 78.7463 8.22656 78.7463 8.02148C78.7463 7.69792 78.8693 7.47005 79.1154 7.33789C79.2066 7.23307 79.4025 7.18066 79.7033 7.18066H81.6857C81.9683 7.18066 82.1939 7.24219 82.3625 7.36523C82.5767 7.5293 82.6838 7.74349 82.6838 8.00781C82.6838 8.15365 82.6473 8.30404 82.5744 8.45898C82.2007 9.19727 81.9888 10.0677 81.9387 11.0703C81.9296 11.3893 81.9227 12.2962 81.9182 13.791C81.8999 14.3242 81.8908 14.8574 81.8908 15.3906C81.8908 15.6367 81.9022 16.2611 81.925 17.2637C81.925 17.6647 81.8771 17.9997 81.7814 18.2686C81.6903 18.5329 81.4989 18.722 81.2072 18.8359C80.9201 18.9453 80.5031 19 79.9562 19Z" fill="#1A1A1A" fill-opacity="0.95"/>
<path d="M92.5176 19.1777H92.3057C91.0023 19.1777 89.8926 18.8633 88.9766 18.2344C87.5911 17.2591 86.8506 15.9329 86.7549 14.2559C86.7412 14.0417 86.7344 13.8275 86.7344 13.6133C86.7344 12.1549 87.042 10.8447 87.6572 9.68262C88.6325 7.8916 90.3483 6.99609 92.8047 6.99609C93.3014 6.99609 93.7891 7.06445 94.2676 7.20117C95.3431 7.51107 96.1042 8.08757 96.5508 8.93066C96.7194 9.27702 96.8037 9.61198 96.8037 9.93555C96.8037 10.5872 96.5052 11.1136 95.9082 11.5146C95.6211 11.6833 95.334 11.7676 95.0469 11.7676C94.8919 11.7676 94.7347 11.7425 94.5752 11.6924C94.1286 11.5511 93.805 11.248 93.6045 10.7832C93.5589 10.6465 93.5179 10.5098 93.4814 10.373C93.3174 9.72135 93.0827 9.3431 92.7773 9.23828C92.5267 9.15169 92.3398 9.1084 92.2168 9.1084C91.9434 9.1084 91.6562 9.20866 91.3555 9.40918C91.2188 9.49121 91.0775 9.61426 90.9316 9.77832C90.3665 10.43 90.084 11.3141 90.084 12.4307C90.084 13.1689 90.2321 13.8958 90.5283 14.6113C90.7881 15.2083 91.123 15.6322 91.5332 15.8828C91.9479 16.1335 92.3649 16.2588 92.7842 16.2588C93.5999 16.2588 94.3747 15.8304 95.1084 14.9736C95.3135 14.7458 95.473 14.6227 95.5869 14.6045C95.7054 14.5817 95.7852 14.5703 95.8262 14.5703C95.972 14.5703 96.1156 14.6159 96.2568 14.707C96.5439 14.8893 96.6875 15.2288 96.6875 15.7256V15.7666C96.6283 16.7419 96.0814 17.6442 95.0469 18.4736C94.3861 18.943 93.543 19.1777 92.5176 19.1777ZM104.323 19C102.277 19 101.108 18.9977 100.816 18.9932H99.0388C98.6058 18.984 98.3119 18.8587 98.157 18.6172C98.084 18.5124 98.0476 18.3916 98.0476 18.2549C98.0476 18.0863 98.1045 17.8949 98.2185 17.6807C98.3871 17.3617 98.4919 17.0404 98.5329 16.7168C98.5694 16.4206 98.5899 15.974 98.5945 15.377C98.6446 13.6634 98.6696 12.3372 98.6696 11.3984C98.656 10.2363 98.5512 9.43652 98.3552 8.99902C98.2504 8.79395 98.1661 8.57064 98.1023 8.3291C98.0749 8.22884 98.0612 8.13086 98.0612 8.03516C98.0612 7.90299 98.0886 7.77083 98.1433 7.63867C98.2663 7.42448 98.4486 7.29232 98.6902 7.24219C98.8314 7.21029 98.9727 7.19206 99.114 7.1875L100.29 7.18066L101.466 7.1875C101.607 7.19206 101.746 7.21029 101.883 7.24219C102.124 7.29232 102.306 7.42448 102.429 7.63867C102.489 7.77083 102.518 7.90755 102.518 8.04883C102.518 8.29492 102.418 8.61165 102.217 8.99902C102.067 9.34538 101.965 9.98112 101.91 10.9062C101.905 11.2344 101.903 11.7835 101.903 12.5537C101.903 13.3285 101.905 14.0599 101.91 14.748V15.8623C101.91 15.999 101.924 16.1426 101.951 16.293C101.978 16.4434 102.056 16.571 102.183 16.6758C102.37 16.7806 102.573 16.833 102.792 16.833C103.512 16.833 104.127 16.5801 104.637 16.0742L104.904 15.7734C105.054 15.5866 105.216 15.4157 105.389 15.2607C105.594 15.083 105.822 14.9896 106.073 14.9805C106.273 14.9805 106.447 15.0557 106.592 15.2061C106.834 15.4613 106.955 15.9261 106.955 16.6006C106.955 17.0381 106.882 17.4688 106.736 17.8926C106.54 18.4987 106.217 18.8473 105.765 18.9385C105.601 18.9795 105.12 19 104.323 19ZM112.765 19.1641C112.542 19.1641 112.261 19.1504 111.924 19.123C111.592 19.1003 111.206 19.0205 110.769 18.8838C110.049 18.6559 109.486 18.2845 109.081 17.7695C108.679 17.2546 108.436 16.5664 108.349 15.7051C108.294 15.1855 108.262 14.527 108.253 13.7295C108.244 12.3942 108.233 11.4486 108.219 10.8926C108.206 10.3366 108.16 9.92188 108.082 9.64844C108.01 9.39779 107.93 9.17676 107.843 8.98535C107.688 8.639 107.611 8.37012 107.611 8.17871C107.611 7.764 107.811 7.47005 108.212 7.29688L108.24 7.2832V7.29004C108.408 7.22624 108.609 7.19434 108.841 7.19434H111.097C111.489 7.21257 111.769 7.34928 111.938 7.60449C112.052 7.77311 112.109 7.96224 112.109 8.17188C112.109 8.36784 112.038 8.63672 111.897 8.97852C111.815 9.16992 111.74 9.39095 111.671 9.6416C111.603 9.89225 111.564 10.2113 111.555 10.5986C111.537 12.1208 111.528 13.0413 111.528 13.3604C111.528 13.9528 111.541 14.4655 111.569 14.8984C111.61 15.5775 111.895 16.1152 112.423 16.5117C112.683 16.6895 112.977 16.7783 113.305 16.7783H113.585C113.759 16.7783 113.977 16.6667 114.242 16.4434C114.511 16.2155 114.665 15.8577 114.706 15.3701C114.743 14.5954 114.761 13.8184 114.761 13.0391L114.754 11.125C114.759 10.9609 114.761 10.7946 114.761 10.626C114.761 10.3298 114.75 10.0745 114.727 9.86035C114.686 9.47754 114.59 9.11979 114.44 8.78711C114.303 8.51823 114.233 8.2334 114.228 7.93262C114.246 7.70931 114.324 7.5293 114.46 7.39258C114.602 7.2513 114.784 7.18066 115.007 7.18066H116.73C117.126 7.18066 117.42 7.31283 117.612 7.57715C117.73 7.7321 117.789 7.90527 117.789 8.09668C117.789 8.22428 117.762 8.361 117.707 8.50684C117.388 9.2998 117.229 10.1224 117.229 10.9746L117.236 12.5742C117.236 13.5632 117.206 14.5498 117.147 15.5342C117.051 16.6917 116.684 17.5667 116.046 18.1592C115.408 18.7516 114.538 19.0798 113.435 19.1436C113.212 19.1572 112.988 19.1641 112.765 19.1641ZM122.157 19.0068L120.1 18.9932C119.744 18.984 119.505 18.8792 119.382 18.6787C119.259 18.4782 119.197 18.2913 119.197 18.1182C119.197 17.9678 119.229 17.806 119.293 17.6328C119.516 17.054 119.655 16.4661 119.71 15.8691C119.769 15.1582 119.799 14.0234 119.799 12.4648C119.799 12.1048 119.797 11.7493 119.792 11.3984C119.788 10.9792 119.758 10.5394 119.703 10.0791C119.653 9.61426 119.576 9.25879 119.471 9.0127C119.27 8.62533 119.17 8.30632 119.17 8.05566C119.17 7.48145 119.521 7.19434 120.223 7.19434L122.978 7.1875C123.73 7.1875 124.479 7.19434 125.227 7.20801C126.289 7.22624 127.175 7.53158 127.886 8.12402C128.424 8.62077 128.695 9.05143 128.699 9.41602C128.704 9.7806 128.706 9.96517 128.706 9.96973C128.706 10.8402 128.348 11.6217 127.633 12.3145C127.496 12.4466 127.303 12.6152 127.052 12.8203C127.33 12.9479 127.576 13.0801 127.79 13.2168C128.483 13.6497 128.939 14.3311 129.157 15.2607C129.208 15.516 129.233 15.7598 129.233 15.9922C129.233 16.4479 129.132 16.849 128.932 17.1953C128.631 17.7194 128.205 18.1227 127.653 18.4053C127.107 18.6878 126.537 18.8496 125.944 18.8906C124.687 18.9681 123.424 19.0068 122.157 19.0068ZM123.969 16.9766C124.256 16.9766 124.548 16.9401 124.844 16.8672C125.177 16.7669 125.425 16.571 125.589 16.2793C125.758 15.9876 125.842 15.6777 125.842 15.3496C125.842 14.9577 125.723 14.6273 125.486 14.3584C125.245 14.1169 124.985 13.9733 124.707 13.9277C124.429 13.8822 124.185 13.8594 123.976 13.8594C123.848 13.8594 123.723 13.8662 123.6 13.8799C123.19 13.9027 122.969 14.167 122.937 14.6729V14.8574C122.937 15.3268 122.944 15.762 122.957 16.1631C122.998 16.6279 123.215 16.89 123.607 16.9492C123.711 16.9674 123.832 16.9766 123.969 16.9766ZM123.948 11.9863C124.322 11.9727 124.616 11.8952 124.83 11.7539C125.14 11.5215 125.327 11.2936 125.391 11.0703C125.455 10.847 125.486 10.6784 125.486 10.5645C125.486 10.3366 125.423 10.0996 125.295 9.85352C125.167 9.60286 124.978 9.41829 124.728 9.2998C124.504 9.19954 124.272 9.14941 124.03 9.14941C123.752 9.15853 123.545 9.18132 123.408 9.21777C123.258 9.27246 123.142 9.36816 123.06 9.50488C122.978 9.63704 122.934 9.78288 122.93 9.94238V10.25C122.93 10.8105 122.934 11.2161 122.944 11.4668C122.971 11.8132 123.272 11.9863 123.846 11.9863H123.948Z" fill="#1A1A1A" fill-opacity="0.95"/>
<path d="M18.2913 5.26356C18.6313 4.96788 19.1974 5.19504 19.1809 5.62046L18.9228 12.2517C18.9065 12.6698 18.3406 12.8651 18.0191 12.5635L14.475 9.23975C14.2743 9.05156 14.2807 8.75239 14.4892 8.57103L18.2913 5.26356Z" fill="#1A1A1A"/>
<path d="M22.2189 6.72012C22.5362 7.02643 22.3261 7.56593 21.8839 7.58065L20.2333 7.63556C19.9517 7.64493 19.7195 7.42004 19.7198 7.13838L19.7219 5.49191C19.7225 5.0502 20.2536 4.82274 20.5704 5.12856L22.2189 6.72012Z" fill="#1A1A1A"/>
<path d="M2.49744 7.9126C1.85177 7.31308 2.33405 6.30126 3.26517 6.30192L9.90186 6.30663C10.1911 6.30684 10.4663 6.41469 10.6625 6.60474L17.6641 13.3872C18.065 13.7756 18.0284 14.389 17.5831 14.7437L14.1767 17.457C13.7547 17.7931 13.1178 17.7738 12.7293 17.4131L2.49744 7.9126Z" fill="#1A1A1A"/>
<path d="M12.3453 18.1533C12.5778 18.3654 12.5588 18.7369 12.306 18.9243L9.5837 20.9418C9.23887 21.1974 8.75349 20.9283 8.78757 20.5004L9.12181 16.3035C9.15483 15.8889 9.65009 15.6935 9.95729 15.9739L12.3453 18.1533Z" fill="#1A1A1A"/>
</svg>
