<svg width="199" height="42" viewBox="0 0 199 42" fill="none" xmlns="http://www.w3.org/2000/svg">
<path d="M36.3157 8.35638C37.6753 7.17361 39.94 8.08229 39.8738 9.78401L39.5069 19.2106C39.4418 20.8831 37.1783 21.6642 35.8922 20.4579L30.8544 15.7331C30.0518 14.9803 30.0771 13.7836 30.911 13.0581L36.3157 8.35638Z" fill="url(#paint0_linear_315_193)"/>
<path d="M46.35 9.90033C46.9845 10.513 46.5644 11.5919 45.6799 11.6214L42.1003 11.7405C41.5372 11.7592 41.0727 11.3094 41.0734 10.7461L41.078 7.17524C41.0791 6.2918 42.1414 5.8369 42.7749 6.44856L46.35 9.90033Z" fill="url(#paint1_linear_315_193)"/>
<path d="M6.79453 13.7955C4.85756 11.9968 6.30435 8.96128 9.09762 8.96327L20.2107 8.97116C21.0785 8.97178 21.9041 9.29535 22.4927 9.86553L36.1246 23.0716C37.3273 24.2368 37.2175 26.0771 35.8816 27.1412L30.222 31.6495C28.9561 32.6578 27.0453 32.5999 25.8799 31.5177L6.79453 13.7955Z" fill="white"/>
<path d="M25.7534 33.6858C26.2183 34.1101 26.1803 34.8531 25.6747 35.2278L19.89 39.5152C19.2004 40.0263 18.2296 39.4881 18.2977 38.6324L19.008 29.7137C19.074 28.8845 20.0646 28.4937 20.679 29.0544L25.7534 33.6858Z" fill="url(#paint2_linear_315_193)"/>
<path d="M58.62 32C58.42 32 58.1933 32 57.94 32C57.7 32.0133 57.26 32.02 56.62 32.02C56.5267 32.02 56.46 31.9267 56.42 31.74C56.38 31.5533 56.4067 31.4333 56.5 31.38C56.86 31.1933 57.14 31.04 57.34 30.92C57.5533 30.8 57.7067 30.68 57.8 30.56C57.9067 30.44 57.9733 30.28 58 30.08C58.04 29.88 58.06 29.6 58.06 29.24V19.54C58.06 19.18 58.04 18.9067 58 18.72C57.9733 18.52 57.9067 18.36 57.8 18.24C57.7067 18.12 57.5533 18 57.34 17.88C57.14 17.76 56.86 17.6067 56.5 17.42C56.4067 17.3667 56.38 17.2467 56.42 17.06C56.46 16.8733 56.5267 16.78 56.62 16.78C57.26 16.78 57.7 16.7867 57.94 16.8C58.1933 16.8 58.42 16.8 58.62 16.8H62.2C63.5467 16.8 64.62 17.0133 65.42 17.44C66.22 17.8667 66.7933 18.42 67.14 19.1C67.5 19.7667 67.68 20.4733 67.68 21.22C67.68 22.18 67.4733 22.9867 67.06 23.64C66.6467 24.28 66.08 24.7867 65.36 25.16C64.64 25.52 63.82 25.7667 62.9 25.9C61.9933 26.0333 61.0467 26.0667 60.06 26V29.24C60.06 29.6 60.0733 29.88 60.1 30.08C60.14 30.28 60.2067 30.44 60.3 30.56C60.4067 30.68 60.56 30.8 60.76 30.92C60.9733 31.04 61.26 31.1933 61.62 31.38C61.7133 31.4333 61.74 31.5533 61.7 31.74C61.6733 31.9267 61.6067 32.02 61.5 32.02C60.86 32.02 60.4133 32.0133 60.16 32C59.92 32 59.7 32 59.5 32H58.62ZM60.06 24.6C60.7133 24.7733 61.36 24.8533 62 24.84C62.6533 24.8267 63.2467 24.7067 63.78 24.48C64.3267 24.24 64.76 23.8867 65.08 23.42C65.4133 22.94 65.58 22.3333 65.58 21.6C65.58 20.84 65.4267 20.2067 65.12 19.7C64.8133 19.18 64.3933 18.7867 63.86 18.52C63.34 18.24 62.7467 18.0733 62.08 18.02C61.4267 17.9533 60.7533 17.98 60.06 18.1V24.6ZM77.6566 32.2C75.7099 32.2 74.2032 31.6933 73.1366 30.68C72.0699 29.6667 71.5366 28.0733 71.5366 25.9V19.54C71.5366 19.18 71.5166 18.9067 71.4766 18.72C71.4499 18.52 71.3832 18.36 71.2766 18.24C71.1832 18.12 71.0299 18 70.8166 17.88C70.6166 17.76 70.3366 17.6067 69.9766 17.42C69.8832 17.3667 69.8566 17.2467 69.8966 17.06C69.9366 16.8733 70.0032 16.78 70.0966 16.78C70.7366 16.78 71.1766 16.7867 71.4166 16.8C71.6699 16.8 71.8966 16.8 72.0966 16.8H72.9766C73.1766 16.8 73.3966 16.8 73.6366 16.8C73.8899 16.7867 74.3366 16.78 74.9766 16.78C75.0832 16.78 75.1499 16.8733 75.1766 17.06C75.2166 17.2467 75.1899 17.3667 75.0966 17.42C74.7366 17.6067 74.4499 17.76 74.2366 17.88C74.0366 18 73.8832 18.12 73.7766 18.24C73.6832 18.36 73.6166 18.52 73.5766 18.72C73.5499 18.9067 73.5366 19.18 73.5366 19.54V26.08C73.5366 27 73.6632 27.7533 73.9166 28.34C74.1699 28.9267 74.5099 29.3867 74.9366 29.72C75.3766 30.04 75.8699 30.2667 76.4166 30.4C76.9766 30.5333 77.5499 30.6 78.1366 30.6C79.0032 30.6 79.7632 30.4267 80.4166 30.08C81.0832 29.7333 81.6032 29.2267 81.9766 28.56C82.3499 27.88 82.5366 27.06 82.5366 26.1V19.54C82.5366 19.18 82.5166 18.9067 82.4766 18.72C82.4499 18.52 82.3832 18.36 82.2766 18.24C82.1832 18.12 82.0299 18 81.8166 17.88C81.6166 17.76 81.3366 17.6067 80.9766 17.42C80.8832 17.3667 80.8566 17.2467 80.8966 17.06C80.9366 16.8733 81.0032 16.78 81.0966 16.78C81.7366 16.78 82.1766 16.7867 82.4166 16.8C82.6699 16.8 82.8966 16.8 83.0966 16.8H83.1766C83.3766 16.8 83.5966 16.8 83.8366 16.8C84.0899 16.7867 84.5366 16.78 85.1766 16.78C85.2832 16.78 85.3499 16.8733 85.3766 17.06C85.4166 17.2467 85.3899 17.3667 85.2966 17.42C84.9366 17.6067 84.6499 17.76 84.4366 17.88C84.2366 18 84.0832 18.12 83.9766 18.24C83.8832 18.36 83.8166 18.52 83.7766 18.72C83.7499 18.9067 83.7366 19.18 83.7366 19.54V26.1C83.7366 26.9133 83.6166 27.6867 83.3766 28.42C83.1499 29.1533 82.7899 29.8067 82.2966 30.38C81.8166 30.94 81.1899 31.3867 80.4166 31.72C79.6566 32.04 78.7366 32.2 77.6566 32.2ZM90.0263 32C89.8263 32 89.5996 32 89.3462 32C89.1063 32.0133 88.6663 32.02 88.0263 32.02C87.9329 32.02 87.8663 31.9267 87.8263 31.74C87.7863 31.5533 87.8129 31.4333 87.9063 31.38C88.2663 31.1933 88.5463 31.04 88.7463 30.92C88.9596 30.8 89.1129 30.68 89.2063 30.56C89.3129 30.44 89.3796 30.28 89.4063 30.08C89.4463 29.88 89.4663 29.6 89.4663 29.24V19.54C89.4663 19.18 89.4463 18.9067 89.4063 18.72C89.3796 18.52 89.3129 18.36 89.2063 18.24C89.1129 18.12 88.9596 18 88.7463 17.88C88.5463 17.76 88.2663 17.6067 87.9063 17.42C87.8129 17.3667 87.7863 17.2467 87.8263 17.06C87.8663 16.8733 87.9329 16.78 88.0263 16.78C88.6663 16.78 89.1063 16.7867 89.3462 16.8C89.5996 16.8 89.8263 16.8 90.0263 16.8H95.7663L98.5663 16.62L98.7863 16.8L99.2863 20.2C99.3263 20.2933 99.2996 20.38 99.2063 20.46C99.1129 20.54 98.9996 20.5867 98.8663 20.6C98.7463 20.6133 98.6663 20.5733 98.6263 20.48C98.2929 19.9333 98.0129 19.4933 97.7863 19.16C97.5596 18.8133 97.3129 18.5533 97.0463 18.38C96.7929 18.1933 96.4596 18.0733 96.0463 18.02C95.6329 17.9533 95.0729 17.92 94.3663 17.92C93.5263 17.92 92.8996 17.9467 92.4863 18C92.0729 18.04 91.7996 18.1533 91.6663 18.34C91.5329 18.5133 91.4663 18.8 91.4663 19.2V23.8H94.3463C94.7863 23.8 95.0996 23.7733 95.2863 23.72C95.4729 23.6667 95.6263 23.54 95.7463 23.34C95.8796 23.14 96.0596 22.8333 96.2863 22.42C96.3263 22.3533 96.4329 22.3333 96.6063 22.36C96.7796 22.3867 96.8663 22.4467 96.8663 22.54C96.8663 22.9 96.8596 23.24 96.8463 23.56C96.8463 23.88 96.8463 24.14 96.8463 24.34C96.8463 24.5533 96.8463 24.82 96.8463 25.14C96.8596 25.46 96.8663 25.8 96.8663 26.16C96.8663 26.2533 96.7796 26.3133 96.6063 26.34C96.4329 26.3667 96.3263 26.3467 96.2863 26.28C96.0596 25.8533 95.8796 25.5467 95.7463 25.36C95.6263 25.16 95.4729 25.0333 95.2863 24.98C95.0996 24.9267 94.7863 24.9 94.3463 24.9H91.4663V29.24C91.4663 29.6 91.4796 29.88 91.5063 30.08C91.5463 30.28 91.6129 30.44 91.7063 30.56C91.8129 30.68 91.9663 30.8 92.1663 30.92C92.3796 31.04 92.6663 31.1933 93.0263 31.38C93.1196 31.4333 93.1463 31.5533 93.1063 31.74C93.0796 31.9267 93.0129 32.02 92.9063 32.02C92.2663 32.02 91.8196 32.0133 91.5663 32C91.3263 32 91.1063 32 90.9063 32H90.0263ZM103.327 32C103.127 32 102.9 32 102.647 32C102.407 32.0133 101.967 32.02 101.327 32.02C101.234 32.02 101.167 31.9267 101.127 31.74C101.087 31.5533 101.114 31.4333 101.207 31.38C101.567 31.1933 101.847 31.04 102.047 30.92C102.26 30.8 102.414 30.68 102.507 30.56C102.614 30.44 102.68 30.28 102.707 30.08C102.747 29.88 102.767 29.6 102.767 29.24V19.54C102.767 19.18 102.747 18.9067 102.707 18.72C102.68 18.52 102.614 18.36 102.507 18.24C102.414 18.12 102.26 18 102.047 17.88C101.847 17.76 101.567 17.6067 101.207 17.42C101.114 17.3667 101.087 17.2467 101.127 17.06C101.167 16.8733 101.234 16.78 101.327 16.78C101.967 16.78 102.407 16.7867 102.647 16.8C102.9 16.8 103.127 16.8 103.327 16.8H109.067L111.867 16.62L112.087 16.8L112.587 20.2C112.627 20.2933 112.6 20.38 112.507 20.46C112.414 20.54 112.3 20.5867 112.167 20.6C112.047 20.6133 111.967 20.5733 111.927 20.48C111.594 19.9333 111.314 19.4933 111.087 19.16C110.86 18.8133 110.614 18.5533 110.347 18.38C110.094 18.1933 109.76 18.0733 109.347 18.02C108.934 17.9533 108.374 17.92 107.667 17.92C106.827 17.92 106.2 17.9467 105.787 18C105.374 18.04 105.1 18.1533 104.967 18.34C104.834 18.5133 104.767 18.8 104.767 19.2V23.8H107.647C108.087 23.8 108.4 23.7733 108.587 23.72C108.774 23.6667 108.927 23.54 109.047 23.34C109.18 23.14 109.36 22.8333 109.587 22.42C109.627 22.3533 109.734 22.3333 109.907 22.36C110.08 22.3867 110.167 22.4467 110.167 22.54C110.167 22.9 110.16 23.24 110.147 23.56C110.147 23.88 110.147 24.14 110.147 24.34C110.147 24.5533 110.147 24.82 110.147 25.14C110.16 25.46 110.167 25.8 110.167 26.16C110.167 26.2533 110.08 26.3133 109.907 26.34C109.734 26.3667 109.627 26.3467 109.587 26.28C109.36 25.8533 109.18 25.5467 109.047 25.36C108.927 25.16 108.774 25.0333 108.587 24.98C108.4 24.9267 108.087 24.9 107.647 24.9H104.767V29.24C104.767 29.6 104.78 29.88 104.807 30.08C104.847 30.28 104.914 30.44 105.007 30.56C105.114 30.68 105.267 30.8 105.467 30.92C105.68 31.04 105.967 31.1933 106.327 31.38C106.42 31.4333 106.447 31.5533 106.407 31.74C106.38 31.9267 106.314 32.02 106.207 32.02C105.567 32.02 105.12 32.0133 104.867 32C104.627 32 104.407 32 104.207 32H103.327ZM126.688 19.54C126.688 19.18 126.668 18.9067 126.628 18.72C126.588 18.52 126.514 18.36 126.408 18.24C126.314 18.12 126.161 18 125.948 17.88C125.734 17.76 125.448 17.6067 125.088 17.42C125.008 17.3667 124.981 17.2467 125.008 17.06C125.048 16.8733 125.121 16.78 125.228 16.78C125.868 16.78 126.308 16.7867 126.548 16.8C126.801 16.8 127.028 16.8 127.228 16.8H127.488C127.688 16.8 127.908 16.8 128.148 16.8C128.401 16.7867 128.848 16.78 129.488 16.78C129.594 16.78 129.661 16.8733 129.688 17.06C129.728 17.2467 129.701 17.3667 129.608 17.42C129.248 17.6067 128.961 17.76 128.748 17.88C128.548 18 128.394 18.12 128.288 18.24C128.194 18.36 128.128 18.52 128.088 18.72C128.061 18.9067 128.048 19.18 128.048 19.54V28.8L128.148 32C128.161 32.0933 128.068 32.1733 127.868 32.24C127.681 32.3067 127.481 32.34 127.268 32.34C127.068 32.34 126.961 32.2933 126.948 32.2L117.268 20L117.428 29.26C117.428 29.62 117.448 29.9 117.488 30.1C117.528 30.2867 117.594 30.44 117.688 30.56C117.794 30.68 117.954 30.8 118.168 30.92C118.381 31.04 118.668 31.1933 119.028 31.38C119.108 31.4333 119.128 31.5533 119.088 31.74C119.061 31.9267 118.994 32.02 118.888 32.02C118.248 32.02 117.801 32.0133 117.548 32C117.308 32 117.088 32 116.888 32H116.628C116.428 32 116.201 32 115.948 32C115.708 32.0133 115.268 32.02 114.628 32.02C114.534 32.02 114.468 31.9267 114.428 31.74C114.388 31.5533 114.414 31.4333 114.508 31.38C114.868 31.1933 115.148 31.04 115.348 30.92C115.561 30.8 115.714 30.68 115.808 30.56C115.914 30.44 115.981 30.28 116.008 30.08C116.048 29.88 116.068 29.6 116.068 29.24V19.54C116.068 19.18 116.048 18.9067 116.008 18.72C115.981 18.52 115.914 18.36 115.808 18.24C115.714 18.12 115.561 18 115.348 17.88C115.148 17.76 114.868 17.6067 114.508 17.42C114.414 17.3667 114.388 17.2467 114.428 17.06C114.468 16.8733 114.534 16.78 114.628 16.78C115.268 16.78 115.708 16.7867 115.948 16.8C116.201 16.8 116.428 16.8 116.628 16.8H117.268L126.848 28.6L126.688 19.54ZM151.02 20.8C150.513 20.0133 150.026 19.4 149.56 18.96C149.106 18.52 148.633 18.2133 148.14 18.04C147.646 17.8533 147.08 17.76 146.44 17.76C145.76 17.76 145.086 17.8867 144.42 18.14C143.766 18.3933 143.166 18.7733 142.62 19.28C142.086 19.7867 141.66 20.4133 141.34 21.16C141.02 21.8933 140.86 22.7467 140.86 23.72C140.86 24.8 141.02 25.7733 141.34 26.64C141.66 27.4933 142.093 28.22 142.64 28.82C143.2 29.42 143.833 29.88 144.54 30.2C145.246 30.52 145.993 30.68 146.78 30.68C147.593 30.68 148.413 30.5 149.24 30.14C150.08 29.7667 150.873 29.1933 151.62 28.42C151.686 28.34 151.786 28.3467 151.92 28.44C152.066 28.5333 152.186 28.6467 152.28 28.78C152.373 28.9133 152.386 29.02 152.32 29.1C151.453 30.1 150.493 30.8667 149.44 31.4C148.386 31.92 147.213 32.18 145.92 32.18C145.04 32.18 144.173 32.0133 143.32 31.68C142.466 31.3333 141.693 30.8333 141 30.18C140.306 29.5133 139.753 28.7067 139.34 27.76C138.926 26.8 138.72 25.7133 138.72 24.5C138.72 23.3133 138.94 22.2333 139.38 21.26C139.833 20.2867 140.446 19.4467 141.22 18.74C141.993 18.0333 142.88 17.4867 143.88 17.1C144.893 16.7133 145.96 16.52 147.08 16.52C147.746 16.52 148.42 16.5933 149.1 16.74C149.78 16.8733 150.453 17.0933 151.12 17.4L151.82 20.6C151.846 20.6933 151.793 20.7733 151.66 20.84C151.54 20.9067 151.406 20.94 151.26 20.94C151.126 20.94 151.046 20.8933 151.02 20.8ZM156.784 32.02C156.584 32.02 156.357 32.02 156.104 32.02C155.864 32.0333 155.424 32.04 154.784 32.04C154.691 32.04 154.624 31.9467 154.584 31.76C154.544 31.5733 154.571 31.4533 154.664 31.4C155.024 31.2133 155.304 31.06 155.504 30.94C155.717 30.82 155.871 30.7 155.964 30.58C156.071 30.46 156.137 30.3 156.164 30.1C156.204 29.9 156.224 29.62 156.224 29.26V19.54C156.224 19.18 156.204 18.9067 156.164 18.72C156.137 18.52 156.071 18.36 155.964 18.24C155.871 18.12 155.717 18 155.504 17.88C155.304 17.76 155.024 17.6067 154.664 17.42C154.571 17.3667 154.544 17.2467 154.584 17.06C154.624 16.8733 154.691 16.78 154.784 16.78C155.424 16.78 155.864 16.7867 156.104 16.8C156.357 16.8 156.584 16.8 156.784 16.8H157.604C157.751 16.8 157.904 16.8 158.064 16.8C158.224 16.7867 158.437 16.78 158.704 16.78C158.984 16.78 159.364 16.78 159.844 16.78C159.964 16.78 160.044 16.8733 160.084 17.06C160.124 17.2467 160.091 17.3667 159.984 17.42C159.584 17.6067 159.264 17.76 159.024 17.88C158.797 18 158.624 18.12 158.504 18.24C158.384 18.36 158.304 18.52 158.264 18.72C158.237 18.9067 158.224 19.18 158.224 19.54V29.62C158.224 30.0067 158.291 30.2933 158.424 30.48C158.557 30.6667 158.831 30.7867 159.244 30.84C159.657 30.88 160.284 30.9 161.124 30.9C161.737 30.9 162.231 30.86 162.604 30.78C162.991 30.7 163.311 30.56 163.564 30.36C163.831 30.1467 164.084 29.86 164.324 29.5C164.564 29.14 164.851 28.6867 165.184 28.14C165.224 28.0467 165.304 28.0067 165.424 28.02C165.557 28.0333 165.671 28.08 165.764 28.16C165.857 28.24 165.884 28.3267 165.844 28.42L165.164 31.82L164.924 32.02H156.784ZM175.45 32.2C173.503 32.2 171.996 31.6933 170.93 30.68C169.863 29.6667 169.33 28.0733 169.33 25.9V19.54C169.33 19.18 169.31 18.9067 169.27 18.72C169.243 18.52 169.176 18.36 169.07 18.24C168.976 18.12 168.823 18 168.61 17.88C168.41 17.76 168.13 17.6067 167.77 17.42C167.676 17.3667 167.65 17.2467 167.69 17.06C167.73 16.8733 167.796 16.78 167.89 16.78C168.53 16.78 168.97 16.7867 169.21 16.8C169.463 16.8 169.69 16.8 169.89 16.8H170.77C170.97 16.8 171.19 16.8 171.43 16.8C171.683 16.7867 172.13 16.78 172.77 16.78C172.876 16.78 172.943 16.8733 172.97 17.06C173.01 17.2467 172.983 17.3667 172.89 17.42C172.53 17.6067 172.243 17.76 172.03 17.88C171.83 18 171.676 18.12 171.57 18.24C171.476 18.36 171.41 18.52 171.37 18.72C171.343 18.9067 171.33 19.18 171.33 19.54V26.08C171.33 27 171.456 27.7533 171.71 28.34C171.963 28.9267 172.303 29.3867 172.73 29.72C173.17 30.04 173.663 30.2667 174.21 30.4C174.77 30.5333 175.343 30.6 175.93 30.6C176.796 30.6 177.556 30.4267 178.21 30.08C178.876 29.7333 179.396 29.2267 179.77 28.56C180.143 27.88 180.33 27.06 180.33 26.1V19.54C180.33 19.18 180.31 18.9067 180.27 18.72C180.243 18.52 180.176 18.36 180.07 18.24C179.976 18.12 179.823 18 179.61 17.88C179.41 17.76 179.13 17.6067 178.77 17.42C178.676 17.3667 178.65 17.2467 178.69 17.06C178.73 16.8733 178.796 16.78 178.89 16.78C179.53 16.78 179.97 16.7867 180.21 16.8C180.463 16.8 180.69 16.8 180.89 16.8H180.97C181.17 16.8 181.39 16.8 181.63 16.8C181.883 16.7867 182.33 16.78 182.97 16.78C183.076 16.78 183.143 16.8733 183.17 17.06C183.21 17.2467 183.183 17.3667 183.09 17.42C182.73 17.6067 182.443 17.76 182.23 17.88C182.03 18 181.876 18.12 181.77 18.24C181.676 18.36 181.61 18.52 181.57 18.72C181.543 18.9067 181.53 19.18 181.53 19.54V26.1C181.53 26.9133 181.41 27.6867 181.17 28.42C180.943 29.1533 180.583 29.8067 180.09 30.38C179.61 30.94 178.983 31.3867 178.21 31.72C177.45 32.04 176.53 32.2 175.45 32.2ZM187.259 19.54C187.259 19.18 187.239 18.9067 187.199 18.72C187.173 18.52 187.106 18.36 186.999 18.24C186.906 18.12 186.753 18 186.539 17.88C186.339 17.76 186.059 17.6067 185.699 17.42C185.606 17.3667 185.579 17.2467 185.619 17.06C185.659 16.8733 185.726 16.78 185.819 16.78C186.459 16.78 186.899 16.7867 187.139 16.8C187.393 16.8 187.619 16.8 187.819 16.8H191.199C192.279 16.8 193.166 16.9867 193.859 17.36C194.566 17.7333 195.093 18.2133 195.439 18.8C195.786 19.3867 195.959 20 195.959 20.64C195.959 21.3333 195.753 21.9867 195.339 22.6C194.939 23.2 194.339 23.64 193.539 23.92C194.593 24.2267 195.379 24.7467 195.899 25.48C196.419 26.2133 196.679 26.9867 196.679 27.8C196.679 28.4933 196.486 29.1667 196.099 29.82C195.726 30.46 195.166 30.9867 194.419 31.4C193.673 31.8 192.733 32 191.599 32H187.819C187.619 32 187.393 32 187.139 32C186.899 32.0133 186.459 32.02 185.819 32.02C185.726 32.02 185.659 31.9267 185.619 31.74C185.579 31.5533 185.606 31.4333 185.699 31.38C186.059 31.1933 186.339 31.04 186.539 30.92C186.753 30.8 186.906 30.68 186.999 30.56C187.106 30.44 187.173 30.28 187.199 30.08C187.239 29.88 187.259 29.6 187.259 29.24V19.54ZM189.259 23.62C189.806 23.66 190.353 23.66 190.899 23.62C191.459 23.5667 191.973 23.4533 192.439 23.28C192.906 23.0933 193.279 22.82 193.559 22.46C193.839 22.0867 193.979 21.6 193.979 21C193.979 20.32 193.819 19.7533 193.499 19.3C193.179 18.8467 192.746 18.5133 192.199 18.3C191.653 18.0733 191.046 17.96 190.379 17.96C190.206 17.96 190.019 17.9733 189.819 18C189.633 18.0133 189.446 18.0333 189.259 18.06V23.62ZM189.259 30.7C189.779 30.78 190.273 30.82 190.739 30.82C191.859 30.82 192.779 30.5733 193.499 30.08C194.219 29.5733 194.579 28.8133 194.579 27.8C194.579 27.04 194.393 26.4333 194.019 25.98C193.659 25.5267 193.193 25.2 192.619 25C192.046 24.8 191.439 24.7 190.799 24.7C190.479 24.7 190.199 24.7067 189.959 24.72C189.719 24.7333 189.486 24.76 189.259 24.8V30.7Z" fill="white"/>
<defs>
<linearGradient id="paint0_linear_315_193" x1="36.7384" y1="11.3044" x2="37.7629" y2="11.6901" gradientUnits="userSpaceOnUse">
<stop stop-color="white"/>
<stop offset="1" stop-color="#E3E3E3"/>
</linearGradient>
<linearGradient id="paint1_linear_315_193" x1="43.333" y1="9.41997" x2="43.153" y2="10.74" gradientUnits="userSpaceOnUse">
<stop stop-color="white"/>
<stop offset="1" stop-color="#E3E3E3"/>
</linearGradient>
<linearGradient id="paint2_linear_315_193" x1="21.4775" y1="34.478" x2="22.6722" y2="35.5461" gradientUnits="userSpaceOnUse">
<stop stop-color="white"/>
<stop offset="1" stop-color="#E3E3E3"/>
</linearGradient>
</defs>
</svg>
