<svg width="176" height="33" viewBox="0 0 176 33" fill="none" xmlns="http://www.w3.org/2000/svg">
<path d="M43.3047 27.0005C42.8887 27.0005 42.4697 26.9917 42.0479 26.9741H41.9688C41.377 26.9741 40.9932 26.8452 40.8174 26.5874C40.7412 26.4761 40.7031 26.3208 40.7031 26.1216C40.7031 25.8345 40.7852 25.4565 40.9492 24.9878C41.2188 24.1675 41.374 23.3267 41.415 22.4653C41.4326 21.6392 41.4473 20.3384 41.459 18.563C41.459 17.7251 41.4531 17.063 41.4414 16.5767C41.3828 15.3989 41.251 14.5815 41.0459 14.1245C40.8525 13.7144 40.7559 13.3511 40.7559 13.0347C40.7559 12.8882 40.7734 12.7446 40.8086 12.604C40.9258 12.2407 41.1396 12.021 41.4502 11.9448C41.7607 11.8628 42.0771 11.8218 42.3994 11.8218H42.6807C43.4072 11.7983 44.6611 11.7866 46.4424 11.7866C47.2393 11.7866 47.7812 11.7925 48.0684 11.8042C48.7949 11.8569 49.4922 12.0151 50.1602 12.2788C50.8281 12.5425 51.4053 12.9175 51.8916 13.4038C52.3838 13.8843 52.7266 14.479 52.9199 15.188C53.0957 15.8384 53.1836 16.4771 53.1836 17.104C53.1836 17.4673 53.1279 17.9771 53.0166 18.6333C52.9053 19.2837 52.4541 20.0044 51.6631 20.7954C50.7197 21.7388 49.4893 22.2104 47.9717 22.2104C47.5791 22.2104 47.1719 22.1753 46.75 22.105C46.4922 22.064 46.29 22.0435 46.1436 22.0435H45.9854C45.9033 22.0435 45.8271 22.0903 45.7568 22.1841C45.6631 22.3423 45.6162 22.5063 45.6162 22.6763C45.6162 22.7524 45.625 22.8315 45.6426 22.9136C45.7891 23.5581 45.9971 24.1206 46.2666 24.6011C46.5361 25.0815 46.6709 25.4917 46.6709 25.8315C46.6709 26.0015 46.6211 26.2095 46.5215 26.4556C46.4219 26.6958 46.1377 26.8452 45.6689 26.9038C44.8838 26.9683 44.0957 27.0005 43.3047 27.0005ZM46.5918 19.8286C46.7969 19.8286 46.9844 19.8022 47.1543 19.7495C47.9336 19.4565 48.4814 18.9233 48.7979 18.1499C48.9033 17.8687 48.9561 17.5757 48.9561 17.271C48.9561 16.6968 48.8008 16.1489 48.4902 15.6274C48.1797 15.106 47.7314 14.7339 47.1455 14.5112C46.917 14.4292 46.7031 14.3882 46.5039 14.3882C45.7715 14.3882 45.3877 14.7661 45.3525 15.522L45.3701 17.7983C45.3701 18.2847 45.3672 18.6479 45.3613 18.8882C45.3613 19.187 45.4639 19.4097 45.6689 19.5562C45.9092 19.7378 46.2168 19.8286 46.5918 19.8286ZM61.7652 27.2114C61.4781 27.2114 61.1178 27.1938 60.6842 27.1587C60.2564 27.1294 59.7613 27.0269 59.1988 26.8511C58.273 26.5581 57.5494 26.0806 57.0279 25.4185C56.5123 24.7563 56.1988 23.8716 56.0875 22.7642C56.0172 22.0962 55.9762 21.2495 55.9645 20.2241C55.9527 18.5073 55.9381 17.2915 55.9205 16.5767C55.9029 15.8618 55.8443 15.3286 55.7447 14.9771C55.651 14.6548 55.5484 14.3706 55.4371 14.1245C55.2379 13.6792 55.1383 13.3335 55.1383 13.0874C55.1383 12.5542 55.3961 12.1763 55.9117 11.9536L55.9469 11.936V11.9448C56.1637 11.8628 56.4215 11.8218 56.7203 11.8218H59.6207C60.1246 11.8452 60.485 12.021 60.7018 12.3491C60.8482 12.5659 60.9215 12.8091 60.9215 13.0786C60.9215 13.3306 60.8307 13.6763 60.649 14.1157C60.5436 14.3618 60.4469 14.646 60.359 14.9683C60.2711 15.2905 60.2213 15.7007 60.2096 16.1987C60.1861 18.1558 60.1744 19.3394 60.1744 19.7495C60.1744 20.5112 60.192 21.1704 60.2271 21.7271C60.2799 22.6001 60.6461 23.2915 61.3258 23.8013C61.6598 24.0298 62.0377 24.144 62.4596 24.144H62.8199C63.0426 24.144 63.3238 24.0005 63.6637 23.7134C64.0094 23.4204 64.2086 22.9604 64.2613 22.3335C64.3082 21.3374 64.3316 20.3384 64.3316 19.3364L64.3229 16.8755C64.3287 16.6646 64.3316 16.4507 64.3316 16.2339C64.3316 15.853 64.317 15.5249 64.2877 15.2495C64.235 14.7573 64.1119 14.2974 63.9186 13.8696C63.7428 13.5239 63.652 13.1577 63.6461 12.771C63.6695 12.4839 63.7691 12.2524 63.9449 12.0767C64.1266 11.895 64.3609 11.8042 64.648 11.8042H66.8629C67.3727 11.8042 67.7506 11.9741 67.9967 12.314C68.149 12.5132 68.2252 12.7358 68.2252 12.9819C68.2252 13.146 68.19 13.3218 68.1197 13.5093C67.7096 14.5288 67.5045 15.5864 67.5045 16.6821L67.5133 18.7388C67.5133 20.0103 67.4752 21.2788 67.399 22.5444C67.276 24.0327 66.8043 25.1577 65.984 25.9194C65.1637 26.6812 64.0445 27.103 62.6266 27.1851C62.3395 27.2026 62.0523 27.2114 61.7652 27.2114ZM75.2424 26.9829H71.4982C71.1291 26.9653 70.8566 26.8188 70.6809 26.5435C70.5871 26.397 70.5402 26.2388 70.5402 26.0688C70.5402 25.9106 70.5783 25.7437 70.6545 25.5679C70.965 24.894 71.176 24.2114 71.2873 23.52C71.3986 22.8286 71.4572 22.1284 71.4631 21.4194C71.4748 21.3667 71.4807 21.1675 71.4807 20.8218V16.603C71.4104 15.4253 71.2785 14.6079 71.0852 14.1509C70.8273 13.6528 70.6984 13.2456 70.6984 12.9292C70.6984 12.7476 70.7365 12.5718 70.8127 12.4019C71.0119 12.0151 71.4104 11.8218 72.008 11.8218L75.0754 11.813C77.1203 11.813 78.3947 11.8159 78.8986 11.8218H79.9621C80.4777 11.8218 80.8879 11.9155 81.1926 12.103C81.5031 12.2847 81.758 12.6011 81.9572 13.0522C82.1564 13.5034 82.2561 13.9956 82.2561 14.5288C82.2561 15.0269 82.1682 15.4282 81.9924 15.7329C81.7639 16.1079 81.4416 16.2954 81.0256 16.2954C80.715 16.2954 80.425 16.1958 80.1555 15.9966C79.9445 15.8501 79.7482 15.686 79.5666 15.5044L79.2238 15.2056C78.5148 14.6196 77.7912 14.3267 77.0529 14.3267C76.133 14.356 75.6467 14.9243 75.5939 16.0317C75.5881 16.231 75.5852 16.4331 75.5852 16.6382L75.5939 17.2446C75.5998 17.9126 75.8459 18.2466 76.3322 18.2466C76.5783 18.2466 76.9855 18.1265 77.5539 17.8862C78.0578 17.6636 78.4592 17.5522 78.758 17.5522C79.4611 17.5522 79.9123 17.8804 80.1115 18.5366C80.176 18.7593 80.2082 18.979 80.2082 19.1958C80.2082 19.5005 80.1437 19.8022 80.0148 20.1011C79.8449 20.4644 79.5754 20.7163 79.2062 20.8569C79.0598 20.9038 78.9045 20.9272 78.7404 20.9272C78.301 20.9272 77.8146 20.8159 77.2814 20.5933C76.9885 20.4702 76.801 20.4087 76.7189 20.4087C76.5373 20.3501 76.3674 20.3208 76.2092 20.3208C76.0861 20.3208 75.9719 20.3618 75.8664 20.4438C75.7375 20.5552 75.6584 20.6929 75.6291 20.8569C75.6057 20.9741 75.5881 21.3726 75.5764 22.0522C75.6115 22.6616 75.802 23.3618 76.1477 24.1528C76.1594 24.1938 76.174 24.2319 76.1916 24.2671C76.4494 24.8999 76.5783 25.354 76.5783 25.6294C76.5783 25.9106 76.4729 26.2007 76.2619 26.4995C76.0568 26.7925 75.717 26.9536 75.2424 26.9829ZM89.0447 26.9829H85.3006C84.9314 26.9653 84.659 26.8188 84.4832 26.5435C84.3895 26.397 84.3426 26.2388 84.3426 26.0688C84.3426 25.9106 84.3807 25.7437 84.4568 25.5679C84.7674 24.894 84.9783 24.2114 85.0896 23.52C85.201 22.8286 85.2596 22.1284 85.2654 21.4194C85.2771 21.3667 85.283 21.1675 85.283 20.8218V16.603C85.2127 15.4253 85.0809 14.6079 84.8875 14.1509C84.6297 13.6528 84.5008 13.2456 84.5008 12.9292C84.5008 12.7476 84.5389 12.5718 84.615 12.4019C84.8143 12.0151 85.2127 11.8218 85.8104 11.8218L88.8777 11.813C90.9227 11.813 92.1971 11.8159 92.701 11.8218H93.7645C94.2801 11.8218 94.6902 11.9155 94.9949 12.103C95.3055 12.2847 95.5604 12.6011 95.7596 13.0522C95.9588 13.5034 96.0584 13.9956 96.0584 14.5288C96.0584 15.0269 95.9705 15.4282 95.7947 15.7329C95.5662 16.1079 95.2439 16.2954 94.8279 16.2954C94.5174 16.2954 94.2273 16.1958 93.9578 15.9966C93.7469 15.8501 93.5506 15.686 93.3689 15.5044L93.0262 15.2056C92.3172 14.6196 91.5936 14.3267 90.8553 14.3267C89.9354 14.356 89.449 14.9243 89.3963 16.0317C89.3904 16.231 89.3875 16.4331 89.3875 16.6382L89.3963 17.2446C89.4021 17.9126 89.6482 18.2466 90.1346 18.2466C90.3807 18.2466 90.7879 18.1265 91.3563 17.8862C91.8602 17.6636 92.2615 17.5522 92.5604 17.5522C93.2635 17.5522 93.7146 17.8804 93.9139 18.5366C93.9783 18.7593 94.0105 18.979 94.0105 19.1958C94.0105 19.5005 93.9461 19.8022 93.8172 20.1011C93.6473 20.4644 93.3777 20.7163 93.0086 20.8569C92.8621 20.9038 92.7068 20.9272 92.5428 20.9272C92.1033 20.9272 91.617 20.8159 91.0838 20.5933C90.7908 20.4702 90.6033 20.4087 90.5213 20.4087C90.3396 20.3501 90.1697 20.3208 90.0115 20.3208C89.8885 20.3208 89.7742 20.3618 89.6688 20.4438C89.5398 20.5552 89.4607 20.6929 89.4314 20.8569C89.408 20.9741 89.3904 21.3726 89.3787 22.0522C89.4139 22.6616 89.6043 23.3618 89.95 24.1528C89.9617 24.1938 89.9764 24.2319 89.9939 24.2671C90.2518 24.8999 90.3807 25.354 90.3807 25.6294C90.3807 25.9106 90.2752 26.2007 90.0643 26.4995C89.8592 26.7925 89.5193 26.9536 89.0447 26.9829ZM108.78 27.0005C107.373 27.0005 106.398 26.3296 105.853 24.9878C105.443 24.0503 104.892 22.8784 104.201 21.4722C102.765 18.5718 102.021 17.1216 101.968 17.1216C101.933 17.1216 101.915 17.1479 101.915 17.2007C101.968 20.5288 102.038 22.5474 102.126 23.2563C102.173 23.6782 102.285 24.0884 102.46 24.4868L102.636 24.8296C102.894 25.2866 103.023 25.6558 103.023 25.937C103.023 26.3765 102.844 26.6753 102.487 26.8335C102.246 26.9448 102 27.0005 101.748 27.0005H99.3754C99.0297 27.0005 98.7543 26.9185 98.5492 26.7544C98.2797 26.5435 98.1449 26.271 98.1449 25.937C98.1449 25.7495 98.1889 25.5562 98.2768 25.3569C98.6693 24.5308 98.9096 23.6841 98.9975 22.8169C99.0678 22.1021 99.1029 21.3843 99.1029 20.6636L99.0941 20.1978C99.0941 19.9458 99.0971 19.6968 99.1029 19.4507L99.1117 18.062C99.1117 17.23 99.0912 16.3979 99.0502 15.5659C98.9799 14.8218 98.8217 14.0894 98.5756 13.3687C98.517 13.1753 98.4877 12.9966 98.4877 12.8325C98.4877 12.1763 98.8656 11.8335 99.6215 11.8042H102.39C103.421 11.8101 104.157 12.3022 104.596 13.2808C105.053 14.23 105.645 15.4106 106.371 16.8228C107.309 18.6509 107.907 19.8491 108.164 20.4175C108.2 20.5054 108.235 20.5493 108.27 20.5493C108.305 20.5493 108.323 20.4937 108.323 20.3823C108.323 17.98 108.27 16.3687 108.164 15.5483C108.088 14.9741 107.907 14.4497 107.62 13.9751C107.356 13.5122 107.224 13.1489 107.224 12.8853C107.224 12.4692 107.382 12.1763 107.699 12.0063C107.816 11.8716 108.068 11.8042 108.454 11.8042H111.003C111.367 11.8042 111.657 11.8833 111.873 12.0415C112.149 12.2524 112.287 12.5278 112.287 12.8677C112.287 13.0552 112.24 13.2485 112.146 13.4478C111.665 14.397 111.393 15.5161 111.329 16.8052C111.317 17.2153 111.308 18.3813 111.302 20.3032C111.279 20.9888 111.267 21.6743 111.267 22.3599C111.267 22.6763 111.282 23.479 111.311 24.7681C111.311 25.2837 111.249 25.7144 111.126 26.0601C111.009 26.3999 110.763 26.6431 110.388 26.7896C110.019 26.9302 109.483 27.0005 108.78 27.0005Z" fill="white"/>
<path d="M127.787 27.229H127.515C125.839 27.229 124.412 26.8247 123.234 26.0161C121.453 24.7622 120.501 23.0571 120.378 20.9009C120.36 20.6255 120.352 20.3501 120.352 20.0747C120.352 18.1997 120.747 16.5151 121.538 15.021C122.792 12.7183 124.998 11.5669 128.156 11.5669C128.795 11.5669 129.422 11.6548 130.037 11.8306C131.42 12.229 132.398 12.9702 132.973 14.0542C133.189 14.4995 133.298 14.9302 133.298 15.3462C133.298 16.1841 132.914 16.8608 132.146 17.3765C131.777 17.5933 131.408 17.7017 131.039 17.7017C130.84 17.7017 130.638 17.6694 130.433 17.605C129.858 17.4233 129.442 17.0337 129.185 16.436C129.126 16.2603 129.073 16.0845 129.026 15.9087C128.815 15.0708 128.514 14.5845 128.121 14.4497C127.799 14.3384 127.559 14.2827 127.4 14.2827C127.049 14.2827 126.68 14.4116 126.293 14.6694C126.117 14.7749 125.936 14.9331 125.748 15.144C125.021 15.9819 124.658 17.1187 124.658 18.5542C124.658 19.5034 124.849 20.438 125.229 21.3579C125.563 22.1255 125.994 22.6704 126.521 22.9927C127.055 23.3149 127.591 23.4761 128.13 23.4761C129.179 23.4761 130.175 22.9253 131.118 21.8237C131.382 21.5308 131.587 21.3726 131.733 21.3491C131.886 21.3198 131.988 21.3052 132.041 21.3052C132.229 21.3052 132.413 21.3638 132.595 21.481C132.964 21.7153 133.148 22.1519 133.148 22.7905V22.8433C133.072 24.0972 132.369 25.2573 131.039 26.3237C130.189 26.9272 129.105 27.229 127.787 27.229ZM142.965 27.0005C140.335 27.0005 138.832 26.9976 138.457 26.9917H136.172C135.615 26.98 135.237 26.8188 135.038 26.5083C134.944 26.3735 134.897 26.2183 134.897 26.0425C134.897 25.8257 134.97 25.5796 135.117 25.3042C135.334 24.894 135.468 24.481 135.521 24.0649C135.568 23.6841 135.594 23.1099 135.6 22.3423C135.665 20.1392 135.697 18.4341 135.697 17.2271C135.679 15.7329 135.545 14.7046 135.293 14.1421C135.158 13.8784 135.049 13.5913 134.967 13.2808C134.932 13.1519 134.915 13.0259 134.915 12.9028C134.915 12.7329 134.95 12.563 135.02 12.3931C135.178 12.1177 135.413 11.9478 135.723 11.8833C135.905 11.8423 136.087 11.8188 136.268 11.813L137.78 11.8042L139.292 11.813C139.473 11.8188 139.652 11.8423 139.828 11.8833C140.138 11.9478 140.373 12.1177 140.531 12.3931C140.607 12.563 140.645 12.7388 140.645 12.9204C140.645 13.2368 140.516 13.644 140.258 14.1421C140.065 14.5874 139.933 15.4048 139.863 16.5942C139.857 17.0161 139.854 17.7222 139.854 18.7124C139.854 19.7085 139.857 20.6489 139.863 21.5337V22.9663C139.863 23.1421 139.881 23.3267 139.916 23.52C139.951 23.7134 140.05 23.8774 140.214 24.0122C140.455 24.147 140.715 24.2144 140.997 24.2144C141.922 24.2144 142.714 23.8892 143.37 23.2388L143.713 22.8521C143.906 22.6118 144.114 22.3921 144.337 22.1929C144.6 21.9644 144.893 21.8442 145.215 21.8325C145.473 21.8325 145.696 21.9292 145.883 22.1226C146.194 22.4507 146.349 23.0483 146.349 23.9155C146.349 24.478 146.256 25.0317 146.068 25.5767C145.816 26.356 145.4 26.8042 144.82 26.9214C144.609 26.9741 143.991 27.0005 142.965 27.0005ZM153.82 27.2114C153.532 27.2114 153.172 27.1938 152.739 27.1587C152.311 27.1294 151.816 27.0269 151.253 26.8511C150.327 26.5581 149.604 26.0806 149.082 25.4185C148.567 24.7563 148.253 23.8716 148.142 22.7642C148.072 22.0962 148.031 21.2495 148.019 20.2241C148.007 18.5073 147.992 17.2915 147.975 16.5767C147.957 15.8618 147.899 15.3286 147.799 14.9771C147.705 14.6548 147.603 14.3706 147.491 14.1245C147.292 13.6792 147.193 13.3335 147.193 13.0874C147.193 12.5542 147.45 12.1763 147.966 11.9536L148.001 11.936V11.9448C148.218 11.8628 148.476 11.8218 148.775 11.8218H151.675C152.179 11.8452 152.539 12.021 152.756 12.3491C152.903 12.5659 152.976 12.8091 152.976 13.0786C152.976 13.3306 152.885 13.6763 152.703 14.1157C152.598 14.3618 152.501 14.646 152.413 14.9683C152.325 15.2905 152.276 15.7007 152.264 16.1987C152.241 18.1558 152.229 19.3394 152.229 19.7495C152.229 20.5112 152.246 21.1704 152.282 21.7271C152.334 22.6001 152.7 23.2915 153.38 23.8013C153.714 24.0298 154.092 24.144 154.514 24.144H154.874C155.097 24.144 155.378 24.0005 155.718 23.7134C156.064 23.4204 156.263 22.9604 156.316 22.3335C156.363 21.3374 156.386 20.3384 156.386 19.3364L156.377 16.8755C156.383 16.6646 156.386 16.4507 156.386 16.2339C156.386 15.853 156.371 15.5249 156.342 15.2495C156.289 14.7573 156.166 14.2974 155.973 13.8696C155.797 13.5239 155.706 13.1577 155.7 12.771C155.724 12.4839 155.824 12.2524 155.999 12.0767C156.181 11.895 156.415 11.8042 156.702 11.8042H158.917C159.427 11.8042 159.805 11.9741 160.051 12.314C160.203 12.5132 160.28 12.7358 160.28 12.9819C160.28 13.146 160.244 13.3218 160.174 13.5093C159.764 14.5288 159.559 15.5864 159.559 16.6821L159.568 18.7388C159.568 20.0103 159.53 21.2788 159.453 22.5444C159.33 24.0327 158.859 25.1577 158.038 25.9194C157.218 26.6812 156.099 27.103 154.681 27.1851C154.394 27.2026 154.107 27.2114 153.82 27.2114ZM165.895 27.0093L163.25 26.9917C162.793 26.98 162.485 26.8452 162.327 26.5874C162.169 26.3296 162.09 26.0894 162.09 25.8667C162.09 25.6733 162.131 25.4653 162.213 25.2427C162.5 24.4985 162.679 23.7427 162.749 22.9751C162.825 22.061 162.863 20.6021 162.863 18.5981C162.863 18.1353 162.86 17.6782 162.854 17.2271C162.849 16.688 162.81 16.1226 162.74 15.5308C162.676 14.9331 162.576 14.4761 162.441 14.1597C162.184 13.6616 162.055 13.2515 162.055 12.9292C162.055 12.1909 162.506 11.8218 163.408 11.8218L166.95 11.813C167.917 11.813 168.881 11.8218 169.842 11.8394C171.207 11.8628 172.347 12.2554 173.261 13.0171C173.952 13.6558 174.301 14.2095 174.307 14.6782C174.312 15.147 174.315 15.3843 174.315 15.3901C174.315 16.5093 173.855 17.5142 172.935 18.4048C172.76 18.5747 172.511 18.7915 172.188 19.0552C172.546 19.2192 172.862 19.3892 173.138 19.5649C174.028 20.1216 174.614 20.9976 174.895 22.1929C174.96 22.521 174.992 22.8345 174.992 23.1333C174.992 23.7192 174.863 24.2349 174.605 24.6802C174.219 25.354 173.671 25.8726 172.962 26.2358C172.259 26.5991 171.526 26.8071 170.765 26.8599C169.147 26.9595 167.524 27.0093 165.895 27.0093ZM168.225 24.3989C168.594 24.3989 168.969 24.3521 169.35 24.2583C169.777 24.1294 170.097 23.8774 170.308 23.5024C170.524 23.1274 170.633 22.729 170.633 22.3071C170.633 21.8032 170.48 21.3784 170.176 21.0327C169.865 20.7222 169.531 20.5376 169.174 20.479C168.816 20.4204 168.503 20.3911 168.233 20.3911C168.069 20.3911 167.908 20.3999 167.75 20.4175C167.223 20.4468 166.938 20.7866 166.897 21.437V21.6743C166.897 22.2778 166.906 22.8374 166.924 23.353C166.976 23.9507 167.255 24.2876 167.759 24.3638C167.893 24.3872 168.049 24.3989 168.225 24.3989ZM168.198 17.9829C168.679 17.9653 169.057 17.8657 169.332 17.6841C169.73 17.3853 169.971 17.0923 170.053 16.8052C170.135 16.5181 170.176 16.3013 170.176 16.1548C170.176 15.8618 170.094 15.5571 169.93 15.2407C169.766 14.9185 169.522 14.6812 169.2 14.5288C168.913 14.3999 168.614 14.3354 168.304 14.3354C167.946 14.3472 167.68 14.3765 167.504 14.4233C167.31 14.4937 167.161 14.6167 167.056 14.7925C166.95 14.9624 166.894 15.1499 166.889 15.355V15.7505C166.889 16.4712 166.894 16.9927 166.906 17.3149C166.941 17.7603 167.328 17.9829 168.066 17.9829H168.198Z" fill="white"/>
<path d="M30.175 5.70876C30.8548 5.11738 31.9872 5.57172 31.9541 6.42257L31.5536 16.7106C31.5211 17.5469 30.3893 17.9374 29.7463 17.3343L24.2481 12.1776C23.8468 11.8012 23.8594 11.2029 24.2764 10.8401L30.175 5.70876Z" fill="white"/>
<path d="M36.7396 7.59194C37.3741 8.20457 36.954 9.28355 36.0695 9.31298L33.8856 9.38564C33.3225 9.40438 32.858 8.9546 32.8587 8.39128L32.8615 6.2127C32.8627 5.32927 33.9249 4.87436 34.5584 5.48602L36.7396 7.59194Z" fill="white"/>
<path d="M4.74105 10.3914C3.44973 9.19228 4.41426 7.16859 6.27645 7.16991L16.3501 7.17707C16.9287 7.17748 17.4791 7.39319 17.8714 7.77331L29.1928 18.7409C29.9947 19.5177 29.9214 20.7446 29.0309 21.454L23.8765 25.5597C23.0326 26.232 21.7587 26.1933 20.9818 25.4719L4.74105 10.3914Z" fill="white"/>
<path d="M20.4235 26.7847C20.8883 27.209 20.8504 27.952 20.3448 28.3267L16.2655 31.3501C15.5758 31.8612 14.605 31.323 14.6732 30.4673L15.1741 24.178C15.2401 23.3488 16.2306 22.958 16.845 23.5187L20.4235 26.7847Z" fill="white"/>
</svg>
