<svg width="26" height="29" viewBox="0 0 26 29" fill="none" xmlns="http://www.w3.org/2000/svg">
<path d="M12.9993 25.952C19.5653 23.6444 23.6374 19.4152 23.6374 14.8943V4.40642C23.6374 3.27827 22.7204 2.36133 21.5923 2.36133H4.40642C3.27827 2.36133 2.36133 3.27827 2.36133 4.40642V14.8943C2.36133 19.4152 6.43336 23.647 12.9993 25.952ZM7.58644 12.2908C7.75316 11.8921 8.13104 11.6073 8.56869 11.5587C10.2011 11.3531 11.8655 12.1422 12.8755 13.5649C14.3829 10.9501 16.1154 8.45071 19.5332 6.41273C19.8778 6.20712 20.3265 6.27102 20.6044 6.56556C20.91 6.89344 20.9239 7.39359 20.6252 7.73539C18.2856 10.414 17.0504 12.5828 15.7458 14.8765C15.2762 15.6948 14.7927 16.5409 14.2523 17.4301C14.2453 17.437 14.2384 17.4481 14.2314 17.4579C13.9188 17.8747 13.4354 18.1164 12.9046 18.1192H12.8935C12.3781 18.1192 11.8946 17.8844 11.5737 17.4759C10.7456 16.42 8.89922 14.186 7.83489 13.3079C7.53202 13.0592 7.43361 12.6507 7.58644 12.2908Z" fill="#1A1A1A"/>
<path d="M12.3528 28.2297L13.0002 28.4534L13.6477 28.2297C21.2668 25.5872 26 20.4829 26 14.8964V3.94435C26 1.77144 24.2286 0 22.0557 0H3.94435C1.77144 0 0 1.7714 0 3.94435V14.895C0 20.4829 4.73073 25.5871 12.3523 28.2297H12.3528ZM1.61203 4.40708C1.61203 2.86771 2.8638 1.61174 4.40736 1.61174H21.5961C23.1396 1.61174 24.3914 2.86768 24.3914 4.40708V14.895C24.3914 19.7716 20.0775 24.2992 13.1267 26.7071C13.0836 26.721 13.0447 26.7251 13.0016 26.7251C12.9586 26.7251 12.9197 26.721 12.8766 26.7071C5.92723 24.2994 1.61191 19.7716 1.61191 14.895L1.61469 4.40708H1.61203Z" fill="#1A1A1A"/>
<path d="M10.3132 14.7807C11.0204 15.592 11.7081 16.434 12.1596 17.0147C12.3416 17.2425 12.625 17.3814 12.8987 17.3704C13.1835 17.3662 13.4461 17.2384 13.6212 17.0147C14.1588 16.1436 14.6312 15.3072 15.0938 14.5C16.4207 12.1743 17.6766 9.97628 20.0622 7.23657C20.1052 7.19072 20.1052 7.11987 20.0622 7.0768C20.0191 7.03373 19.9621 7.024 19.9163 7.05179C16.4166 9.13995 14.8132 11.652 13.2155 14.4749C13.1516 14.5958 13.0127 14.6667 12.8848 14.6667C12.7501 14.6625 12.625 14.5888 12.557 14.468C11.8317 13.1162 10.4688 12.2728 9.08227 12.2728C8.94055 12.2728 8.79745 12.2798 8.65852 12.2978C8.48764 12.3187 8.33481 12.4298 8.27508 12.5827C8.25424 12.6354 8.26813 12.6966 8.31398 12.7285C8.86555 13.1912 9.60187 13.9707 10.3132 14.7807Z" fill="#1A1A1A"/>
</svg>
