<svg width="19" height="20" viewBox="0 0 19 20" fill="none" xmlns="http://www.w3.org/2000/svg">
<path d="M14.8344 0.149902H3.4656C1.63681 0.149902 0.150002 1.905 0.150002 4.06138V15.2384C0.150002 17.3959 1.63772 19.1499 3.4656 19.1499H14.8344C16.6632 19.1499 18.15 17.3948 18.15 15.2384V4.06246C18.15 1.905 16.6623 0.150975 14.8344 0.150975V0.149902ZM17.2032 15.2384C17.2032 16.7808 16.1418 18.0329 14.8344 18.0329H3.4656C2.15819 18.0329 1.0968 16.7808 1.0968 15.2384V4.06246C1.0968 2.52007 2.15819 1.26793 3.4656 1.26793H14.8344C16.1418 1.26793 17.2032 2.52007 17.2032 4.06246V15.2395V15.2384Z" fill="black" stroke="black" stroke-width="0.3"/>
<path d="M14.1697 6.61577L11.0619 5.23287C10.664 5.05257 10.1906 5.17603 9.94367 5.50731C9.64081 5.915 9.14786 6.11395 8.74995 6.00027C8.55099 5.94342 8.38046 5.80131 8.23835 5.58371C7.98255 5.20445 7.4896 5.06234 7.07305 5.25243L3.9937 6.61668C3.32134 6.91955 2.98915 7.6683 3.2263 8.36907L3.62421 9.56279C3.7379 9.90386 3.99369 10.1783 4.32498 10.3115C4.65627 10.4537 5.03553 10.435 5.34817 10.2734C5.48051 10.2067 5.5942 10.2636 5.63239 10.2831C5.67059 10.3115 5.7745 10.387 5.7745 10.5291V12.6137C5.7745 13.3998 6.40957 14.0348 7.1956 14.0348H10.9855C11.7715 14.0348 12.4066 13.3998 12.4066 12.6137V10.5291C12.4066 10.387 12.5016 10.3115 12.5487 10.2831C12.5869 10.2547 12.7006 10.2076 12.8329 10.2734C13.1554 10.4341 13.5337 10.4439 13.8561 10.3115C14.1874 10.1694 14.4432 9.90386 14.5569 9.56279L14.9548 8.36907C15.192 7.6683 14.8598 6.91955 14.1874 6.61668L14.1697 6.61577ZM14.0462 8.06529L13.6483 9.25902C13.6101 9.37271 13.5249 9.41978 13.4876 9.43932C13.4405 9.45797 13.3454 9.4864 13.2504 9.43932C12.8623 9.25014 12.4164 9.26879 12.0469 9.49617C11.6774 9.72354 11.4598 10.1214 11.4598 10.5478V12.6324C11.4598 12.8979 11.2511 13.1058 10.9864 13.1058H7.19651C6.93094 13.1058 6.72312 12.897 6.72312 12.6324V10.5478C6.72312 10.1117 6.50551 9.72354 6.13603 9.49617C5.93708 9.37271 5.7097 9.30698 5.48233 9.30698C5.29314 9.30698 5.10306 9.35406 4.92366 9.43932C4.81975 9.49617 4.72471 9.46774 4.68651 9.43932C4.63944 9.42067 4.55417 9.37271 4.52575 9.25902L4.12784 8.06529C4.05234 7.82814 4.15626 7.58212 4.38364 7.48708L7.45322 6.12282C7.71879 6.51095 8.06872 6.7863 8.47641 6.90886C9.26245 7.14601 10.1631 6.81382 10.6835 6.10327L13.7913 7.48617C14.0187 7.5812 14.1226 7.83701 14.0471 8.07325L14.0462 8.06529Z" fill="black" stroke="black" stroke-width="0.3"/>
</svg>
