<svg width="50" height="50" viewBox="0 0 50 50" fill="none" xmlns="http://www.w3.org/2000/svg">
<circle cx="25" cy="25" r="25" fill="white"/>
<path d="M30.6447 35.0338C30.7084 35.1316 30.7524 35.2411 30.7741 35.356C30.7959 35.471 30.7949 35.5891 30.7713 35.7036C30.7477 35.8182 30.7019 35.9269 30.6366 36.0236C30.5713 36.1203 30.4877 36.203 30.3906 36.2671C29.2647 37.0128 27.9624 37.7727 26.4094 38.5931C26.2838 38.6589 26.1442 38.6933 26.0026 38.6933C25.8611 38.6933 25.7215 38.6589 25.5959 38.5931C12.8953 31.9711 11 24.8543 11 21.2007C11 16.0416 14.4888 12 18.9412 12C20.2748 12.0046 21.5925 12.2921 22.8087 12.844C24.0248 13.3959 25.1122 14.1998 26 15.2033C26.8878 14.1998 27.9752 13.3959 29.1913 12.844C30.4075 12.2921 31.7252 12.0046 33.0588 12C37.5112 12 41 16.0416 41 21.2007C40.9562 23.5531 40.2752 25.8487 39.0306 27.8388C38.9739 27.9442 38.8967 28.037 38.8035 28.1115C38.7104 28.1861 38.6032 28.2409 38.4885 28.2727C38.3739 28.3044 38.254 28.3125 38.1361 28.2963C38.0183 28.2802 37.9049 28.2402 37.8028 28.1787C37.7007 28.1173 37.6119 28.0356 37.5419 27.9387C37.4718 27.8418 37.4219 27.7316 37.3952 27.6147C37.3684 27.4978 37.3654 27.3767 37.3862 27.2587C37.4071 27.1406 37.4514 27.028 37.5165 26.9276C38.5948 25.2116 39.1891 23.2317 39.2353 21.2007C39.2353 16.9687 36.5882 13.7796 33.0588 13.7796C31.8196 13.7896 30.6006 14.0967 29.5023 14.6757C28.4041 15.2547 27.4583 16.0888 26.7429 17.1093C26.6572 17.2267 26.5452 17.3221 26.4162 17.3879C26.2871 17.4536 26.1446 17.4879 26 17.4879C25.8554 17.4879 25.7129 17.4536 25.5838 17.3879C25.4548 17.3221 25.3428 17.2267 25.2571 17.1093C24.5417 16.0888 23.5959 15.2547 22.4977 14.6757C21.3994 14.0967 20.1804 13.7896 18.9412 13.7796C15.4206 13.7796 12.7647 16.9687 12.7647 21.2007C12.7647 24.4041 14.4941 30.6755 26 36.7992C27.3218 36.0874 28.4459 35.4271 29.4235 34.7793C29.619 34.6499 29.8574 34.6041 30.0863 34.6518C30.3153 34.6995 30.5161 34.8369 30.6447 35.0338ZM38.3529 31.576H35.7059V28.9065C35.7059 28.6706 35.6129 28.4442 35.4474 28.2773C35.282 28.1105 35.0575 28.0167 34.8235 28.0167C34.5895 28.0167 34.3651 28.1105 34.1996 28.2773C34.0341 28.4442 33.9412 28.6706 33.9412 28.9065V31.576H31.2941C31.0601 31.576 30.8357 31.6697 30.6702 31.8366C30.5047 32.0035 30.4118 32.2298 30.4118 32.4658C30.4118 32.7018 30.5047 32.9281 30.6702 33.095C30.8357 33.2619 31.0601 33.3556 31.2941 33.3556H33.9412V36.0251C33.9412 36.2611 34.0341 36.4874 34.1996 36.6543C34.3651 36.8212 34.5895 36.9149 34.8235 36.9149C35.0575 36.9149 35.282 36.8212 35.4474 36.6543C35.6129 36.4874 35.7059 36.2611 35.7059 36.0251V33.3556H38.3529C38.587 33.3556 38.8114 33.2619 38.9769 33.095C39.1423 32.9281 39.2353 32.7018 39.2353 32.4658C39.2353 32.2298 39.1423 32.0035 38.9769 31.8366C38.8114 31.6697 38.587 31.576 38.3529 31.576Z" fill="#1A1A1A"/>
</svg>
