<svg width="37" height="37" viewBox="0 0 37 37" fill="none" xmlns="http://www.w3.org/2000/svg">
<path fill-rule="evenodd" clip-rule="evenodd" d="M17.9815 28.4404V18.7964L13.571 16.24L9.63727 13.9791V23.6232L17.9815 28.4404ZM22.1128 17.0173V20.4953L24.2836 19.2412L24.282 15.7632L22.1112 16.9964L22.1128 17.0173ZM13.2418 11.2993L15.4158 10.042L23.7648 14.8626L21.594 16.1199L13.2418 11.2993ZM20.5587 16.7172L18.5035 17.9054L14.0688 15.3442L10.1511 13.0786L12.2063 11.8951L20.5587 16.7172ZM25.3275 15.1628L27.3827 13.9794V23.6235L19.0255 28.4408V18.7967L21.0807 17.6165V21.3787C21.0807 21.5634 21.1802 21.7352 21.3408 21.8267C21.4998 21.9198 21.6973 21.9198 21.8578 21.8267L25.0273 19.9978C25.2119 19.9127 25.3308 19.728 25.3308 19.5241V15.1631L25.3275 15.1628ZM16.4483 9.45763L18.5035 8.2742L26.8513 13.0788L24.7961 14.267L16.4483 9.45763ZM10.2585 20.4619C10.138 20.3945 10.0513 20.2805 10.0144 20.1488C9.97909 20.0155 9.99675 19.8742 10.0642 19.7554C10.2071 19.5065 10.5234 19.4198 10.7723 19.5611L12.4694 20.5567C12.7038 20.706 12.7793 21.0127 12.6412 21.2536C12.5015 21.4944 12.1981 21.5827 11.9508 21.4527L10.2569 20.4748L10.2585 20.4619ZM10.2585 22.7148C10.0337 22.5622 9.96464 22.2636 10.0995 22.0291C10.2344 21.7931 10.5266 21.7016 10.7723 21.8188L14.0606 23.7216C14.2581 23.8789 14.3143 24.1551 14.1938 24.3767C14.0718 24.5983 13.8101 24.6995 13.5709 24.6176L10.2826 22.7148L10.2585 22.7148ZM18.5035 36.9994C13.0556 36.9994 7.8839 34.5989 4.36911 30.4367C0.854399 26.273 -0.646796 20.7733 0.265134 15.4023L4.14912 14.3618C2.9144 18.6377 3.64979 23.2417 6.15614 26.9187C8.66092 30.5958 12.6764 32.9659 17.1066 33.3803C21.5364 33.7962 25.9213 32.2145 29.067 29.0657C29.2693 28.8618 29.2693 28.5342 29.067 28.3303L27.9575 27.2207L35.438 25.2152L33.4278 32.6917L32.3183 31.5821C32.1144 31.3798 31.7869 31.3798 31.5829 31.5821C28.118 35.0569 23.4103 37.0061 18.5037 37L18.5035 36.9994ZM9.0496 9.78216L1.5724 11.7893L3.57782 4.31159L4.68729 5.42114H4.6889C4.89281 5.62346 5.22037 5.62346 5.42429 5.42114C9.14772 1.69583 14.2842 -0.2664 19.5426 0.0291579C24.8011 0.324613 29.6854 2.84724 32.9688 6.96594C36.2523 11.0848 37.625 16.4078 36.742 21.6008L32.858 22.6413C34.0927 18.3654 33.3574 13.7614 30.851 10.0844C28.3462 6.40725 24.3307 4.03716 19.9005 3.6228C15.4708 3.20692 11.0858 4.78855 7.94013 7.93737C7.73782 8.1413 7.73782 8.46888 7.94013 8.67282L9.0496 9.78216Z" fill="#1A1A1A" fill-opacity="0.75"/>
</svg>
