<svg width="28" height="28" viewBox="0 0 28 28" fill="none" xmlns="http://www.w3.org/2000/svg">
<path d="M16.6606 20.8366L16.5439 20.8133C16.4972 20.79 16.0539 20.6966 15.5872 20.6266C15.4006 20.6033 14.8872 20.5566 14.1406 20.5566C13.6506 20.5566 13.0672 20.58 12.3906 20.6266C12.0872 20.6733 11.7372 20.72 11.4106 20.8133C9.66057 21.2333 8.00391 22.0266 8.00391 22.4233C8.00391 23.1 10.8972 24.2433 13.9772 24.2433C17.0572 24.2433 19.9506 23.1233 19.9739 22.4233C19.9972 22.05 18.8539 21.3733 16.6606 20.8366Z" fill="#1A1A1A"/>
<path d="M14 0C6.27667 0 0 6.27667 0 14C0 21.7233 6.27667 28 14 28C21.7233 28 28 21.7233 28 14C28 6.27667 21.7233 0 14 0ZM14 3.05667C17.9433 3.05667 20.4167 7.32667 18.4567 10.7333L14 18.4333L9.54333 10.7567C7.58333 7.32667 10.0567 3.05667 14 3.05667ZM14 24.9433C11.27 24.9433 7.32667 23.9633 7.30333 22.4233C7.30333 21.14 10.57 20.2767 11.2467 20.1133C11.5967 20.02 11.9467 19.9733 12.2967 19.9267C14 19.7867 15.26 19.8567 15.68 19.9267C16.17 19.9967 16.6367 20.1133 16.7067 20.1133L16.8233 20.1367C18.5967 20.58 20.6733 21.3267 20.6733 22.4C20.6733 23.9633 16.7067 24.9433 14 24.9433Z" fill="#1A1A1A"/>
<path d="M14.0007 9.77688C15.2379 9.77688 16.2407 8.77399 16.2407 7.53687C16.2407 6.29976 15.2379 5.29688 14.0007 5.29688C12.7636 5.29688 11.7607 6.29976 11.7607 7.53687C11.7607 8.77399 12.7636 9.77688 14.0007 9.77688Z" fill="#1A1A1A"/>
</svg>
