<svg width="47" height="24" viewBox="0 0 47 24" fill="none" xmlns="http://www.w3.org/2000/svg">
<path d="M35.352 11.9644C34.4278 11.9644 33.7017 11.2218 33.7017 10.3141C33.7017 9.38998 34.4278 8.66386 35.352 8.66386H41.0455L38.2235 3.72959C37.9264 3.2015 37.3818 2.88795 36.7877 2.88795H34.4806L34.6423 1.9308C34.7249 1.45223 34.5928 0.957151 34.2793 0.594094C33.9657 0.214535 33.5036 0 33.0251 0H11.2577C10.449 0 9.7724 0.577591 9.62387 1.38622L9.35983 2.97047H15.862C17.6938 2.97047 19.1626 4.4392 19.1626 6.27099C19.1626 8.08627 17.6938 9.5715 15.862 9.5715H14.7068C15.3339 10.1656 15.73 11.0237 15.73 11.9479C15.73 13.7797 14.2447 15.2484 12.4294 15.2484H7.29696L6.71935 18.6809C6.63684 19.1595 6.76886 19.6546 7.08242 20.0341C7.39598 20.3972 7.85806 20.6117 8.33664 20.6117H11.2742C11.4293 21.158 11.6834 21.6663 12.0482 22.0986C12.8007 22.9881 13.9295 23.498 15.1474 23.498C17.0386 23.498 18.7863 22.3033 19.6296 20.6134H32.3633C32.5184 21.1596 32.7726 21.6679 33.1373 22.1003C33.8882 22.9898 35.0186 23.4997 36.2365 23.4997C38.1261 23.4997 39.8738 22.3049 40.7187 20.615H43.3394C44.148 20.615 44.8412 20.0374 44.9732 19.2453L46.1944 12.0337V11.9677H35.352V11.9644Z" fill="#1A1A1A" fill-opacity="0.75"/>
<path d="M14.0743 11.9562C14.0743 11.0452 13.335 10.3059 12.424 10.3059H1.6542C0.743239 10.3059 0.00390625 11.0452 0.00390625 11.9562C0.00390625 12.8671 0.743239 13.6064 1.6542 13.6064H12.424C13.3366 13.6064 14.0743 12.8671 14.0743 11.9562Z" fill="#1A1A1A" fill-opacity="0.75"/>
<path d="M5.09561 7.91966H15.8654C16.7764 7.91966 17.5157 7.18034 17.5157 6.2694C17.5157 5.35846 16.7764 4.61914 15.8654 4.61914H5.09561C4.18464 4.61914 3.44531 5.35846 3.44531 6.2694C3.44531 7.18034 4.18464 7.91966 5.09561 7.91966Z" fill="#1A1A1A" fill-opacity="0.75"/>
</svg>
