<svg width="25" height="24" viewBox="0 0 25 24" fill="none" xmlns="http://www.w3.org/2000/svg">
<path d="M16.4767 24H8.5234C8.31252 24 8.14137 23.8297 8.14137 23.62V19.4607L4.509 21.5201C4.42098 21.57 4.31615 21.5824 4.21897 21.5569C4.12117 21.5301 4.03803 21.4657 3.98791 21.3781L0.0505336 14.5039C-0.0539904 14.3215 0.00988536 14.0898 0.193261 13.9859L3.69573 12L0.192955 10.0138C0.0095799 9.90986 -0.0542959 9.67819 0.0502282 9.49578L3.98791 2.62248C4.03803 2.53492 4.12117 2.47078 4.21897 2.44402C4.31615 2.41727 4.42098 2.43065 4.509 2.4805L8.14137 4.53933V0.380026C8.14137 0.170252 8.31252 0 8.5234 0H16.4761C16.687 0 16.8581 0.170252 16.8581 0.380026V4.53842L20.4905 2.47929C20.5788 2.42913 20.6827 2.41636 20.7805 2.44281C20.8783 2.46956 20.9615 2.53371 21.0116 2.62127L24.9496 9.49517C25.0541 9.67819 24.9902 9.90955 24.8068 10.0135L21.3019 12L24.8068 13.9865C24.9905 14.0904 25.0544 14.3221 24.9496 14.5048L21.0122 21.3796C20.9621 21.4669 20.8786 21.531 20.7811 21.5578C20.6833 21.5839 20.5788 21.5715 20.4911 21.5216L16.8587 19.4622V23.6209C16.8587 23.8297 16.6873 24 16.4767 24Z" fill="#1A1A1A"/>
</svg>
