<svg width="50" height="50" viewBox="0 0 50 50" fill="none" xmlns="http://www.w3.org/2000/svg">
<circle cx="25" cy="25" r="25" fill="white"/>
<g clip-path="url(#clip0_536_845)">
<rect width="29" height="29" transform="translate(11 11)" fill="white"/>
<path d="M36.1814 16.5702C35.5642 15.9527 34.8315 15.4629 34.025 15.1287C33.2184 14.7946 32.354 14.6226 31.481 14.6226C30.608 14.6226 29.7435 14.7946 28.937 15.1287C28.1305 15.4629 27.3977 15.9527 26.7806 16.5702L25.4997 17.851L24.2189 16.5702C22.9723 15.3236 21.2815 14.6232 19.5185 14.6232C17.7555 14.6232 16.0647 15.3236 14.8181 16.5702C13.5714 17.8168 12.8711 19.5076 12.8711 21.2706C12.8711 23.0336 13.5714 24.7244 14.8181 25.971L25.4997 36.6527L36.1814 25.971C36.7989 25.3539 37.2887 24.6211 37.6228 23.8146C37.957 23.0081 38.129 22.1436 38.129 21.2706C38.129 20.3976 37.957 19.5331 37.6228 18.7266C37.2887 17.9201 36.7989 17.1873 36.1814 16.5702Z" fill="#FF0000" stroke="#FF0000" stroke-width="4" stroke-linecap="round" stroke-linejoin="round"/>
</g>
<defs>
<clipPath id="clip0_536_845">
<rect width="29" height="29" fill="white" transform="translate(11 11)"/>
</clipPath>
</defs>
</svg>
